<?xml version="1.0" encoding="UTF-8"?>
<!DOCTYPE svg PUBLIC "-//W3C//DTD SVG 1.1//EN" "http://www.w3.org/Graphics/SVG/1.1/DTD/svg11.dtd">
<svg xmlns="http://www.w3.org/2000/svg" version="1.1" width="50px" height="50px" style="shape-rendering:geometricPrecision; text-rendering:geometricPrecision; image-rendering:optimizeQuality; fill-rule:evenodd; clip-rule:evenodd" xmlns:xlink="http://www.w3.org/1999/xlink">
<g><path style="opacity:0.485" fill="#ebe6e7" d="M 8.5,1.5 C 19.1667,1.5 29.8333,1.5 40.5,1.5C 40.6666,14.1711 40.4999,26.8377 40,39.5C 29.6667,50.1667 19.3333,50.1667 9,39.5C 8.50012,26.8377 8.33345,14.1711 8.5,1.5 Z"/></g>
<g><path style="opacity:1" fill="#474344" d="M 37.5,32.5 C 37.5,23.1667 37.5,13.8333 37.5,4.5C 28.8333,4.5 20.1667,4.5 11.5,4.5C 11.5,13.8333 11.5,23.1667 11.5,32.5C 10.5062,23.0144 10.1729,13.3478 10.5,3.5C 19.8333,3.5 29.1667,3.5 38.5,3.5C 38.8271,13.3478 38.4938,23.0144 37.5,32.5 Z"/></g>
<g><path style="opacity:1" fill="#282425" d="M 37.5,32.5 C 36.5,32.5 35.5,32.5 34.5,32.5C 34.5,31.5 34.5,30.5 34.5,29.5C 34.5,24.5 34.5,19.5 34.5,14.5C 31.6447,6.61887 26.3113,4.4522 18.5,8C 16.3341,9.678 15.0007,11.8447 14.5,14.5C 14.5,19.5 14.5,24.5 14.5,29.5C 14.5,30.5 14.5,31.5 14.5,32.5C 13.5,32.5 12.5,32.5 11.5,32.5C 11.5,23.1667 11.5,13.8333 11.5,4.5C 20.1667,4.5 28.8333,4.5 37.5,4.5C 37.5,13.8333 37.5,23.1667 37.5,32.5 Z"/></g>
<g><path style="opacity:1" fill="#b0afaf" d="M 34.5,14.5 C 33.5,14.5 32.5,14.5 31.5,14.5C 31.5,14.1667 31.5,13.8333 31.5,13.5C 30.5776,9.91672 28.2442,8.25005 24.5,8.5C 21.1815,8.15903 18.8482,9.49236 17.5,12.5C 16.6618,12.8417 16.3284,13.5084 16.5,14.5C 15.8333,14.5 15.1667,14.5 14.5,14.5C 15.0007,11.8447 16.3341,9.678 18.5,8C 26.3113,4.4522 31.6447,6.61887 34.5,14.5 Z"/></g>
<g><path style="opacity:1" fill="#221e1f" d="M 31.5,13.5 C 26.6367,13.8195 21.97,13.4861 17.5,12.5C 18.8482,9.49236 21.1815,8.15903 24.5,8.5C 28.2442,8.25005 30.5776,9.91672 31.5,13.5 Z"/></g>
<g><path style="opacity:1" fill="#676465" d="M 17.5,12.5 C 21.97,13.4861 26.6367,13.8195 31.5,13.5C 31.5,13.8333 31.5,14.1667 31.5,14.5C 26.5,14.5 21.5,14.5 16.5,14.5C 16.3284,13.5084 16.6618,12.8417 17.5,12.5 Z"/></g>
<g><path style="opacity:1" fill="#cbc7c8" d="M 14.5,14.5 C 15.1667,14.5 15.8333,14.5 16.5,14.5C 21.5,14.5 26.5,14.5 31.5,14.5C 32.5,14.5 33.5,14.5 34.5,14.5C 34.5,19.5 34.5,24.5 34.5,29.5C 33.8333,29.5 33.1667,29.5 32.5,29.5C 32.5,25.1667 32.5,20.8333 32.5,16.5C 30.1667,16.5 27.8333,16.5 25.5,16.5C 25.5,21.8333 25.5,27.1667 25.5,32.5C 27.8333,32.5 30.1667,32.5 32.5,32.5C 32.5,32.8333 32.5,33.1667 32.5,33.5C 29.9407,33.1984 27.6074,33.5318 25.5,34.5C 25.6309,35.3764 25.2975,36.0431 24.5,36.5C 22.1324,34.777 19.4658,34.1103 16.5,34.5C 16.5,33.8333 16.5,33.1667 16.5,32.5C 18.8333,32.5 21.1667,32.5 23.5,32.5C 23.5,27.1667 23.5,21.8333 23.5,16.5C 21.1667,16.5 18.8333,16.5 16.5,16.5C 16.5,20.8333 16.5,25.1667 16.5,29.5C 15.8333,29.5 15.1667,29.5 14.5,29.5C 14.5,24.5 14.5,19.5 14.5,14.5 Z"/></g>
<g><path style="opacity:1" fill="#262223" d="M 16.5,32.5 C 16.5,31.5 16.5,30.5 16.5,29.5C 16.5,25.1667 16.5,20.8333 16.5,16.5C 18.8333,16.5 21.1667,16.5 23.5,16.5C 23.5,21.8333 23.5,27.1667 23.5,32.5C 21.1667,32.5 18.8333,32.5 16.5,32.5 Z"/></g>
<g><path style="opacity:1" fill="#272323" d="M 32.5,29.5 C 32.5,30.5 32.5,31.5 32.5,32.5C 30.1667,32.5 27.8333,32.5 25.5,32.5C 25.5,27.1667 25.5,21.8333 25.5,16.5C 27.8333,16.5 30.1667,16.5 32.5,16.5C 32.5,20.8333 32.5,25.1667 32.5,29.5 Z"/></g>
<g><path style="opacity:1" fill="#e99fac" d="M 10.5,34.5 C 11.5676,33.5655 12.901,33.2322 14.5,33.5C 14.5,34.5 14.5,35.5 14.5,36.5C 13.5326,35.1938 12.1993,34.5271 10.5,34.5 Z"/></g>
<g><path style="opacity:1" fill="#e69ba8" d="M 25.5,34.5 C 27.6074,33.5318 29.9407,33.1984 32.5,33.5C 32.5,34.5 32.5,35.5 32.5,36.5C 30.5441,34.8516 28.2108,34.1849 25.5,34.5 Z"/></g>
<g><path style="opacity:1" fill="#e296a3" d="M 38.5,34.5 C 36.8007,34.5271 35.4674,35.1938 34.5,36.5C 34.5,35.5 34.5,34.5 34.5,33.5C 36.099,33.2322 37.4324,33.5655 38.5,34.5 Z"/></g>
<g><path style="opacity:1" fill="#c7263a" d="M 10.5,34.5 C 12.1993,34.5271 13.5326,35.1938 14.5,36.5C 15.8333,36.5 16.5,35.8333 16.5,34.5C 19.4658,34.1103 22.1324,34.777 24.5,36.5C 25.2975,36.0431 25.6309,35.3764 25.5,34.5C 28.2108,34.1849 30.5441,34.8516 32.5,36.5C 33.1667,36.5 33.8333,36.5 34.5,36.5C 35.4674,35.1938 36.8007,34.5271 38.5,34.5C 38.2189,36.9628 37.2189,39.1295 35.5,41C 27.2898,47.3305 19.4564,46.8305 12,39.5C 10.9914,37.9751 10.4914,36.3084 10.5,34.5 Z"/></g>
</svg>
