<?xml version="1.0" encoding="UTF-8"?>
<!DOCTYPE svg PUBLIC "-//W3C//DTD SVG 1.1//EN" "http://www.w3.org/Graphics/SVG/1.1/DTD/svg11.dtd">
<svg xmlns="http://www.w3.org/2000/svg" version="1.1" width="50px" height="50px" style="shape-rendering:geometricPrecision; text-rendering:geometricPrecision; image-rendering:optimizeQuality; fill-rule:evenodd; clip-rule:evenodd" xmlns:xlink="http://www.w3.org/1999/xlink">
<g><path style="opacity:1" fill="#fdfdfb" d="M -0.5,-0.5 C 16.1667,-0.5 32.8333,-0.5 49.5,-0.5C 49.5,16.1667 49.5,32.8333 49.5,49.5C 32.8333,49.5 16.1667,49.5 -0.5,49.5C -0.5,32.8333 -0.5,16.1667 -0.5,-0.5 Z"/></g>
<g><path style="opacity:1" fill="#dbcfb3" d="M 44.5,17.5 C 43.3556,15.8998 42.1889,14.2331 41,12.5C 40.6924,13.3081 40.1924,13.9747 39.5,14.5C 37.812,13.4787 36.4787,12.1454 35.5,10.5C 36.2891,10.2172 36.9558,9.71719 37.5,9C 35.0183,5.47105 32.1849,4.97105 29,7.5C 28.1667,7.16667 27.3333,6.83333 26.5,6.5C 27.7287,5.71893 29.062,5.21893 30.5,5C 26.8484,4.50137 23.1817,4.3347 19.5,4.5C 18.8333,4.5 18.5,4.16667 18.5,3.5C 31.193,0.84458 39.8596,5.51125 44.5,17.5 Z"/></g>
<g><path style="opacity:1" fill="#f7f6ef" d="M 19.5,4.5 C 23.1817,4.3347 26.8484,4.50137 30.5,5C 29.062,5.21893 27.7287,5.71893 26.5,6.5C 27.3333,6.83333 28.1667,7.16667 29,7.5C 32.1849,4.97105 35.0183,5.47105 37.5,9C 36.9558,9.71719 36.2891,10.2172 35.5,10.5C 34.9383,6.9316 33.605,6.59827 31.5,9.5C 26.3812,8.04072 21.3812,8.37405 16.5,10.5C 15.475,10.1034 15.3083,9.43677 16,8.5C 17.7487,9.29903 19.082,8.63236 20,6.5C 21.3985,7.05085 22.7318,7.38419 24,7.5C 24.1667,7.16667 24.3333,6.83333 24.5,6.5C 22.7086,5.83015 21.0419,5.16348 19.5,4.5 Z"/></g>
<g><path style="opacity:1" fill="#e6dec9" d="M 18.5,3.5 C 18.5,4.16667 18.8333,4.5 19.5,4.5C 21.0419,5.16348 22.7086,5.83015 24.5,6.5C 24.3333,6.83333 24.1667,7.16667 24,7.5C 22.7318,7.38419 21.3985,7.05085 20,6.5C 19.082,8.63236 17.7487,9.29903 16,8.5C 15.3083,9.43677 15.475,10.1034 16.5,10.5C 13.819,12.6877 11.6523,15.3544 10,18.5C 9.50166,21.8168 9.33499,25.1501 9.5,28.5C 8.68509,29.4293 7.85175,30.4293 7,31.5C 6.72158,30.5842 6.22158,29.9175 5.5,29.5C 5.82124,27.9519 6.82124,27.2852 8.5,27.5C 8.5,25.5 8.5,23.5 8.5,21.5C 7.44802,21.6495 6.44802,21.4828 5.5,21C 6.38017,19.6439 6.71351,18.1439 6.5,16.5C 6.83333,15.1667 7.16667,13.8333 7.5,12.5C 9.83333,10.8333 11.8333,8.83333 13.5,6.5C 14.9649,5.26315 16.6316,4.26315 18.5,3.5 Z"/></g>
<g><path style="opacity:1" fill="#d3c5a2" d="M 13.5,6.5 C 11.8333,8.83333 9.83333,10.8333 7.5,12.5C 8.5,9.5 10.5,7.5 13.5,6.5 Z"/></g>
<g><path style="opacity:1" fill="#bfa570" d="M 31.5,9.5 C 35.6324,12.2935 38.6324,15.9601 40.5,20.5C 41.6082,29.2878 38.2749,35.6211 30.5,39.5C 29.5084,39.3284 28.8417,39.6618 28.5,40.5C 19.0105,41.3214 12.6771,37.3214 9.5,28.5C 9.33499,25.1501 9.50166,21.8168 10,18.5C 11.6523,15.3544 13.819,12.6877 16.5,10.5C 21.3812,8.37405 26.3812,8.04072 31.5,9.5 Z"/></g>
<g><path style="opacity:1" fill="#b6985b" d="M 27.5,12.5 C 25.2895,13.1228 23.2895,14.1228 21.5,15.5C 20.7291,12.7297 21.8958,10.7297 25,9.5C 26.3102,10.1301 27.1435,11.1301 27.5,12.5 Z"/></g>
<g><path style="opacity:1" fill="#e9e2cf" d="M 35.5,10.5 C 36.4787,12.1454 37.812,13.4787 39.5,14.5C 40.1924,13.9747 40.6924,13.3081 41,12.5C 42.1889,14.2331 43.3556,15.8998 44.5,17.5C 46.0173,19.4621 46.6839,21.7954 46.5,24.5C 46.6839,27.2046 46.0173,29.5379 44.5,31.5C 44.6657,27.1539 44.499,22.8206 44,18.5C 43.7508,19.624 43.2508,20.624 42.5,21.5C 41.3044,21.1543 41.3044,20.6543 42.5,20C 41.5632,19.3083 40.8966,19.475 40.5,20.5C 38.6324,15.9601 35.6324,12.2935 31.5,9.5C 33.605,6.59827 34.9383,6.9316 35.5,10.5 Z"/></g>
<g><path style="opacity:1" fill="#e0d6bc" d="M 27.5,12.5 C 28.1471,13.2739 28.4805,14.2739 28.5,15.5C 27.8278,18.5123 27.1611,21.5123 26.5,24.5C 25.5416,24.0472 24.7083,23.3805 24,22.5C 23.6121,23.428 22.9454,24.0946 22,24.5C 19.9534,23.3906 17.7867,22.7239 15.5,22.5C 15.0618,22.5654 14.7284,22.3988 14.5,22C 16,20.8333 17.5,19.6667 19,18.5C 19.6667,19.1667 20.3333,19.8333 21,20.5C 21.4935,18.8659 21.6602,17.1992 21.5,15.5C 23.2895,14.1228 25.2895,13.1228 27.5,12.5 Z"/></g>
<g><path style="opacity:1" fill="#fcfbf9" d="M 6.5,16.5 C 6.71351,18.1439 6.38017,19.6439 5.5,21C 6.44802,21.4828 7.44802,21.6495 8.5,21.5C 8.5,23.5 8.5,25.5 8.5,27.5C 6.82124,27.2852 5.82124,27.9519 5.5,29.5C 4.84014,28.036 4.50681,26.3693 4.5,24.5C 4.38165,21.5143 5.04832,18.8476 6.5,16.5 Z"/></g>
<g><path style="opacity:1" fill="#e0d6bd" d="M 33.5,24.5 C 33.6309,23.6236 33.2975,22.9569 32.5,22.5C 30.9246,23.4565 29.258,24.1231 27.5,24.5C 27.718,19.4371 29.718,18.4371 33.5,21.5C 34.7759,22.6136 34.7759,23.6136 33.5,24.5 Z"/></g>
<g><path style="opacity:1" fill="#f3f0e6" d="M 15.5,22.5 C 17.7867,22.7239 19.9534,23.3906 22,24.5C 22.9454,24.0946 23.6121,23.428 24,22.5C 24.7083,23.3805 25.5416,24.0472 26.5,24.5C 26.8333,24.5 27.1667,24.5 27.5,24.5C 29.258,24.1231 30.9246,23.4565 32.5,22.5C 33.2975,22.9569 33.6309,23.6236 33.5,24.5C 33.0362,29.4619 30.3695,32.1286 25.5,32.5C 25.6495,33.552 25.4828,34.552 25,35.5C 23.2854,33.2902 21.1188,31.6236 18.5,30.5C 16.7134,28.1416 15.7134,25.475 15.5,22.5 Z"/></g>
<g><path style="opacity:1" fill="#d7cbad" d="M 41.5,27.5 C 42.2389,27.369 42.9056,27.5357 43.5,28C 42.8732,30.3434 41.8732,32.5101 40.5,34.5C 40.1667,34.1667 39.8333,33.8333 39.5,33.5C 40.7472,31.677 41.4139,29.677 41.5,27.5 Z"/></g>
<g><path style="opacity:1" fill="#d5c7a6" d="M 7.5,12.5 C 7.16667,13.8333 6.83333,15.1667 6.5,16.5C 5.04832,18.8476 4.38165,21.5143 4.5,24.5C 4.50681,26.3693 4.84014,28.036 5.5,29.5C 7.28095,36.2804 11.281,41.2804 17.5,44.5C 10.9452,42.4478 6.44516,38.1145 4,31.5C 3.33333,26.8333 3.33333,22.1667 4,17.5C 4.69724,15.4156 5.8639,13.7489 7.5,12.5 Z"/></g>
<g><path style="opacity:1" fill="#f1ede2" d="M 9.5,28.5 C 12.6771,37.3214 19.0105,41.3214 28.5,40.5C 28.281,41.675 28.6143,42.675 29.5,43.5C 30.7362,42.7542 32.0695,42.4208 33.5,42.5C 28.5448,45.3944 23.2115,46.061 17.5,44.5C 11.281,41.2804 7.28095,36.2804 5.5,29.5C 6.22158,29.9175 6.72158,30.5842 7,31.5C 7.85175,30.4293 8.68509,29.4293 9.5,28.5 Z"/></g>
<g><path style="opacity:1" fill="#d4c4a3" d="M 44.5,31.5 C 44.4046,34.3576 43.2379,36.6909 41,38.5C 41.5965,35.9734 42.7631,33.6401 44.5,31.5 Z"/></g>
<g><path style="opacity:1" fill="#e0d8bf" d="M 30.5,39.5 C 31.5417,40.7911 32.7083,40.7911 34,39.5C 34.4696,40.5768 34.3029,41.5768 33.5,42.5C 32.0695,42.4208 30.7362,42.7542 29.5,43.5C 28.6143,42.675 28.281,41.675 28.5,40.5C 28.8417,39.6618 29.5084,39.3284 30.5,39.5 Z"/></g>
<g><path style="opacity:1" fill="#d7c9aa" d="M 17.5,44.5 C 23.2115,46.061 28.5448,45.3944 33.5,42.5C 34.5832,42.4606 35.5832,42.1272 36.5,41.5C 37.6956,41.8457 37.6956,42.3457 36.5,43C 30.2232,46.7222 23.8899,47.2222 17.5,44.5 Z"/></g>
</svg>
