<?xml version="1.0" encoding="UTF-8"?>
<!DOCTYPE svg PUBLIC "-//W3C//DTD SVG 1.1//EN" "http://www.w3.org/Graphics/SVG/1.1/DTD/svg11.dtd">
<svg xmlns="http://www.w3.org/2000/svg" version="1.1" width="50px" height="50px" style="shape-rendering:geometricPrecision; text-rendering:geometricPrecision; image-rendering:optimizeQuality; fill-rule:evenodd; clip-rule:evenodd" xmlns:xlink="http://www.w3.org/1999/xlink">
<g><path style="opacity:1" fill="#13284b" d="M -0.5,-0.5 C 16.1667,-0.5 32.8333,-0.5 49.5,-0.5C 49.5,16.1667 49.5,32.8333 49.5,49.5C 32.8333,49.5 16.1667,49.5 -0.5,49.5C -0.5,32.8333 -0.5,16.1667 -0.5,-0.5 Z"/></g>
<g><path style="opacity:1" fill="#ead9d5" d="M 34.5,17.5 C 32.8333,17.5 31.1667,17.5 29.5,17.5C 30.5676,16.5655 31.901,16.2322 33.5,16.5C 33.5,14.8333 33.5,13.1667 33.5,11.5C 27.5,11.5 21.5,11.5 15.5,11.5C 15.5,13.1667 15.5,14.8333 15.5,16.5C 17.099,16.2322 18.4324,16.5655 19.5,17.5C 17.8333,17.5 16.1667,17.5 14.5,17.5C 14.5,15.1667 14.5,12.8333 14.5,10.5C 21.1667,10.5 27.8333,10.5 34.5,10.5C 34.5,12.8333 34.5,15.1667 34.5,17.5 Z"/></g>
<g><path style="opacity:1" fill="#f05938" d="M 29.5,17.5 C 28.1667,22.1667 28.1667,26.8333 29.5,31.5C 30.5676,32.4345 31.901,32.7678 33.5,32.5C 33.5,34.1667 33.5,35.8333 33.5,37.5C 27.5,37.5 21.5,37.5 15.5,37.5C 15.5,35.8333 15.5,34.1667 15.5,32.5C 17.099,32.7678 18.4324,32.4345 19.5,31.5C 20.8333,26.8333 20.8333,22.1667 19.5,17.5C 18.4324,16.5655 17.099,16.2322 15.5,16.5C 15.5,14.8333 15.5,13.1667 15.5,11.5C 21.5,11.5 27.5,11.5 33.5,11.5C 33.5,13.1667 33.5,14.8333 33.5,16.5C 31.901,16.2322 30.5676,16.5655 29.5,17.5 Z"/></g>
<g><path style="opacity:1" fill="#a7a1ab" d="M 14.5,17.5 C 16.1667,17.5 17.8333,17.5 19.5,17.5C 20.8333,22.1667 20.8333,26.8333 19.5,31.5C 17.8333,31.5 16.1667,31.5 14.5,31.5C 15.5676,30.5655 16.901,30.2322 18.5,30.5C 18.5,26.5 18.5,22.5 18.5,18.5C 16.901,18.7678 15.5676,18.4345 14.5,17.5 Z"/></g>
<g><path style="opacity:1" fill="#a6a0a9" d="M 29.5,17.5 C 31.1667,17.5 32.8333,17.5 34.5,17.5C 33.4324,18.4345 32.099,18.7678 30.5,18.5C 30.5,22.5 30.5,26.5 30.5,30.5C 32.099,30.2322 33.4324,30.5655 34.5,31.5C 32.8333,31.5 31.1667,31.5 29.5,31.5C 28.1667,26.8333 28.1667,22.1667 29.5,17.5 Z"/></g>
<g><path style="opacity:1" fill="#e9dad8" d="M 14.5,31.5 C 16.1667,31.5 17.8333,31.5 19.5,31.5C 18.4324,32.4345 17.099,32.7678 15.5,32.5C 15.5,34.1667 15.5,35.8333 15.5,37.5C 21.5,37.5 27.5,37.5 33.5,37.5C 33.5,35.8333 33.5,34.1667 33.5,32.5C 31.901,32.7678 30.5676,32.4345 29.5,31.5C 31.1667,31.5 32.8333,31.5 34.5,31.5C 34.5,33.8333 34.5,36.1667 34.5,38.5C 27.8333,38.5 21.1667,38.5 14.5,38.5C 14.5,36.1667 14.5,33.8333 14.5,31.5 Z"/></g>
</svg>
