<?xml version="1.0" encoding="UTF-8"?>
<!DOCTYPE svg PUBLIC "-//W3C//DTD SVG 1.1//EN" "http://www.w3.org/Graphics/SVG/1.1/DTD/svg11.dtd">
<svg xmlns="http://www.w3.org/2000/svg" version="1.1" width="50px" height="50px" style="shape-rendering:geometricPrecision; text-rendering:geometricPrecision; image-rendering:optimizeQuality; fill-rule:evenodd; clip-rule:evenodd" xmlns:xlink="http://www.w3.org/1999/xlink">
<g><path style="opacity:1" fill="#020200" d="M -0.5,-0.5 C 16.1667,-0.5 32.8333,-0.5 49.5,-0.5C 49.5,16.1667 49.5,32.8333 49.5,49.5C 32.8333,49.5 16.1667,49.5 -0.5,49.5C -0.5,32.8333 -0.5,16.1667 -0.5,-0.5 Z"/></g>
<g><path style="opacity:1" fill="#3d3110" d="M 33.5,19.5 C 33.8333,19.5 34.1667,19.5 34.5,19.5C 34.5405,22.8806 34.2071,26.2139 33.5,29.5C 32.8333,29.5 32.1667,29.5 31.5,29.5C 32.1667,26.1667 32.8333,22.8333 33.5,19.5 Z"/></g>
<g><path style="opacity:1" fill="#4b3c0e" d="M 11.5,20.5 C 11.8333,20.5 12.1667,20.5 12.5,20.5C 12.5,23.1667 12.5,25.8333 12.5,28.5C 12.1667,28.5 11.8333,28.5 11.5,28.5C 10.1667,25.8333 10.1667,23.1667 11.5,20.5 Z"/></g>
<g><path style="opacity:1" fill="#d8b00a" d="M 33.5,19.5 C 32.8333,22.8333 32.1667,26.1667 31.5,29.5C 30.1667,29.5 28.8333,29.5 27.5,29.5C 27.6557,23.6875 26.989,23.3541 25.5,28.5C 24.3112,29.4287 22.9778,29.762 21.5,29.5C 20.6216,19.277 19.6216,19.1103 18.5,29C 16.2884,29.7891 14.2884,29.6225 12.5,28.5C 12.5,25.8333 12.5,23.1667 12.5,20.5C 14.3035,19.838 16.3035,19.5046 18.5,19.5C 20.9637,19.5899 23.1303,20.2565 25,21.5C 25.7096,20.0267 26.8762,19.3601 28.5,19.5C 28.8333,24.8333 29.1667,24.8333 29.5,19.5C 30.8333,19.5 32.1667,19.5 33.5,19.5 Z"/></g>
<g><path style="opacity:1" fill="#eac008" d="M 11.5,20.5 C 10.1667,23.1667 10.1667,25.8333 11.5,28.5C 9.96521,29.7879 8.29855,29.7879 6.5,28.5C 7.83333,25.8333 7.83333,23.1667 6.5,20.5C 8.29855,19.2121 9.96521,19.2121 11.5,20.5 Z"/></g>
<g><path style="opacity:1" fill="#e5bc0a" d="M 34.5,19.5 C 36.5,19.5 38.5,19.5 40.5,19.5C 40.2035,22.7239 40.8702,25.7239 42.5,28.5C 40.6017,29.7345 38.935,29.4011 37.5,27.5C 36.4763,28.8532 35.143,29.5198 33.5,29.5C 34.2071,26.2139 34.5405,22.8806 34.5,19.5 Z"/></g>
</svg>
