<?xml version="1.0" encoding="UTF-8"?>
<!DOCTYPE svg PUBLIC "-//W3C//DTD SVG 1.1//EN" "http://www.w3.org/Graphics/SVG/1.1/DTD/svg11.dtd">
<svg xmlns="http://www.w3.org/2000/svg" version="1.1" width="50px" height="50px" style="shape-rendering:geometricPrecision; text-rendering:geometricPrecision; image-rendering:optimizeQuality; fill-rule:evenodd; clip-rule:evenodd" xmlns:xlink="http://www.w3.org/1999/xlink">
<g><path style="opacity:1" fill="#03339f" d="M -0.5,-0.5 C 16.1667,-0.5 32.8333,-0.5 49.5,-0.5C 49.5,16.1667 49.5,32.8333 49.5,49.5C 32.8333,49.5 16.1667,49.5 -0.5,49.5C -0.5,32.8333 -0.5,16.1667 -0.5,-0.5 Z"/></g>
<g><path style="opacity:1" fill="#4265b4" d="M 22.5,10.5 C 25.2869,9.52333 28.2869,9.19 31.5,9.5C 31.7678,11.099 31.4345,12.4324 30.5,13.5C 30.5,12.5 30.5,11.5 30.5,10.5C 27.8333,10.5 25.1667,10.5 22.5,10.5 Z"/></g>
<g><path style="opacity:1" fill="#f3f5f7" d="M 13.5,12.5 C 15.2884,11.3775 17.2884,11.2109 19.5,12C 18.3418,13.0086 17.6752,14.3419 17.5,16C 17.6962,17.8784 18.0295,19.7117 18.5,21.5C 16.9826,21.4894 15.8159,20.8228 15,19.5C 14.8138,16.9644 14.3138,14.631 13.5,12.5 Z"/></g>
<g><path style="opacity:1" fill="#6d88bf" d="M 13.5,12.5 C 14.3138,14.631 14.8138,16.9644 15,19.5C 15.8159,20.8228 16.9826,21.4894 18.5,21.5C 19.4614,23.2646 19.7947,25.2646 19.5,27.5C 18.8333,27.5 18.5,27.8333 18.5,28.5C 20.6074,29.4682 22.9407,29.8016 25.5,29.5C 23.0521,30.4731 20.3854,30.8064 17.5,30.5C 17.8333,27.8333 18.1667,25.1667 18.5,22.5C 16.6096,22.7035 15.1096,22.0368 14,20.5C 13.5034,18.1902 13.3367,15.8568 13.5,13.5C 13.5,13.1667 13.5,12.8333 13.5,12.5 Z"/></g>
<g><path style="opacity:1" fill="#90a5cd" d="M 22.5,10.5 C 25.1667,10.5 27.8333,10.5 30.5,10.5C 30.5,11.5 30.5,12.5 30.5,13.5C 29.596,14.209 29.2627,15.209 29.5,16.5C 31.8333,16.5 34.1667,16.5 36.5,16.5C 36.5,17.8333 36.5,19.1667 36.5,20.5C 32.8388,20.3501 31.8388,21.8501 33.5,25C 34.448,25.4828 35.448,25.6495 36.5,25.5C 36.5,26.8333 36.5,28.1667 36.5,29.5C 33.5,29.5 30.5,29.5 27.5,29.5C 26.8333,24.1667 26.1667,24.1667 25.5,29.5C 22.9407,29.8016 20.6074,29.4682 18.5,28.5C 20.5273,28.6621 22.5273,28.4955 24.5,28C 23.6634,26.9887 23.33,25.8221 23.5,24.5C 27.2407,23.5985 29.2407,24.9319 29.5,28.5C 31.5273,28.6621 33.5273,28.4955 35.5,28C 28.8892,24.7079 28.8892,21.5412 35.5,18.5C 33.604,17.5344 31.604,17.2011 29.5,17.5C 29.3491,21.314 27.3491,22.9807 23.5,22.5C 23.2865,20.8561 23.6198,19.3561 24.5,18C 22.7412,17.2025 21.0745,17.3691 19.5,18.5C 20.7828,21.6346 20.7828,24.6346 19.5,27.5C 19.7947,25.2646 19.4614,23.2646 18.5,21.5C 18.0295,19.7117 17.6962,17.8784 17.5,16C 17.6752,14.3419 18.3418,13.0086 19.5,12C 17.2884,11.2109 15.2884,11.3775 13.5,12.5C 13.5,12.8333 13.5,13.1667 13.5,13.5C 12.596,12.791 12.2627,11.791 12.5,10.5C 15.1667,10.5 17.8333,10.5 20.5,10.5C 20.1667,12.5 19.8333,14.5 19.5,16.5C 21.1667,16.5 22.8333,16.5 24.5,16.5C 23.8333,14.5 23.1667,12.5 22.5,10.5 Z"/></g>
<g><path style="opacity:1" fill="#f8fafa" d="M 24.5,12.5 C 25.9464,11.3871 27.6131,11.2204 29.5,12C 28.7256,14.405 28.2256,16.905 28,19.5C 27.3109,20.3567 26.4776,21.0233 25.5,21.5C 25.6384,18.4781 25.3051,15.4781 24.5,12.5 Z"/></g>
<g><path style="opacity:1" fill="#f6f7f9" d="M 18.5,28.5 C 18.5,27.8333 18.8333,27.5 19.5,27.5C 20.7828,24.6346 20.7828,21.6346 19.5,18.5C 21.0745,17.3691 22.7412,17.2025 24.5,18C 23.6198,19.3561 23.2865,20.8561 23.5,22.5C 27.3491,22.9807 29.3491,21.314 29.5,17.5C 31.604,17.2011 33.604,17.5344 35.5,18.5C 28.8892,21.5412 28.8892,24.7079 35.5,28C 33.5273,28.4955 31.5273,28.6621 29.5,28.5C 29.2407,24.9319 27.2407,23.5985 23.5,24.5C 23.33,25.8221 23.6634,26.9887 24.5,28C 22.5273,28.4955 20.5273,28.6621 18.5,28.5 Z"/></g>
<g><path style="opacity:1" fill="#7991c6" d="M 19.5,35.5 C 20.5624,36.5754 20.5624,37.5754 19.5,38.5C 18.6184,37.2402 17.6184,36.0736 16.5,35C 17.5768,34.5304 18.5768,34.6971 19.5,35.5 Z"/></g>
<g><path style="opacity:1" fill="#6a87c4" d="M 19.5,35.5 C 21.6074,34.5318 23.9407,34.1984 26.5,34.5C 26.9059,36.1092 26.9059,37.4425 26.5,38.5C 25.2011,37.91 24.3678,36.91 24,35.5C 23.7508,36.624 23.2508,37.624 22.5,38.5C 21.8589,37.0065 20.8589,36.0065 19.5,35.5 Z"/></g>
<g><path style="opacity:1" fill="#6e8bc3" d="M 29.5,34.5 C 30.1859,35.8484 31.1859,37.015 32.5,38C 29.0639,38.7366 28.0639,37.5699 29.5,34.5 Z"/></g>
<g><path style="opacity:1" fill="#8ea2cc" d="M 33.5,34.5 C 37.1861,36.61 37.3527,37.9433 34,38.5C 33.51,37.2068 33.3433,35.8734 33.5,34.5 Z"/></g>
<g><path style="opacity:1" fill="#5d78b6" d="M 8.5,34.5 C 10.8568,34.3367 13.1902,34.5034 15.5,35C 14.4477,36.7165 15.1144,37.7165 17.5,38C 14.5184,38.498 11.5184,38.6646 8.5,38.5C 8.5,37.1667 8.5,35.8333 8.5,34.5 Z"/></g>
<g><path style="opacity:1" fill="#90a7cd" d="M 37.5,34.5 C 39.2726,35.3143 39.7726,36.6476 39,38.5C 38.2086,37.255 37.7086,35.9217 37.5,34.5 Z"/></g>
</svg>
