<?xml version="1.0" encoding="UTF-8"?>
<!DOCTYPE svg PUBLIC "-//W3C//DTD SVG 1.1//EN" "http://www.w3.org/Graphics/SVG/1.1/DTD/svg11.dtd">
<svg xmlns="http://www.w3.org/2000/svg" version="1.1" width="50px" height="50px" style="shape-rendering:geometricPrecision; text-rendering:geometricPrecision; image-rendering:optimizeQuality; fill-rule:evenodd; clip-rule:evenodd" xmlns:xlink="http://www.w3.org/1999/xlink">
<g><path style="opacity:1" fill="#fbfafb" d="M -0.5,-0.5 C 16.1667,-0.5 32.8333,-0.5 49.5,-0.5C 49.5,10.1667 49.5,20.8333 49.5,31.5C 48.5,31.5 47.5,31.5 46.5,31.5C 44.3368,29.1723 42.1701,29.1723 40,31.5C 39.6121,30.572 38.9454,29.9054 38,29.5C 35.6881,31.5401 33.1881,31.8734 30.5,30.5C 29.5,31.8333 28.5,31.8333 27.5,30.5C 27.5,29.8333 27.1667,29.5 26.5,29.5C 27.7175,28.8386 29.0508,28.1719 30.5,27.5C 30.3333,27.1667 30.1667,26.8333 30,26.5C 26.5316,27.8031 23.0316,27.8031 19.5,26.5C 18.7025,26.9569 18.3691,27.6236 18.5,28.5C 17.2921,29.2341 15.9587,29.5674 14.5,29.5C 12.9731,29.427 11.9731,30.0937 11.5,31.5C 9.85613,31.7135 8.35613,31.3802 7,30.5C 5.27139,30.9743 4.10473,31.9743 3.5,33.5C 3.16667,33.5 2.83333,33.5 2.5,33.5C 2.64945,32.448 2.48278,31.448 2,30.5C 1.23029,31.5981 0.396953,31.5981 -0.5,30.5C -0.5,20.1667 -0.5,9.83333 -0.5,-0.5 Z"/></g>
<g><path style="opacity:1" fill="#46176a" d="M 12.5,20.5 C 13.9516,21.3019 15.6183,21.8019 17.5,22C 14.854,22.4974 12.1873,22.6641 9.5,22.5C 9.5,19.5 9.5,16.5 9.5,13.5C 10.5,13.5 11.5,13.5 12.5,13.5C 12.5,15.8333 12.5,18.1667 12.5,20.5 Z"/></g>
<g><path style="opacity:1" fill="#4c1f6e" d="M 32.5,13.5 C 32.5,16.1667 32.5,18.8333 32.5,21.5C 34.099,21.7678 35.4324,21.4345 36.5,20.5C 36.5,18.1667 36.5,15.8333 36.5,13.5C 37.5,13.5 38.5,13.5 39.5,13.5C 39.5,16.5 39.5,19.5 39.5,22.5C 36.1667,22.5 32.8333,22.5 29.5,22.5C 29.5,19.5 29.5,16.5 29.5,13.5C 30.5,13.5 31.5,13.5 32.5,13.5 Z"/></g>
<g><path style="opacity:1" fill="#a18bb5" d="M 32.5,13.5 C 33.4682,15.6074 33.8016,17.9407 33.5,20.5C 34.5,20.5 35.5,20.5 36.5,20.5C 35.4324,21.4345 34.099,21.7678 32.5,21.5C 32.5,18.8333 32.5,16.1667 32.5,13.5 Z"/></g>
<g><path style="opacity:1" fill="#4f2470" d="M 27.5,22.5 C 24.4816,22.6646 21.4816,22.498 18.5,22C 21.0356,21.8138 23.369,21.3138 25.5,20.5C 23.3926,19.5318 21.0593,19.1984 18.5,19.5C 18.2606,17.5328 18.5939,15.6995 19.5,14C 22.5541,13.1786 25.5541,13.3452 28.5,14.5C 19.256,16.1268 19.256,17.1268 28.5,17.5C 28.7845,19.4147 28.4511,21.0813 27.5,22.5 Z"/></g>
<g><path style="opacity:1" fill="#b29ec0" d="M 12.5,20.5 C 16.8333,20.5 21.1667,20.5 25.5,20.5C 23.369,21.3138 21.0356,21.8138 18.5,22C 21.4816,22.498 24.4816,22.6646 27.5,22.5C 21.5,23.8333 15.5,23.8333 9.5,22.5C 12.1873,22.6641 14.854,22.4974 17.5,22C 15.6183,21.8019 13.9516,21.3019 12.5,20.5 Z"/></g>
<g><path style="opacity:1" fill="#fefefe" d="M 18.5,28.5 C 20.9479,29.4731 23.6146,29.8064 26.5,29.5C 27.1667,29.5 27.5,29.8333 27.5,30.5C 26.5655,31.5676 26.2322,32.901 26.5,34.5C 33.5,34.5 40.5,34.5 47.5,34.5C 48.1667,34.5 48.8333,34.5 49.5,34.5C 49.5,39.5 49.5,44.5 49.5,49.5C 32.8333,49.5 16.1667,49.5 -0.5,49.5C -0.5,43.8333 -0.5,38.1667 -0.5,32.5C 0.221579,32.9175 0.721579,33.5842 1,34.5C 1.38258,33.944 1.88258,33.6107 2.5,33.5C 2.83333,33.5 3.16667,33.5 3.5,33.5C 5.60737,34.4682 7.9407,34.8016 10.5,34.5C 14.9017,34.2281 19.2351,34.5614 23.5,35.5C 24.2621,34.3717 24.9288,33.2051 25.5,32C 21.7595,30.9859 18.0928,30.1526 14.5,29.5C 15.9587,29.5674 17.2921,29.2341 18.5,28.5 Z"/></g>
<g><path style="opacity:1" fill="#bfb0c8" d="M 26.5,29.5 C 23.6146,29.8064 20.9479,29.4731 18.5,28.5C 18.3691,27.6236 18.7025,26.9569 19.5,26.5C 23.0316,27.8031 26.5316,27.8031 30,26.5C 30.1667,26.8333 30.3333,27.1667 30.5,27.5C 29.0508,28.1719 27.7175,28.8386 26.5,29.5 Z"/></g>
<g><path style="opacity:1" fill="#86689a" d="M -0.5,30.5 C 0.396953,31.5981 1.23029,31.5981 2,30.5C 2.48278,31.448 2.64945,32.448 2.5,33.5C 1.88258,33.6107 1.38258,33.944 1,34.5C 0.721579,33.5842 0.221579,32.9175 -0.5,32.5C -0.5,31.8333 -0.5,31.1667 -0.5,30.5 Z"/></g>
<g><path style="opacity:1" fill="#937aa5" d="M 11.5,31.5 C 13.604,31.2011 15.604,31.5344 17.5,32.5C 16.2438,33.0302 14.7438,33.0302 13,32.5C 12.0053,33.0659 11.172,33.7326 10.5,34.5C 7.9407,34.8016 5.60737,34.4682 3.5,33.5C 4.10473,31.9743 5.27139,30.9743 7,30.5C 8.35613,31.3802 9.85613,31.7135 11.5,31.5 Z"/></g>
<g><path style="opacity:1" fill="#886b9d" d="M 46.5,31.5 C 47.5,31.5 48.5,31.5 49.5,31.5C 49.5,32.5 49.5,33.5 49.5,34.5C 48.8333,34.5 48.1667,34.5 47.5,34.5C 46.0852,32.6556 44.4185,31.9889 42.5,32.5C 43.6888,31.5713 45.0222,31.238 46.5,31.5 Z"/></g>
<g><path style="opacity:1" fill="#b6a5c1" d="M 14.5,29.5 C 18.0928,30.1526 21.7595,30.9859 25.5,32C 24.9288,33.2051 24.2621,34.3717 23.5,35.5C 19.2351,34.5614 14.9017,34.2281 10.5,34.5C 11.172,33.7326 12.0053,33.0659 13,32.5C 14.7438,33.0302 16.2438,33.0302 17.5,32.5C 15.604,31.5344 13.604,31.2011 11.5,31.5C 11.9731,30.0937 12.9731,29.427 14.5,29.5 Z"/></g>
<g><path style="opacity:1" fill="#aa96b9" d="M 46.5,31.5 C 45.0222,31.238 43.6888,31.5713 42.5,32.5C 44.4185,31.9889 46.0852,32.6556 47.5,34.5C 40.5,34.5 33.5,34.5 26.5,34.5C 26.2322,32.901 26.5655,31.5676 27.5,30.5C 28.2458,34.31 29.2458,34.31 30.5,30.5C 33.1881,31.8734 35.6881,31.5401 38,29.5C 38.9454,29.9054 39.6121,30.572 40,31.5C 42.1701,29.1723 44.3368,29.1723 46.5,31.5 Z"/></g>
<g><path style="opacity:1" fill="#60397d" d="M 27.5,30.5 C 28.5,31.8333 29.5,31.8333 30.5,30.5C 29.2458,34.31 28.2458,34.31 27.5,30.5 Z"/></g>
</svg>
