<?xml version="1.0" encoding="UTF-8"?>
<!DOCTYPE svg PUBLIC "-//W3C//DTD SVG 1.1//EN" "http://www.w3.org/Graphics/SVG/1.1/DTD/svg11.dtd">
<svg xmlns="http://www.w3.org/2000/svg" version="1.1" width="50px" height="50px" style="shape-rendering:geometricPrecision; text-rendering:geometricPrecision; image-rendering:optimizeQuality; fill-rule:evenodd; clip-rule:evenodd" xmlns:xlink="http://www.w3.org/1999/xlink">
<g><path style="opacity:1" fill="#fbfcfc" d="M -0.5,-0.5 C 16.1667,-0.5 32.8333,-0.5 49.5,-0.5C 49.5,8.5 49.5,17.5 49.5,26.5C 42.8676,25.6369 36.2009,25.8036 29.5,27C 29.0426,27.414 28.7093,27.914 28.5,28.5C 29.689,28.5829 31.189,28.9162 33,29.5C 34.3261,29.2451 35.3261,28.5784 36,27.5C 38,30.1667 40,30.1667 42,27.5C 44.1062,29.291 46.6062,29.9577 49.5,29.5C 49.5,30.1667 49.5,30.8333 49.5,31.5C 37.3217,31.8284 25.3217,31.4951 13.5,30.5C 18.4667,26.9597 19.4667,22.6264 16.5,17.5C 16.1667,16.5 15.5,15.8333 14.5,15.5C 12.2849,12.6599 9.6182,11.9932 6.5,13.5C 3.30045,14.0435 0.967116,15.7102 -0.5,18.5C -0.5,12.1667 -0.5,5.83333 -0.5,-0.5 Z"/></g>
<g><path style="opacity:1" fill="#92adbb" d="M 6.5,13.5 C 9.6182,11.9932 12.2849,12.6599 14.5,15.5C 13.5489,16.9187 13.2155,18.5853 13.5,20.5C 12.5386,18.7354 12.2053,16.7354 12.5,14.5C 11.1667,14.5 9.83333,14.5 8.5,14.5C 8.15829,13.6618 7.49162,13.3284 6.5,13.5 Z"/></g>
<g><path style="opacity:1" fill="#eff4f4" d="M 8.5,14.5 C 9.83333,14.5 11.1667,14.5 12.5,14.5C 12.2053,16.7354 12.5386,18.7354 13.5,20.5C 14.6256,21.8583 14.6256,23.1916 13.5,24.5C 9.90355,25.7833 6.90355,27.7833 4.5,30.5C 3.08134,31.4511 1.41467,31.7845 -0.5,31.5C -0.5,29.5 -0.5,27.5 -0.5,25.5C 0.884606,26.5736 2.05127,27.9069 3,29.5C 2.77601,23.621 4.60934,18.621 8.5,14.5 Z"/></g>
<g><path style="opacity:1" fill="#cdd2d0" d="M 23.5,14.5 C 24.8872,16.4219 26.7206,16.4219 29,14.5C 30.8316,15.8583 32.6649,16.1916 34.5,15.5C 36.8362,16.5939 36.8362,17.9272 34.5,19.5C 33.2519,18.9598 32.0852,18.2931 31,17.5C 28.3847,20.0701 25.718,20.0701 23,17.5C 21.9887,18.3366 20.8221,18.67 19.5,18.5C 19.3537,16.0576 20.187,15.3909 22,16.5C 22.7172,15.9558 23.2172,15.2891 23.5,14.5 Z"/></g>
<g><path style="opacity:1" fill="#195172" d="M 6.5,13.5 C 7.49162,13.3284 8.15829,13.6618 8.5,14.5C 4.60934,18.621 2.77601,23.621 3,29.5C 2.05127,27.9069 0.884606,26.5736 -0.5,25.5C -0.5,23.1667 -0.5,20.8333 -0.5,18.5C 0.967116,15.7102 3.30045,14.0435 6.5,13.5 Z"/></g>
<g><path style="opacity:1" fill="#d3d7d5" d="M 19.5,20.5 C 21.9115,20.1367 23.4115,21.1367 24,23.5C 25.3333,20.8333 26.6667,20.8333 28,23.5C 28.6667,22.1667 29.6667,21.1667 31,20.5C 32.008,22.259 33.508,23.4257 35.5,24C 30.598,25.0248 25.9313,24.5248 21.5,22.5C 20.8076,23.0253 20.3076,23.6919 20,24.5C 19.51,23.2068 19.3433,21.8734 19.5,20.5 Z"/></g>
<g><path style="opacity:1" fill="#688c9d" d="M 16.5,17.5 C 19.4667,22.6264 18.4667,26.9597 13.5,30.5C 12.8333,30.5 12.1667,30.5 11.5,30.5C 15.9605,27.4192 17.6272,23.0859 16.5,17.5 Z"/></g>
<g><path style="opacity:1" fill="#0f4c6e" d="M 14.5,15.5 C 15.5,15.8333 16.1667,16.5 16.5,17.5C 17.6272,23.0859 15.9605,27.4192 11.5,30.5C 9.16667,30.5 6.83333,30.5 4.5,30.5C 6.90355,27.7833 9.90355,25.7833 13.5,24.5C 14.6256,23.1916 14.6256,21.8583 13.5,20.5C 13.2155,18.5853 13.5489,16.9187 14.5,15.5 Z"/></g>
<g><path style="opacity:1" fill="#ced2d1" d="M 49.5,26.5 C 49.5,27.5 49.5,28.5 49.5,29.5C 46.6062,29.9577 44.1062,29.291 42,27.5C 40,30.1667 38,30.1667 36,27.5C 35.3261,28.5784 34.3261,29.2451 33,29.5C 31.189,28.9162 29.689,28.5829 28.5,28.5C 28.7093,27.914 29.0426,27.414 29.5,27C 36.2009,25.8036 42.8676,25.6369 49.5,26.5 Z"/></g>
<g><path style="opacity:1" fill="#b6c8cf" d="M 4.5,30.5 C 6.83333,30.5 9.16667,30.5 11.5,30.5C 12.1667,30.5 12.8333,30.5 13.5,30.5C 25.3217,31.4951 37.3217,31.8284 49.5,31.5C 49.5,33.1667 49.5,34.8333 49.5,36.5C 45.7986,35.5303 42.2986,35.5303 39,36.5C 37.8861,32.5443 37.0527,32.5443 36.5,36.5C 33.1501,36.665 29.8168,36.4983 26.5,36C 25.8742,35.2496 25.3742,34.4162 25,33.5C 24.6532,35.1802 23.6532,36.1802 22,36.5C 19.898,35.9618 19.0646,34.9618 19.5,33.5C 17.2034,35.4105 14.5368,36.4105 11.5,36.5C 7.32873,35.5573 3.32873,35.224 -0.5,35.5C -0.5,34.1667 -0.5,32.8333 -0.5,31.5C 1.41467,31.7845 3.08134,31.4511 4.5,30.5 Z"/></g>
<g><path style="opacity:1" fill="#fdfefe" d="M 49.5,36.5 C 49.5,40.8333 49.5,45.1667 49.5,49.5C 32.8333,49.5 16.1667,49.5 -0.5,49.5C -0.5,44.8333 -0.5,40.1667 -0.5,35.5C 3.32873,35.224 7.32873,35.5573 11.5,36.5C 14.5368,36.4105 17.2034,35.4105 19.5,33.5C 19.0646,34.9618 19.898,35.9618 22,36.5C 23.6532,36.1802 24.6532,35.1802 25,33.5C 25.3742,34.4162 25.8742,35.2496 26.5,36C 29.8168,36.4983 33.1501,36.665 36.5,36.5C 37.0527,32.5443 37.8861,32.5443 39,36.5C 42.2986,35.5303 45.7986,35.5303 49.5,36.5 Z"/></g>
</svg>
