<?xml version="1.0" encoding="UTF-8"?>
<!DOCTYPE svg PUBLIC "-//W3C//DTD SVG 1.1//EN" "http://www.w3.org/Graphics/SVG/1.1/DTD/svg11.dtd">
<svg xmlns="http://www.w3.org/2000/svg" version="1.1" width="50px" height="50px" style="shape-rendering:geometricPrecision; text-rendering:geometricPrecision; image-rendering:optimizeQuality; fill-rule:evenodd; clip-rule:evenodd" xmlns:xlink="http://www.w3.org/1999/xlink">
<g><path style="opacity:1" fill="#f3f3f3" d="M -0.5,-0.5 C 16.1667,-0.5 32.8333,-0.5 49.5,-0.5C 49.5,16.1667 49.5,32.8333 49.5,49.5C 32.8333,49.5 16.1667,49.5 -0.5,49.5C -0.5,32.8333 -0.5,16.1667 -0.5,-0.5 Z"/></g>
<g><path style="opacity:1" fill="#737272" d="M 21.5,2.5 C 15.8333,2.5 10.1667,2.5 4.5,2.5C 4.5,14.8333 4.5,27.1667 4.5,39.5C 3.50465,27.011 3.17132,14.3443 3.5,1.5C 9.68996,1.17711 15.69,1.51045 21.5,2.5 Z"/></g>
<g><path style="opacity:1" fill="#252220" d="M 21.5,2.5 C 22.4098,4.01877 23.2432,5.68544 24,7.5C 25.02,6.1095 25.8534,4.6095 26.5,3C 32.4908,2.50051 38.4908,2.33385 44.5,2.5C 44.6666,15.1711 44.4999,27.8377 44,40.5C 41.929,43.1086 39.429,45.1086 36.5,46.5C 29.8689,47.331 23.2022,47.6643 16.5,47.5C 14.3453,47.628 12.3453,47.128 10.5,46C 7.59136,44.5945 5.59136,42.4278 4.5,39.5C 4.5,27.1667 4.5,14.8333 4.5,2.5C 10.1667,2.5 15.8333,2.5 21.5,2.5 Z"/></g>
<g><path style="opacity:1" fill="#d6ad0c" d="M 30.5,19.5 C 31.6225,17.7116 31.7891,15.7116 31,13.5C 30.2828,14.0442 29.7828,14.7109 29.5,15.5C 28.6118,18.6261 26.7785,20.9594 24,22.5C 21.5423,20.2859 19.5423,17.6192 18,14.5C 17.5702,17.1922 17.7369,19.8589 18.5,22.5C 15.5,22.5 12.5,22.5 9.5,22.5C 10.8333,17.5 10.8333,12.5 9.5,7.5C 17.1291,5.37728 21.9624,8.04395 24,15.5C 25.5,13.1667 27,10.8333 28.5,8.5C 32.1073,7.51078 35.774,7.17744 39.5,7.5C 38.1667,12.5 38.1667,17.5 39.5,22.5C 36.1667,22.5 32.8333,22.5 29.5,22.5C 29.2627,21.209 29.596,20.209 30.5,19.5 Z"/></g>
<g><path style="opacity:1" fill="#816a1b" d="M 30.5,19.5 C 30.7678,17.901 30.4345,16.5676 29.5,15.5C 29.7828,14.7109 30.2828,14.0442 31,13.5C 31.7891,15.7116 31.6225,17.7116 30.5,19.5 Z"/></g>
<g><path style="opacity:1" fill="#766119" d="M 19.5,27.5 C 15.6707,26.931 12.3373,27.5977 9.5,29.5C 8.59603,28.791 8.26269,27.791 8.5,26.5C 12.3714,26.185 16.0381,26.5184 19.5,27.5 Z"/></g>
<g><path style="opacity:1" fill="#7f6818" d="M 39.5,27.5 C 35.6707,26.931 32.3373,27.5977 29.5,29.5C 28.596,28.791 28.2627,27.791 28.5,26.5C 32.3714,26.185 36.0381,26.5184 39.5,27.5 Z"/></g>
<g><path style="opacity:1" fill="#d8ae0b" d="M 19.5,27.5 C 18.3213,30.3709 18.3213,33.2043 19.5,36C 22.8333,36.6667 26.1667,36.6667 29.5,36C 30.768,33.8368 30.768,31.6702 29.5,29.5C 32.3373,27.5977 35.6707,26.931 39.5,27.5C 38.8386,30.7871 38.3386,34.1204 38,37.5C 36.5905,38.7875 35.0905,39.9542 33.5,41C 27.5,41.6667 21.5,41.6667 15.5,41C 13.9984,40.4169 12.6651,39.5836 11.5,38.5C 10.9106,35.3596 10.2439,32.3596 9.5,29.5C 12.3373,27.5977 15.6707,26.931 19.5,27.5 Z"/></g>
<g><path style="opacity:1" fill="#bfbfc0" d="M 36.5,46.5 C 36.0825,47.2216 35.4158,47.7216 34.5,48C 28.3188,48.8192 22.3188,48.6525 16.5,47.5C 23.2022,47.6643 29.8689,47.331 36.5,46.5 Z"/></g>
</svg>
