<?xml version="1.0" encoding="UTF-8"?>
<!DOCTYPE svg PUBLIC "-//W3C//DTD SVG 1.1//EN" "http://www.w3.org/Graphics/SVG/1.1/DTD/svg11.dtd">
<svg xmlns="http://www.w3.org/2000/svg" version="1.1" width="50px" height="50px" style="shape-rendering:geometricPrecision; text-rendering:geometricPrecision; image-rendering:optimizeQuality; fill-rule:evenodd; clip-rule:evenodd" xmlns:xlink="http://www.w3.org/1999/xlink">
<g><path style="opacity:1" fill="#e2c46a" d="M 23.5,-0.5 C 24.1667,-0.5 24.8333,-0.5 25.5,-0.5C 25.5,0.5 25.5,1.5 25.5,2.5C 24.8333,4.5 24.1667,6.5 23.5,8.5C 22.5987,7.70951 21.9321,6.70951 21.5,5.5C 21.5,5.16667 21.5,4.83333 21.5,4.5C 22.1667,2.83333 22.8333,1.16667 23.5,-0.5 Z"/></g>
<g><path style="opacity:0.887" fill="#071746" d="M 21.5,4.5 C 21.5,4.83333 21.5,5.16667 21.5,5.5C 19.2719,5.77687 17.6053,6.77687 16.5,8.5C 15.5655,7.43236 15.2322,6.09903 15.5,4.5C 17.5,4.5 19.5,4.5 21.5,4.5 Z"/></g>
<g><path style="opacity:0.887" fill="#0a1949" d="M 27.5,4.5 C 29.5,4.5 31.5,4.5 33.5,4.5C 33.7678,6.09903 33.4345,7.43236 32.5,8.5C 32.38,7.41383 31.7133,6.74716 30.5,6.5C 29.1508,6.84572 27.8175,7.17905 26.5,7.5C 27.1098,6.60895 27.4431,5.60895 27.5,4.5 Z"/></g>
<g><path style="opacity:0.894" fill="#d69b0a" d="M 25.5,2.5 C 26.5,2.83333 27.1667,3.5 27.5,4.5C 27.4431,5.60895 27.1098,6.60895 26.5,7.5C 26.5,8.16667 26.5,8.83333 26.5,9.5C 25.7777,10.5511 24.7777,11.2178 23.5,11.5C 23.5,10.8333 23.5,10.1667 23.5,9.5C 23.5,9.16667 23.5,8.83333 23.5,8.5C 24.1667,6.5 24.8333,4.5 25.5,2.5 Z"/></g>
<g><path style="opacity:0.992" fill="#0a1d5c" d="M 21.5,5.5 C 21.9321,6.70951 22.5987,7.70951 23.5,8.5C 23.5,8.83333 23.5,9.16667 23.5,9.5C 22.1667,9.5 21.5,10.1667 21.5,11.5C 19.8463,13.5597 18.8463,16.0597 18.5,19C 19.4158,19.2784 20.0825,19.7784 20.5,20.5C 19.209,20.2627 18.209,20.596 17.5,21.5C 16.8333,21.5 16.1667,21.5 15.5,21.5C 16.2949,17.2147 16.6282,12.8814 16.5,8.5C 17.6053,6.77687 19.2719,5.77687 21.5,5.5 Z"/></g>
<g><path style="opacity:0.989" fill="#0d1c57" d="M 32.5,8.5 C 32.3718,12.8814 32.7051,17.2147 33.5,21.5C 33.1667,21.5 32.8333,21.5 32.5,21.5C 30.4214,21.0293 28.4214,20.3627 26.5,19.5C 26.9175,18.7784 27.5842,18.2784 28.5,18C 27.7476,17.3292 27.4142,16.4959 27.5,15.5C 27.5,15.1667 27.5,14.8333 27.5,14.5C 28.8333,14.1667 28.8333,13.8333 27.5,13.5C 27.7678,11.901 27.4345,10.5676 26.5,9.5C 26.5,8.83333 26.5,8.16667 26.5,7.5C 27.8175,7.17905 29.1508,6.84572 30.5,6.5C 31.7133,6.74716 32.38,7.41383 32.5,8.5 Z"/></g>
<g><path style="opacity:1" fill="#071c61" d="M 23.5,9.5 C 23.5,10.1667 23.5,10.8333 23.5,11.5C 24.7196,13.2821 25.3862,15.2821 25.5,17.5C 25.5,18.1667 25.5,18.8333 25.5,19.5C 24.8333,19.5 24.1667,19.5 23.5,19.5C 23.1667,18.1667 22.8333,16.8333 22.5,15.5C 22.5674,14.0413 22.2341,12.7079 21.5,11.5C 21.5,10.1667 22.1667,9.5 23.5,9.5 Z"/></g>
<g><path style="opacity:1" fill="#071c5c" d="M 26.5,9.5 C 27.4345,10.5676 27.7678,11.901 27.5,13.5C 27.5,13.8333 27.5,14.1667 27.5,14.5C 27.5,14.8333 27.5,15.1667 27.5,15.5C 26.8333,16.1667 26.1667,16.8333 25.5,17.5C 25.3862,15.2821 24.7196,13.2821 23.5,11.5C 24.7777,11.2178 25.7777,10.5511 26.5,9.5 Z"/></g>
<g><path style="opacity:0.766" fill="#0c194c" d="M 21.5,11.5 C 22.2341,12.7079 22.5674,14.0413 22.5,15.5C 20.1638,17.0728 20.1638,18.4061 22.5,19.5C 21.8333,19.8333 21.1667,20.1667 20.5,20.5C 20.0825,19.7784 19.4158,19.2784 18.5,19C 18.8463,16.0597 19.8463,13.5597 21.5,11.5 Z"/></g>
<g><path style="opacity:0.992" fill="#e1a30a" d="M 22.5,19.5 C 22.8333,19.5 23.1667,19.5 23.5,19.5C 24.1667,19.5 24.8333,19.5 25.5,19.5C 25.8333,19.5 26.1667,19.5 26.5,19.5C 28.4214,20.3627 30.4214,21.0293 32.5,21.5C 28.1667,22.1667 23.8333,22.8333 19.5,23.5C 18.8333,23.5 18.1667,23.5 17.5,23.5C 17.5,22.8333 17.5,22.1667 17.5,21.5C 18.209,20.596 19.209,20.2627 20.5,20.5C 21.1667,20.1667 21.8333,19.8333 22.5,19.5 Z"/></g>
<g><path style="opacity:0.8" fill="#c48f07" d="M 32.5,21.5 C 32.8333,21.5 33.1667,21.5 33.5,21.5C 36.3721,21.6354 37.8721,22.9688 38,25.5C 31.9929,23.7929 25.8262,23.1262 19.5,23.5C 23.8333,22.8333 28.1667,22.1667 32.5,21.5 Z"/></g>
<g><path style="opacity:0.408" fill="#c08b04" d="M 15.5,21.5 C 16.1667,21.5 16.8333,21.5 17.5,21.5C 17.5,22.1667 17.5,22.8333 17.5,23.5C 15.7816,24.224 13.9483,24.8906 12,25.5C 11.5,25 11,24.5 10.5,24C 11.9101,22.6283 13.5767,21.795 15.5,21.5 Z"/></g>
<g><path style="opacity:0.661" fill="#08184e" d="M 9.5,27.5 C 11.2646,26.5386 13.2646,26.2053 15.5,26.5C 15.5,27.1667 15.5,27.8333 15.5,28.5C 15.5,30.8333 15.5,33.1667 15.5,35.5C 14.8333,35.5 14.1667,35.5 13.5,35.5C 14.5366,33.2625 14.7033,30.9291 14,28.5C 13.8019,30.3817 13.3019,32.0484 12.5,33.5C 12.9227,31.2188 12.256,29.5521 10.5,28.5C 10.5,27.8333 10.1667,27.5 9.5,27.5 Z"/></g>
<g><path style="opacity:0.616" fill="#091e5e" d="M 15.5,26.5 C 17.8333,26.5 20.1667,26.5 22.5,26.5C 22.8333,27.1667 23.1667,27.8333 23.5,28.5C 23.5,28.8333 23.5,29.1667 23.5,29.5C 23.5,29.8333 23.5,30.1667 23.5,30.5C 21.744,31.5521 21.0773,33.2188 21.5,35.5C 20.1667,35.5 18.8333,35.5 17.5,35.5C 17.6621,33.4727 17.4955,31.4727 17,29.5C 16.6174,28.944 16.1174,28.6107 15.5,28.5C 15.5,27.8333 15.5,27.1667 15.5,26.5 Z"/></g>
<g><path style="opacity:0.67" fill="#071d5c" d="M 29.5,26.5 C 30.8333,26.5 32.1667,26.5 33.5,26.5C 33.9926,28.8056 34.3259,31.139 34.5,33.5C 33.3286,33.8356 32.3286,33.8356 31.5,33.5C 30.1667,33.8333 30.1667,34.1667 31.5,34.5C 31.5,34.8333 31.5,35.1667 31.5,35.5C 29.8333,35.5 28.1667,35.5 26.5,35.5C 26.8333,34.8333 27.1667,34.1667 27.5,33.5C 28.1098,32.609 28.4431,31.609 28.5,30.5C 28.8333,29.1667 29.1667,27.8333 29.5,26.5 Z"/></g>
<g><path style="opacity:0.447" fill="#08153f" d="M 34.5,27.5 C 37.7307,26.2185 41.0641,26.2185 44.5,27.5C 44.6716,28.4916 44.3382,29.1583 43.5,29.5C 42.3559,28.8174 42.3559,29.1507 43.5,30.5C 42.8902,31.391 42.5569,32.391 42.5,33.5C 42.1667,33.5 41.8333,33.5 41.5,33.5C 41.7989,31.396 41.4656,29.396 40.5,27.5C 39.8933,27.6236 39.56,27.9569 39.5,28.5C 37.9582,27.6993 36.2915,27.366 34.5,27.5 Z"/></g>
<g><path style="opacity:0.745" fill="#071a54" d="M 48.5,31.5 C 48.1667,31.5 47.8333,31.5 47.5,31.5C 47.316,29.0752 46.6493,29.0752 45.5,31.5C 44.8165,31.1373 44.1499,30.8039 43.5,30.5C 43.5,30.1667 43.5,29.8333 43.5,29.5C 44.3382,29.1583 44.6716,28.4916 44.5,27.5C 47.4374,26.5154 48.7708,27.8488 48.5,31.5 Z"/></g>
<g><path style="opacity:0.981" fill="#081a55" d="M 8.5,27.5 C 8.83333,27.5 9.16667,27.5 9.5,27.5C 10.1667,27.5 10.5,27.8333 10.5,28.5C 10.0773,30.7812 10.744,32.4479 12.5,33.5C 13.3019,32.0484 13.8019,30.3817 14,28.5C 14.7033,30.9291 14.5366,33.2625 13.5,35.5C 10.2869,35.81 7.2869,35.4767 4.5,34.5C 4.68402,32.0752 5.35068,32.0752 6.5,34.5C 7.27494,32.1568 7.94161,29.8234 8.5,27.5 Z M 10.5,28.5 C 12.256,29.5521 12.9227,31.2188 12.5,33.5C 10.744,32.4479 10.0773,30.7812 10.5,28.5 Z"/></g>
<g><path style="opacity:0.589" fill="#071a53" d="M 34.5,27.5 C 36.2915,27.366 37.9582,27.6993 39.5,28.5C 40.5983,29.6009 40.765,30.9343 40,32.5C 39.2208,29.9028 38.7208,29.9028 38.5,32.5C 37.8333,32.5 37.5,32.8333 37.5,33.5C 36.8333,34.8333 36.1667,34.8333 35.5,33.5C 35.6747,31.3792 35.3414,29.3792 34.5,27.5 Z"/></g>
<g><path style="opacity:0.861" fill="#071c5a" d="M 39.5,28.5 C 39.56,27.9569 39.8933,27.6236 40.5,27.5C 41.4656,29.396 41.7989,31.396 41.5,33.5C 41.5,34.1667 41.5,34.8333 41.5,35.5C 40.8333,35.5 40.1667,35.5 39.5,35.5C 39.6716,34.5084 39.3382,33.8417 38.5,33.5C 38.5,33.1667 38.5,32.8333 38.5,32.5C 38.7208,29.9028 39.2208,29.9028 40,32.5C 40.765,30.9343 40.5983,29.6009 39.5,28.5 Z"/></g>
<g><path style="opacity:0.637" fill="#0a1950" d="M -0.5,26.5 C 1.48324,26.1568 2.81658,26.8235 3.5,28.5C 2.25844,30.3888 2.25844,32.3888 3.5,34.5C 2.43236,35.4345 1.09903,35.7678 -0.5,35.5C -0.5,32.5 -0.5,29.5 -0.5,26.5 Z"/></g>
<g><path style="opacity:0.892" fill="#081b59" d="M 8.5,27.5 C 7.94161,29.8234 7.27494,32.1568 6.5,34.5C 5.35068,32.0752 4.68402,32.0752 4.5,34.5C 4.16667,34.5 3.83333,34.5 3.5,34.5C 2.25844,32.3888 2.25844,30.3888 3.5,28.5C 4.9764,26.5682 6.64307,26.2348 8.5,27.5 Z"/></g>
<g><path style="opacity:0.729" fill="#071a55" d="M 15.5,28.5 C 16.1174,28.6107 16.6174,28.944 17,29.5C 17.4955,31.4727 17.6621,33.4727 17.5,35.5C 16.8333,35.5 16.1667,35.5 15.5,35.5C 15.5,33.1667 15.5,30.8333 15.5,28.5 Z"/></g>
<g><path style="opacity:0.929" fill="#081d5f" d="M 47.5,31.5 C 46.7375,32.2679 45.7375,32.7679 44.5,33C 44.7284,33.3988 45.0618,33.5654 45.5,33.5C 45.5,33.8333 45.5,34.1667 45.5,34.5C 44.209,34.7373 43.209,34.404 42.5,33.5C 42.5569,32.391 42.8902,31.391 43.5,30.5C 44.1499,30.8039 44.8165,31.1373 45.5,31.5C 46.6493,29.0752 47.316,29.0752 47.5,31.5 Z"/></g>
<g><path style="opacity:0.792" fill="#352a46" d="M 22.5,26.5 C 23.8333,26.5 25.1667,26.5 26.5,26.5C 25.9518,28.6264 25.2852,30.6264 24.5,32.5C 23.6618,32.1583 23.3284,31.4916 23.5,30.5C 23.5,30.1667 23.5,29.8333 23.5,29.5C 24.8333,29.1667 24.8333,28.8333 23.5,28.5C 23.1667,27.8333 22.8333,27.1667 22.5,26.5 Z"/></g>
<g><path style="opacity:0.633" fill="#081d61" d="M 26.5,26.5 C 27.5,26.5 28.5,26.5 29.5,26.5C 29.1667,27.8333 28.8333,29.1667 28.5,30.5C 27.7784,30.0825 27.2784,29.4158 27,28.5C 26.2204,30.3869 26.3871,32.0536 27.5,33.5C 27.1667,34.1667 26.8333,34.8333 26.5,35.5C 23.7524,35.5983 23.0857,34.5983 24.5,32.5C 25.2852,30.6264 25.9518,28.6264 26.5,26.5 Z"/></g>
<g><path style="opacity:0.961" fill="#091950" d="M 47.5,31.5 C 47.8333,31.5 48.1667,31.5 48.5,31.5C 48.8333,31.5 49.1667,31.5 49.5,31.5C 49.5,32.8333 49.5,34.1667 49.5,35.5C 46.8333,35.5 44.1667,35.5 41.5,35.5C 41.5,34.8333 41.5,34.1667 41.5,33.5C 41.8333,33.5 42.1667,33.5 42.5,33.5C 43.209,34.404 44.209,34.7373 45.5,34.5C 46.8333,34.1667 46.8333,33.8333 45.5,33.5C 45.0618,33.5654 44.7284,33.3988 44.5,33C 45.7375,32.7679 46.7375,32.2679 47.5,31.5 Z"/></g>
<g><path style="opacity:0.629" fill="#05194d" d="M 34.5,33.5 C 34.8333,33.5 35.1667,33.5 35.5,33.5C 36.1667,34.8333 36.8333,34.8333 37.5,33.5C 37.8333,33.5 38.1667,33.5 38.5,33.5C 39.3382,33.8417 39.6716,34.5084 39.5,35.5C 36.8333,35.5 34.1667,35.5 31.5,35.5C 31.5,35.1667 31.5,34.8333 31.5,34.5C 31.5,34.1667 31.5,33.8333 31.5,33.5C 32.3286,33.8356 33.3286,33.8356 34.5,33.5 Z"/></g>
<g><path style="opacity:0.455" fill="#071a56" d="M 6.5,36.5 C 7.16667,36.5 7.83333,36.5 8.5,36.5C 8.62867,38.2161 8.962,39.8828 9.5,41.5C 8.16667,41.5 6.83333,41.5 5.5,41.5C 6.038,39.8828 6.37133,38.2161 6.5,36.5 Z"/></g>
<g><path style="opacity:0.483" fill="#081544" d="M 8.5,36.5 C 11.7104,36.7508 14.7104,36.7508 17.5,36.5C 17.5,37.1667 17.5,37.8333 17.5,38.5C 16.6618,38.8417 16.3284,39.5084 16.5,40.5C 14.8612,40.9258 13.5279,40.9258 12.5,40.5C 12.1667,39.1667 11.8333,39.1667 11.5,40.5C 11.1583,41.3382 10.4916,41.6716 9.5,41.5C 8.962,39.8828 8.62867,38.2161 8.5,36.5 Z"/></g>
<g><path style="opacity:0.59" fill="#06184f" d="M -0.5,36.5 C 1.83333,36.5 4.16667,36.5 6.5,36.5C 6.37133,38.2161 6.038,39.8828 5.5,41.5C 4.25025,41.4226 3.41691,40.756 3,39.5C 2.66667,40.1667 2.33333,40.8333 2,41.5C 1.2917,40.6195 0.458367,39.9528 -0.5,39.5C -0.5,38.5 -0.5,37.5 -0.5,36.5 Z"/></g>
<g><path style="opacity:0.594" fill="#071b57" d="M 17.5,36.5 C 20.1667,36.5 22.8333,36.5 25.5,36.5C 24.8333,37.1667 24.1667,37.8333 23.5,38.5C 21.5239,39.9446 19.5239,40.6113 17.5,40.5C 17.5,39.8333 17.5,39.1667 17.5,38.5C 17.5,37.8333 17.5,37.1667 17.5,36.5 Z"/></g>
<g><path style="opacity:0.545" fill="#0c1d55" d="M 25.5,36.5 C 26.8333,36.5 28.1667,36.5 29.5,36.5C 28.5,37.8333 27.5,39.1667 26.5,40.5C 26.1667,40.5 25.8333,40.5 25.5,40.5C 25.1667,39.5 24.5,38.8333 23.5,38.5C 24.1667,37.8333 24.8333,37.1667 25.5,36.5 Z"/></g>
<g><path style="opacity:0.694" fill="#071951" d="M 38.5,36.5 C 41.8333,36.5 45.1667,36.5 48.5,36.5C 48.6068,38.3786 48.1068,38.7119 47,37.5C 46.2828,38.0442 45.7828,38.7109 45.5,39.5C 45.5,40.1667 45.5,40.8333 45.5,41.5C 44.5084,41.6716 43.8417,41.3382 43.5,40.5C 43.1667,39.1667 42.8333,39.1667 42.5,40.5C 40.8716,41.8528 39.5383,41.5195 38.5,39.5C 38.5,38.5 38.5,37.5 38.5,36.5 Z"/></g>
<g><path style="opacity:0.741" fill="#10205d" d="M 29.5,36.5 C 30.8333,36.5 32.1667,36.5 33.5,36.5C 33.3903,38.0982 33.057,39.7648 32.5,41.5C 31.2976,40.5946 29.9643,40.5946 28.5,41.5C 28.1583,40.6618 27.4916,40.3284 26.5,40.5C 27.5,39.1667 28.5,37.8333 29.5,36.5 Z"/></g>
<g><path style="opacity:0.535" fill="#0b194a" d="M 33.5,36.5 C 35.1667,36.5 36.8333,36.5 38.5,36.5C 38.5,37.5 38.5,38.5 38.5,39.5C 37.7777,40.5511 36.7777,41.2178 35.5,41.5C 34.5,41.5 33.5,41.5 32.5,41.5C 33.057,39.7648 33.3903,38.0982 33.5,36.5 Z"/></g>
<g><path style="opacity:0.682" fill="#071748" d="M 48.5,36.5 C 48.8333,36.5 49.1667,36.5 49.5,36.5C 49.5,37.5 49.5,38.5 49.5,39.5C 48.1667,39.8333 48.1667,40.1667 49.5,40.5C 49.5,41.1667 49.5,41.8333 49.5,42.5C 48.5,42.5 47.5,42.5 46.5,42.5C 46.7373,41.209 46.404,40.209 45.5,39.5C 45.7828,38.7109 46.2828,38.0442 47,37.5C 48.1068,38.7119 48.6068,38.3786 48.5,36.5 Z"/></g>
<g><path style="opacity:0.639" fill="#2a3254" d="M 23.5,38.5 C 24.5,38.8333 25.1667,39.5 25.5,40.5C 22.9455,41.388 20.2788,41.7214 17.5,41.5C 17.5,41.1667 17.5,40.8333 17.5,40.5C 19.5239,40.6113 21.5239,39.9446 23.5,38.5 Z"/></g>
<g><path style="opacity:0.316" fill="#051136" d="M 38.5,39.5 C 39.5383,41.5195 40.8716,41.8528 42.5,40.5C 42.8333,40.5 43.1667,40.5 43.5,40.5C 43.8417,41.3382 44.5084,41.6716 45.5,41.5C 42.3752,42.4794 39.0419,42.8128 35.5,42.5C 35.5,42.1667 35.5,41.8333 35.5,41.5C 36.7777,41.2178 37.7777,40.5511 38.5,39.5 Z"/></g>
<g><path style="opacity:0.09" fill="#191a34" d="M -0.5,39.5 C 0.458367,39.9528 1.2917,40.6195 2,41.5C 2.33333,40.8333 2.66667,40.1667 3,39.5C 3.41691,40.756 4.25025,41.4226 5.5,41.5C 6.83333,41.5 8.16667,41.5 9.5,41.5C 10.4916,41.6716 11.1583,41.3382 11.5,40.5C 11.8333,40.5 12.1667,40.5 12.5,40.5C 13.5279,40.9258 14.8612,40.9258 16.5,40.5C 11.2649,42.45 5.59821,43.1167 -0.5,42.5C -0.5,41.5 -0.5,40.5 -0.5,39.5 Z"/></g>
<g><path style="opacity:0.251" fill="#68573f" d="M 25.5,40.5 C 25.8333,40.5 26.1667,40.5 26.5,40.5C 27.4916,40.3284 28.1583,40.6618 28.5,41.5C 24.7316,42.7866 21.0649,42.7866 17.5,41.5C 20.2788,41.7214 22.9455,41.388 25.5,40.5 Z"/></g>
<g><path style="opacity:0.241" fill="#6c5c35" d="M 32.5,41.5 C 33.5,41.5 34.5,41.5 35.5,41.5C 35.5,41.8333 35.5,42.1667 35.5,42.5C 32.9407,42.8016 30.6074,42.4682 28.5,41.5C 29.9643,40.5946 31.2976,40.5946 32.5,41.5 Z"/></g>
<g><path style="opacity:0.401" fill="#081b5d" d="M 32.5,48.5 C 32.5,48.8333 32.5,49.1667 32.5,49.5C 30.1667,49.5 27.8333,49.5 25.5,49.5C 25.5,48.5 25.5,47.5 25.5,46.5C 28.6447,43.8926 30.978,44.5593 32.5,48.5 Z"/></g>
<g><path style="opacity:0.337" fill="#061951" d="M 13.5,46.5 C 14.1667,46.5 14.8333,46.5 15.5,46.5C 15.7822,47.7777 16.4489,48.7777 17.5,49.5C 15.1667,49.5 12.8333,49.5 10.5,49.5C 11.0998,48.1001 12.0998,47.1001 13.5,46.5 Z"/></g>
<g><path style="opacity:0.42" fill="#0f1f60" d="M 25.5,46.5 C 25.5,47.5 25.5,48.5 25.5,49.5C 22.8333,49.5 20.1667,49.5 17.5,49.5C 16.4489,48.7777 15.7822,47.7777 15.5,46.5C 18.5551,45.4365 21.8884,45.4365 25.5,46.5 Z"/></g>
<g><path style="opacity:0.478" fill="#091543" d="M 38.5,46.5 C 36.712,46.2148 35.0453,46.5481 33.5,47.5C 33.8457,48.6956 34.3457,48.6956 35,47.5C 35.4643,48.0944 35.631,48.7611 35.5,49.5C 34.5,49.5 33.5,49.5 32.5,49.5C 32.5,49.1667 32.5,48.8333 32.5,48.5C 32.5,47.5 32.5,46.5 32.5,45.5C 34.1439,45.7135 35.6439,45.3802 37,44.5C 37.7172,45.0442 38.2172,45.7109 38.5,46.5 Z"/></g>
<g><path style="opacity:0.31" fill="#071b57" d="M 38.5,46.5 C 39.1667,46.5 39.8333,46.5 40.5,46.5C 41.2389,46.369 41.9056,46.5357 42.5,47C 41.7476,47.6708 41.4142,48.5041 41.5,49.5C 39.5,49.5 37.5,49.5 35.5,49.5C 35.631,48.7611 35.4643,48.0944 35,47.5C 34.3457,48.6956 33.8457,48.6956 33.5,47.5C 35.0453,46.5481 36.712,46.2148 38.5,46.5 Z"/></g>
<g><path style="opacity:0.384" fill="#071749" d="M 40.5,46.5 C 43.3727,45.1096 45.0394,46.1096 45.5,49.5C 44.1667,49.5 42.8333,49.5 41.5,49.5C 41.4142,48.5041 41.7476,47.6708 42.5,47C 41.9056,46.5357 41.2389,46.369 40.5,46.5 Z"/></g>
<g><path style="opacity:0.314" fill="#081955" d="M 13.5,46.5 C 12.0998,47.1001 11.0998,48.1001 10.5,49.5C 8.16667,49.5 5.83333,49.5 3.5,49.5C 3.5,48.1667 3.5,46.8333 3.5,45.5C 6.83333,45.8333 10.1667,46.1667 13.5,46.5 Z"/></g>
</svg>
