<?xml version="1.0" encoding="UTF-8"?>
<!DOCTYPE svg PUBLIC "-//W3C//DTD SVG 1.1//EN" "http://www.w3.org/Graphics/SVG/1.1/DTD/svg11.dtd">
<svg xmlns="http://www.w3.org/2000/svg" version="1.1" width="50px" height="50px" style="shape-rendering:geometricPrecision; text-rendering:geometricPrecision; image-rendering:optimizeQuality; fill-rule:evenodd; clip-rule:evenodd" xmlns:xlink="http://www.w3.org/1999/xlink">
<g><path style="opacity:1" fill="#0c2041" d="M -0.5,-0.5 C 16.1667,-0.5 32.8333,-0.5 49.5,-0.5C 49.5,16.1667 49.5,32.8333 49.5,49.5C 32.8333,49.5 16.1667,49.5 -0.5,49.5C -0.5,32.8333 -0.5,16.1667 -0.5,-0.5 Z"/></g>
<g><path style="opacity:1" fill="#616d81" d="M 4.5,3.5 C 18.1667,3.5 31.8333,3.5 45.5,3.5C 45.5,17.1667 45.5,30.8333 45.5,44.5C 31.8333,44.5 18.1667,44.5 4.5,44.5C 4.5,30.8333 4.5,17.1667 4.5,3.5 Z"/></g>
<g><path style="opacity:1" fill="#2a3b57" d="M 5.5,5.5 C 18.3226,4.50452 31.3226,4.17119 44.5,4.5C 44.8288,17.6774 44.4955,30.6774 43.5,43.5C 43.5,30.8333 43.5,18.1667 43.5,5.5C 30.8333,5.5 18.1667,5.5 5.5,5.5 Z"/></g>
<g><path style="opacity:1" fill="#0b1f40" d="M 5.5,5.5 C 18.1667,5.5 30.8333,5.5 43.5,5.5C 43.5,18.1667 43.5,30.8333 43.5,43.5C 30.8333,43.5 18.1667,43.5 5.5,43.5C 5.5,30.8333 5.5,18.1667 5.5,5.5 Z"/></g>
<g><path style="opacity:1" fill="#c8ccd3" d="M 36.5,15.5 C 35.1667,21.5 35.1667,27.5 36.5,33.5C 33.4816,33.6646 30.4816,33.498 27.5,33C 26.0229,30.5551 24.1896,28.3884 22,26.5C 22.4387,28.7587 22.9387,31.092 23.5,33.5C 19.8333,33.5 16.1667,33.5 12.5,33.5C 13.9372,28.9725 14.6039,24.3058 14.5,19.5C 14.5,19.1667 14.5,18.8333 14.5,18.5C 15.7994,22.7025 15.7994,27.0358 14.5,31.5C 16.8333,32.8333 19.1667,32.8333 21.5,31.5C 19.5434,28.432 19.0434,25.0987 20,21.5C 23.0706,24.6475 25.9039,27.9809 28.5,31.5C 30.8333,32.8333 33.1667,32.8333 35.5,31.5C 33.6538,27.4183 32.9872,23.085 33.5,18.5C 34.8999,17.9002 35.8999,16.9002 36.5,15.5 Z"/></g>
<g><path style="opacity:1" fill="#122344" d="M 21.5,17.5 C 23.5153,20.8384 26.0153,23.8384 29,26.5C 29.8007,23.633 29.6341,20.9664 28.5,18.5C 28.9704,17.3065 29.9704,16.6399 31.5,16.5C 33.9761,16.2326 34.6428,16.8993 33.5,18.5C 32.9872,23.085 33.6538,27.4183 35.5,31.5C 33.1667,32.8333 30.8333,32.8333 28.5,31.5C 25.9039,27.9809 23.0706,24.6475 20,21.5C 19.0434,25.0987 19.5434,28.432 21.5,31.5C 19.1667,32.8333 16.8333,32.8333 14.5,31.5C 15.7994,27.0358 15.7994,22.7025 14.5,18.5C 16.357,16.1553 18.6904,15.822 21.5,17.5 Z"/></g>
<g><path style="opacity:1" fill="#dcdee2" d="M 22.5,16.5 C 23.8333,18.1667 25.1667,19.8333 26.5,21.5C 26.56,22.0431 26.8933,22.3764 27.5,22.5C 28.4287,21.3112 28.762,19.9778 28.5,18.5C 29.6341,20.9664 29.8007,23.633 29,26.5C 26.0153,23.8384 23.5153,20.8384 21.5,17.5C 21.5,16.8333 21.8333,16.5 22.5,16.5 Z"/></g>
<g><path style="opacity:1" fill="#989fac" d="M 36.5,15.5 C 35.8999,16.9002 34.8999,17.9002 33.5,18.5C 34.6428,16.8993 33.9761,16.2326 31.5,16.5C 29.9704,16.6399 28.9704,17.3065 28.5,18.5C 28.762,19.9778 28.4287,21.3112 27.5,22.5C 26.8933,22.3764 26.56,22.0431 26.5,21.5C 26.8652,19.412 26.8652,17.0787 26.5,14.5C 30.0419,14.1872 33.3752,14.5206 36.5,15.5 Z"/></g>
<g><path style="opacity:1" fill="#9fa5b1" d="M 22.5,16.5 C 21.8333,16.5 21.5,16.8333 21.5,17.5C 18.6904,15.822 16.357,16.1553 14.5,18.5C 14.5,18.8333 14.5,19.1667 14.5,19.5C 12.744,18.4479 12.0773,16.7812 12.5,14.5C 15.5184,14.3354 18.5184,14.502 21.5,15C 22.056,15.3826 22.3893,15.8826 22.5,16.5 Z"/></g>
</svg>
