<?xml version="1.0" encoding="UTF-8"?>
<!DOCTYPE svg PUBLIC "-//W3C//DTD SVG 1.1//EN" "http://www.w3.org/Graphics/SVG/1.1/DTD/svg11.dtd">
<svg xmlns="http://www.w3.org/2000/svg" version="1.1" width="50px" height="50px" style="shape-rendering:geometricPrecision; text-rendering:geometricPrecision; image-rendering:optimizeQuality; fill-rule:evenodd; clip-rule:evenodd" xmlns:xlink="http://www.w3.org/1999/xlink">
<g><path style="opacity:1" fill="#fbfbfb" d="M -0.5,-0.5 C 16.1667,-0.5 32.8333,-0.5 49.5,-0.5C 49.5,12.5 49.5,25.5 49.5,38.5C 44.5,38.5 39.5,38.5 34.5,38.5C 34.5,39.5 34.5,40.5 34.5,41.5C 39.3565,40.8808 44.3565,40.8808 49.5,41.5C 49.5,44.1667 49.5,46.8333 49.5,49.5C 32.8333,49.5 16.1667,49.5 -0.5,49.5C -0.5,46.5 -0.5,43.5 -0.5,40.5C 4.74012,41.4491 10.0735,41.7825 15.5,41.5C 15.5,40.5 15.5,39.5 15.5,38.5C 10.3191,38.9305 4.98573,38.9305 -0.5,38.5C -0.5,25.5 -0.5,12.5 -0.5,-0.5 Z"/></g>
<g><path style="opacity:1" fill="#b92628" d="M 28.5,9.5 C 28.6641,12.1873 28.4974,14.854 28,17.5C 27.8138,14.9644 27.3138,12.631 26.5,10.5C 25.1667,10.5 23.8333,10.5 22.5,10.5C 22.1984,13.0593 22.5318,15.3926 23.5,17.5C 24.2625,18.2679 25.2625,18.7679 26.5,19C 25.2068,19.49 23.8734,19.6567 22.5,19.5C 21.8826,19.3893 21.3826,19.056 21,18.5C 20.3333,15.5 20.3333,12.5 21,9.5C 23.6047,8.18575 26.1047,8.18575 28.5,9.5 Z"/></g>
<g><path style="opacity:1" fill="#dcdcdb" d="M 26.5,10.5 C 26.5,12.8333 26.5,15.1667 26.5,17.5C 25.5,17.5 24.5,17.5 23.5,17.5C 22.5318,15.3926 22.1984,13.0593 22.5,10.5C 23.8333,10.5 25.1667,10.5 26.5,10.5 Z"/></g>
<g><path style="opacity:1" fill="#b65555" d="M 28.5,9.5 C 29.6378,12.3035 29.8045,15.3035 29,18.5C 26.9836,20.6082 24.8169,20.9416 22.5,19.5C 23.8734,19.6567 25.2068,19.49 26.5,19C 25.2625,18.7679 24.2625,18.2679 23.5,17.5C 24.5,17.5 25.5,17.5 26.5,17.5C 26.5,15.1667 26.5,12.8333 26.5,10.5C 27.3138,12.631 27.8138,14.9644 28,17.5C 28.4974,14.854 28.6641,12.1873 28.5,9.5 Z"/></g>
<g><path style="opacity:1" fill="#969898" d="M 16.5,23.5 C 20.4517,24.1958 24.4517,24.6958 28.5,25C 29.8213,26.5445 29.4879,27.7112 27.5,28.5C 24.0027,28.4724 20.336,28.3057 16.5,28C 15.2721,26.5098 15.2721,25.0098 16.5,23.5 Z"/></g>
<g><path style="opacity:1" fill="#848585" d="M 31.5,23.5 C 32.2389,23.369 32.9056,23.5357 33.5,24C 33.4057,25.4222 33.0724,26.9222 32.5,28.5C 32.8745,27.229 32.2078,26.0623 30.5,25C 31.056,24.6174 31.3893,24.1174 31.5,23.5 Z"/></g>
<g><path style="opacity:1" fill="#7f8180" d="M 3.5,24.5 C 5.62574,23.8968 7.95907,23.8968 10.5,24.5C 10.5,25.5 10.5,26.5 10.5,27.5C 8.85703,27.5198 7.5237,26.8532 6.5,25.5C 5.74917,26.376 5.24917,27.376 5,28.5C 4.78997,26.9419 4.28997,25.6085 3.5,24.5 Z"/></g>
<g><path style="opacity:1" fill="#8e908f" d="M 11.5,24.5 C 12.5862,24.62 13.2528,25.2867 13.5,26.5C 13.1667,27.1667 12.8333,27.8333 12.5,28.5C 11.5713,27.3112 11.238,25.9778 11.5,24.5 Z"/></g>
<g><path style="opacity:1" fill="#979998" d="M 34.5,24.5 C 36.7659,24.1412 38.5993,24.8078 40,26.5C 41.7542,24.75 43.9208,24.0833 46.5,24.5C 46.5,25.8333 46.5,27.1667 46.5,28.5C 45.5,28.5 44.5,28.5 43.5,28.5C 43.1667,24.5 42.8333,24.5 42.5,28.5C 39.8333,28.5 37.1667,28.5 34.5,28.5C 34.5,27.1667 34.5,25.8333 34.5,24.5 Z"/></g>
<g><path style="opacity:1" fill="#979898" d="M 11.5,29.5 C 17.0748,30.4524 22.7414,30.7857 28.5,30.5C 28.281,31.675 28.6143,32.675 29.5,33.5C 29.6691,32.6034 30.0024,31.6034 30.5,30.5C 31.1924,31.0253 31.6924,31.6919 32,32.5C 33.3528,31.2958 35.0194,30.6292 37,30.5C 41.8429,29.7421 42.6762,31.0754 39.5,34.5C 38.1153,30.6221 36.9486,30.6221 36,34.5C 35,30.5 34,30.5 33,34.5C 31.2058,34.0093 29.2058,34.0093 27,34.5C 25.0194,34.3708 23.3528,33.7042 22,32.5C 21,35.1667 20,35.1667 19,32.5C 16.975,34.7253 14.6417,35.0586 12,33.5C 11.51,32.2068 11.3433,30.8734 11.5,29.5 Z"/></g>
<g><path style="opacity:1" fill="#d4d4d4" d="M 8.5,35.5 C 19.5202,35.1679 30.5202,35.5012 41.5,36.5C 36,36.8333 30.5,37.1667 25,37.5C 19.1238,37.4952 13.6238,36.8286 8.5,35.5 Z"/></g>
<g><path style="opacity:1" fill="#aaacab" d="M -0.5,38.5 C 4.98573,38.9305 10.3191,38.9305 15.5,38.5C 15.5,39.5 15.5,40.5 15.5,41.5C 10.0735,41.7825 4.74012,41.4491 -0.5,40.5C -0.5,39.8333 -0.5,39.1667 -0.5,38.5 Z"/></g>
<g><path style="opacity:1" fill="#b1b2b1" d="M 16.5,38.5 C 20.5138,38.3345 24.5138,38.5012 28.5,39C 27.3044,39.6543 27.3044,40.1543 28.5,40.5C 30.4109,37.8202 32.0776,37.9869 33.5,41C 27.8431,41.4994 22.1764,41.6661 16.5,41.5C 16.5,40.5 16.5,39.5 16.5,38.5 Z"/></g>
<g><path style="opacity:1" fill="#b1b1b1" d="M 49.5,38.5 C 49.5,39.5 49.5,40.5 49.5,41.5C 44.3565,40.8808 39.3565,40.8808 34.5,41.5C 34.5,40.5 34.5,39.5 34.5,38.5C 39.5,38.5 44.5,38.5 49.5,38.5 Z"/></g>
</svg>
