<?xml version="1.0" encoding="UTF-8"?>
<!DOCTYPE svg PUBLIC "-//W3C//DTD SVG 1.1//EN" "http://www.w3.org/Graphics/SVG/1.1/DTD/svg11.dtd">
<svg xmlns="http://www.w3.org/2000/svg" version="1.1" width="50px" height="50px" style="shape-rendering:geometricPrecision; text-rendering:geometricPrecision; image-rendering:optimizeQuality; fill-rule:evenodd; clip-rule:evenodd" xmlns:xlink="http://www.w3.org/1999/xlink">
<g><path style="opacity:1" fill="#fcfafa" d="M -0.5,-0.5 C 16.1667,-0.5 32.8333,-0.5 49.5,-0.5C 49.5,16.1667 49.5,32.8333 49.5,49.5C 32.8333,49.5 16.1667,49.5 -0.5,49.5C -0.5,32.8333 -0.5,16.1667 -0.5,-0.5 Z"/></g>
<g><path style="opacity:1" fill="#87201e" d="M 14.5,4.5 C 18.5138,4.33449 22.5138,4.50115 26.5,5C 28,6.5 29.5,8 31,9.5C 31.6667,15.8333 31.6667,22.1667 31,28.5C 28.8583,30.8267 26.3583,32.4934 23.5,33.5C 23.2865,35.1439 23.6198,36.6439 24.5,38C 27.562,38.7415 30.562,38.5748 33.5,37.5C 34.4967,30.8665 34.83,24.1998 34.5,17.5C 36.1667,17.5 37.8333,17.5 39.5,17.5C 39.6663,24.8409 39.4997,32.1742 39,39.5C 34.5905,44.3524 29.0905,45.8524 22.5,44C 21,42.5 19.5,41 18,39.5C 17.5045,37.5273 17.3379,35.5273 17.5,33.5C 14.3864,32.9087 11.8864,31.242 10,28.5C 9.33333,22.1667 9.33333,15.8333 10,9.5C 11.7073,7.96252 13.2073,6.29585 14.5,4.5 Z"/></g>
<g><path style="opacity:1" fill="#faf7f7" d="M 16.5,10.5 C 19.4475,10.2229 22.2809,10.5562 25,11.5C 25.9434,17.0118 25.61,22.3452 24,27.5C 23.5017,24.1832 23.335,20.8499 23.5,17.5C 21.5,17.5 19.5,17.5 17.5,17.5C 17.665,20.8499 17.4983,24.1832 17,27.5C 15.1745,21.9276 15.0079,16.2609 16.5,10.5 Z"/></g>
</svg>
