<?xml version="1.0" encoding="UTF-8"?>
<!DOCTYPE svg PUBLIC "-//W3C//DTD SVG 1.1//EN" "http://www.w3.org/Graphics/SVG/1.1/DTD/svg11.dtd">
<svg xmlns="http://www.w3.org/2000/svg" version="1.1" width="50px" height="50px" style="shape-rendering:geometricPrecision; text-rendering:geometricPrecision; image-rendering:optimizeQuality; fill-rule:evenodd; clip-rule:evenodd" xmlns:xlink="http://www.w3.org/1999/xlink">
<g><path style="opacity:1" fill="#ab0000" d="M -0.5,-0.5 C 16.1667,-0.5 32.8333,-0.5 49.5,-0.5C 49.5,16.1667 49.5,32.8333 49.5,49.5C 32.8333,49.5 16.1667,49.5 -0.5,49.5C -0.5,32.8333 -0.5,16.1667 -0.5,-0.5 Z"/></g>
<g><path style="opacity:1" fill="#533e3f" d="M 27.5,6.5 C 18.0128,3.72342 13.0128,7.05675 12.5,16.5C 11.5489,15.0813 11.2155,13.4147 11.5,11.5C 12.2026,9.28428 13.5359,7.45095 15.5,6C 19.6888,5.18806 23.6888,5.35472 27.5,6.5 Z"/></g>
<g><path style="opacity:1" fill="#f3f3f3" d="M 27.5,6.5 C 28.5,7.83333 29.5,9.16667 30.5,10.5C 30.38,11.5862 29.7133,12.2528 28.5,12.5C 24.5474,11.6381 20.5474,11.3048 16.5,11.5C 16.281,12.675 16.6143,13.675 17.5,14.5C 23.1045,13.5456 28.7711,13.2123 34.5,13.5C 34.8333,14.5 35.5,15.1667 36.5,15.5C 37.4657,23.0804 37.799,30.747 37.5,38.5C 36.1667,39.1667 35.1667,40.1667 34.5,41.5C 29.1667,41.5 23.8333,41.5 18.5,41.5C 18.5,39.5 18.5,37.5 18.5,35.5C 15.7079,35.3775 13.7079,34.0442 12.5,31.5C 12.5,30.5 12.5,29.5 12.5,28.5C 13.8333,28.5 15.1667,28.5 16.5,28.5C 16.5,29.1667 16.5,29.8333 16.5,30.5C 19.8333,31.8333 23.1667,31.8333 26.5,30.5C 26.7778,28.6536 26.1112,27.3202 24.5,26.5C 23.6143,27.325 23.281,28.325 23.5,29.5C 22.1667,29.5 20.8333,29.5 19.5,29.5C 19.8064,26.6146 19.4731,23.9479 18.5,21.5C 16.4602,19.823 14.4602,18.1563 12.5,16.5C 13.0128,7.05675 18.0128,3.72342 27.5,6.5 Z"/></g>
<g><path style="opacity:1" fill="#171515" d="M 30.5,10.5 C 32.1216,11.1224 33.4549,12.1224 34.5,13.5C 28.7711,13.2123 23.1045,13.5456 17.5,14.5C 16.6143,13.675 16.281,12.675 16.5,11.5C 20.5474,11.3048 24.5474,11.6381 28.5,12.5C 29.7133,12.2528 30.38,11.5862 30.5,10.5 Z"/></g>
<g><path style="opacity:1" fill="#19100f" d="M 11.5,11.5 C 11.2155,13.4147 11.5489,15.0813 12.5,16.5C 14.4602,18.1563 16.4602,19.823 18.5,21.5C 19.0545,25.0122 18.3878,28.0122 16.5,30.5C 16.5,29.8333 16.5,29.1667 16.5,28.5C 16.5,28.1667 16.5,27.8333 16.5,27.5C 16.2033,23.6743 14.3699,20.6743 11,18.5C 10.2042,15.9615 10.3709,13.6282 11.5,11.5 Z"/></g>
<g><path style="opacity:1" fill="#170e0e" d="M 32.5,18.5 C 33.12,24.9262 32.4533,30.9262 30.5,36.5C 32.129,34.8041 31.7957,33.8041 29.5,33.5C 31.3907,31.1643 31.8907,28.4976 31,25.5C 29.0077,24.6719 27.5077,23.3386 26.5,21.5C 25.3569,21.0919 24.3569,20.4252 23.5,19.5C 26.4281,18.5159 29.4281,18.1826 32.5,18.5 Z"/></g>
<g><path style="opacity:1" fill="#555656" d="M 32.5,18.5 C 33.4902,24.6446 33.8235,30.9779 33.5,37.5C 29.9581,37.8128 26.6248,37.4794 23.5,36.5C 25.8333,36.5 28.1667,36.5 30.5,36.5C 32.4533,30.9262 33.12,24.9262 32.5,18.5 Z"/></g>
<g><path style="opacity:1" fill="#5a5d5c" d="M 36.5,15.5 C 38.4651,22.7605 39.1318,30.4271 38.5,38.5C 38.1667,38.5 37.8333,38.5 37.5,38.5C 37.799,30.747 37.4657,23.0804 36.5,15.5 Z"/></g>
<g><path style="opacity:1" fill="#730205" d="M 26.5,21.5 C 27.5521,19.744 29.2188,19.0773 31.5,19.5C 31.762,20.9778 31.4287,22.3112 30.5,23.5C 29.3777,22.3698 28.0443,21.7031 26.5,21.5 Z"/></g>
<g><path style="opacity:1" fill="#5d5f5f" d="M 16.5,27.5 C 16.5,27.8333 16.5,28.1667 16.5,28.5C 15.1667,28.5 13.8333,28.5 12.5,28.5C 12.5,29.5 12.5,30.5 12.5,31.5C 11.6618,31.1583 11.3284,30.4916 11.5,29.5C 12.5521,27.744 14.2188,27.0773 16.5,27.5 Z"/></g>
<g><path style="opacity:1" fill="#1d1d1d" d="M 26.5,30.5 C 25.209,30.7373 24.209,30.404 23.5,29.5C 23.281,28.325 23.6143,27.325 24.5,26.5C 26.1112,27.3202 26.7778,28.6536 26.5,30.5 Z"/></g>
<g><path style="opacity:1" fill="#1f1211" d="M 11.5,29.5 C 11.3284,30.4916 11.6618,31.1583 12.5,31.5C 13.7079,34.0442 15.7079,35.3775 18.5,35.5C 18.5,37.5 18.5,39.5 18.5,41.5C 23.8333,41.5 29.1667,41.5 34.5,41.5C 34.5,41.8333 34.5,42.1667 34.5,42.5C 28.5451,43.3635 22.5451,43.6968 16.5,43.5C 16.5,41.5 16.5,39.5 16.5,37.5C 11.3743,36.7469 9.70759,34.0802 11.5,29.5 Z"/></g>
<g><path style="opacity:1" fill="#939394" d="M 18.5,21.5 C 19.4731,23.9479 19.8064,26.6146 19.5,29.5C 20.8333,29.5 22.1667,29.5 23.5,29.5C 24.209,30.404 25.209,30.7373 26.5,30.5C 23.1667,31.8333 19.8333,31.8333 16.5,30.5C 18.3878,28.0122 19.0545,25.0122 18.5,21.5 Z"/></g>
<g><path style="opacity:1" fill="#47120e" d="M 29.5,33.5 C 31.7957,33.8041 32.129,34.8041 30.5,36.5C 28.1667,36.5 25.8333,36.5 23.5,36.5C 25.5877,35.7992 27.5877,34.7992 29.5,33.5 Z"/></g>
<g><path style="opacity:1" fill="#5a0e0b" d="M 37.5,38.5 C 37.8333,38.5 38.1667,38.5 38.5,38.5C 37.2086,39.4728 37.2086,40.4728 38.5,41.5C 37.1395,41.7876 35.8062,42.121 34.5,42.5C 34.5,42.1667 34.5,41.8333 34.5,41.5C 35.1667,40.1667 36.1667,39.1667 37.5,38.5 Z"/></g>
</svg>
