<?xml version="1.0" encoding="UTF-8"?>
<!DOCTYPE svg PUBLIC "-//W3C//DTD SVG 1.1//EN" "http://www.w3.org/Graphics/SVG/1.1/DTD/svg11.dtd">
<svg xmlns="http://www.w3.org/2000/svg" version="1.1" width="50px" height="50px" style="shape-rendering:geometricPrecision; text-rendering:geometricPrecision; image-rendering:optimizeQuality; fill-rule:evenodd; clip-rule:evenodd" xmlns:xlink="http://www.w3.org/1999/xlink">
<g><path style="opacity:1" fill="#fa9831" d="M -0.5,-0.5 C 16.1667,-0.5 32.8333,-0.5 49.5,-0.5C 49.5,16.1667 49.5,32.8333 49.5,49.5C 32.8333,49.5 16.1667,49.5 -0.5,49.5C -0.5,32.8333 -0.5,16.1667 -0.5,-0.5 Z"/></g>
<g><path style="opacity:1" fill="#f3ede3" d="M 6.5,6.5 C 18.5,6.5 30.5,6.5 42.5,6.5C 42.5,10.5 42.5,14.5 42.5,18.5C 40.8333,18.5 39.1667,18.5 37.5,18.5C 37.5858,17.5041 37.2524,16.6708 36.5,16C 33.9009,15.231 31.4009,15.3977 29,16.5C 28.3333,22.8333 28.3333,29.1667 29,35.5C 30.129,37.1412 31.629,38.1412 33.5,38.5C 33.5,39.8333 33.5,41.1667 33.5,42.5C 27.5,42.5 21.5,42.5 15.5,42.5C 15.5,41.1667 15.5,39.8333 15.5,38.5C 17.371,38.1412 18.871,37.1412 20,35.5C 20.6667,29.1667 20.6667,22.8333 20,16.5C 16.1515,14.7309 12.9848,15.3976 10.5,18.5C 9.16667,18.5 7.83333,18.5 6.5,18.5C 6.5,14.5 6.5,10.5 6.5,6.5 Z"/></g>
<g><path style="opacity:1" fill="#f7b875" d="M 42.5,6.5 C 43.4849,10.6344 43.8182,14.9677 43.5,19.5C 41.2646,19.7947 39.2646,19.4614 37.5,18.5C 39.1667,18.5 40.8333,18.5 42.5,18.5C 42.5,14.5 42.5,10.5 42.5,6.5 Z"/></g>
<g><path style="opacity:1" fill="#f5bd7d" d="M 6.5,6.5 C 6.5,10.5 6.5,14.5 6.5,18.5C 7.83333,18.5 9.16667,18.5 10.5,18.5C 9.08134,19.4511 7.41467,19.7845 5.5,19.5C 5.18178,14.9677 5.51511,10.6344 6.5,6.5 Z"/></g>
<g><path style="opacity:1" fill="#f6dab8" d="M 15.5,38.5 C 15.5,39.8333 15.5,41.1667 15.5,42.5C 21.5,42.5 27.5,42.5 33.5,42.5C 33.5,41.1667 33.5,39.8333 33.5,38.5C 34.4511,39.9187 34.7845,41.5853 34.5,43.5C 27.8333,43.5 21.1667,43.5 14.5,43.5C 14.2155,41.5853 14.5489,39.9187 15.5,38.5 Z"/></g>
</svg>
