<?xml version="1.0" encoding="UTF-8"?>
<!DOCTYPE svg PUBLIC "-//W3C//DTD SVG 1.1//EN" "http://www.w3.org/Graphics/SVG/1.1/DTD/svg11.dtd">
<svg xmlns="http://www.w3.org/2000/svg" version="1.1" width="50px" height="50px" style="shape-rendering:geometricPrecision; text-rendering:geometricPrecision; image-rendering:optimizeQuality; fill-rule:evenodd; clip-rule:evenodd" xmlns:xlink="http://www.w3.org/1999/xlink">
<g><path style="opacity:1" fill="#e47100" d="M -0.5,-0.5 C 16.1667,-0.5 32.8333,-0.5 49.5,-0.5C 49.5,16.1667 49.5,32.8333 49.5,49.5C 32.8333,49.5 16.1667,49.5 -0.5,49.5C -0.5,32.8333 -0.5,16.1667 -0.5,-0.5 Z"/></g>
<g><path style="opacity:1" fill="#fcf3e9" d="M 32.5,18.5 C 27.1667,19.8333 21.8333,19.8333 16.5,18.5C 19.5994,14.7597 23.5994,13.593 28.5,15C 30.3237,15.66 31.657,16.8267 32.5,18.5 Z"/></g>
<g><path style="opacity:1" fill="#eead6d" d="M 16.5,18.5 C 21.8333,19.8333 27.1667,19.8333 32.5,18.5C 33.5,18.8333 34.1667,19.5 34.5,20.5C 27.7478,21.061 21.0811,21.061 14.5,20.5C 14.8333,19.5 15.5,18.8333 16.5,18.5 Z"/></g>
<g><path style="opacity:1" fill="#f9e6cf" d="M 14.5,20.5 C 21.0811,21.061 27.7478,21.061 34.5,20.5C 34.5,21.1667 34.5,21.8333 34.5,22.5C 32.4086,22.6816 30.4086,22.3482 28.5,21.5C 27.6764,24.7848 27.1764,28.1182 27,31.5C 26.4885,20.8941 25.6551,20.8941 24.5,31.5C 23.3449,20.8941 22.5115,20.8941 22,31.5C 21.502,28.5184 21.3354,25.5184 21.5,22.5C 19.1667,22.5 16.8333,22.5 14.5,22.5C 14.5,21.8333 14.5,21.1667 14.5,20.5 Z"/></g>
<g><path style="opacity:1" fill="#faf0e5" d="M 14.5,31.5 C 14.5,29.5 14.5,27.5 14.5,25.5C 15.7079,24.7659 17.0413,24.4326 18.5,24.5C 18.6621,26.5273 18.4955,28.5273 18,30.5C 16.9887,31.3366 15.8221,31.67 14.5,31.5 Z"/></g>
<g><path style="opacity:1" fill="#f9efe2" d="M 34.5,24.5 C 34.5,26.8333 34.5,29.1667 34.5,31.5C 33.1779,31.67 32.0113,31.3366 31,30.5C 30.5045,28.5273 30.3379,26.5273 30.5,24.5C 31.8333,24.5 33.1667,24.5 34.5,24.5 Z"/></g>
<g><path style="opacity:1" fill="#f2bf8b" d="M 34.5,22.5 C 34.5,23.1667 34.5,23.8333 34.5,24.5C 33.1667,24.5 31.8333,24.5 30.5,24.5C 30.3379,26.5273 30.5045,28.5273 31,30.5C 32.0113,31.3366 33.1779,31.67 34.5,31.5C 34.5,31.8333 34.5,32.1667 34.5,32.5C 32.5168,32.1568 31.1834,32.8235 30.5,34.5C 30.1667,34.5 29.8333,34.5 29.5,34.5C 28.4855,33.2353 26.9855,32.5687 25,32.5C 23.5,32.6667 22,32.8333 20.5,33C 19.944,33.3826 19.6107,33.8826 19.5,34.5C 19.1667,34.5 18.8333,34.5 18.5,34.5C 17.8166,32.8235 16.4832,32.1568 14.5,32.5C 14.5,32.1667 14.5,31.8333 14.5,31.5C 15.8221,31.67 16.9887,31.3366 18,30.5C 18.4955,28.5273 18.6621,26.5273 18.5,24.5C 17.0413,24.4326 15.7079,24.7659 14.5,25.5C 14.5,24.5 14.5,23.5 14.5,22.5C 16.8333,22.5 19.1667,22.5 21.5,22.5C 21.3354,25.5184 21.502,28.5184 22,31.5C 22.5115,20.8941 23.3449,20.8941 24.5,31.5C 25.6551,20.8941 26.4885,20.8941 27,31.5C 27.1764,28.1182 27.6764,24.7848 28.5,21.5C 30.4086,22.3482 32.4086,22.6816 34.5,22.5 Z"/></g>
<g><path style="opacity:1" fill="#f7e7d3" d="M 29.5,34.5 C 26.1667,34.5 22.8333,34.5 19.5,34.5C 19.6107,33.8826 19.944,33.3826 20.5,33C 22,32.8333 23.5,32.6667 25,32.5C 26.9855,32.5687 28.4855,33.2353 29.5,34.5 Z"/></g>
<g><path style="opacity:1" fill="#f8e6d1" d="M 14.5,32.5 C 16.4832,32.1568 17.8166,32.8235 18.5,34.5C 16.5168,34.8432 15.1834,34.1765 14.5,32.5 Z"/></g>
<g><path style="opacity:1" fill="#f9ebd9" d="M 34.5,32.5 C 33.8166,34.1765 32.4832,34.8432 30.5,34.5C 31.1834,32.8235 32.5168,32.1568 34.5,32.5 Z"/></g>
</svg>
