<?xml version="1.0" encoding="UTF-8"?>
<!DOCTYPE svg PUBLIC "-//W3C//DTD SVG 1.1//EN" "http://www.w3.org/Graphics/SVG/1.1/DTD/svg11.dtd">
<svg xmlns="http://www.w3.org/2000/svg" version="1.1" width="50px" height="50px" style="shape-rendering:geometricPrecision; text-rendering:geometricPrecision; image-rendering:optimizeQuality; fill-rule:evenodd; clip-rule:evenodd" xmlns:xlink="http://www.w3.org/1999/xlink">
<g><path style="opacity:1" fill="#4d3084" d="M -0.5,-0.5 C 16.1667,-0.5 32.8333,-0.5 49.5,-0.5C 49.5,10.5 49.5,21.5 49.5,32.5C 48.8333,32.5 48.5,32.8333 48.5,33.5C 47.1529,34.1712 45.9862,34.1712 45,33.5C 44.51,34.7932 44.3433,36.1266 44.5,37.5C 44.369,38.2389 44.5357,38.9056 45,39.5C 45.6543,38.3044 46.1543,38.3044 46.5,39.5C 38.1866,40.6651 29.8533,40.8317 21.5,40C 21.8333,39.6667 22.1667,39.3333 22.5,39C 21.5842,38.7216 20.9175,38.2216 20.5,37.5C 20.094,36.0855 20.7607,34.9188 22.5,34C 20.6874,34.0464 19.0207,33.8797 17.5,33.5C 16.2624,37.3107 15.5958,37.3107 15.5,33.5C 13.5,33.5 11.5,33.5 9.5,33.5C 9.5,34.5 9.5,35.5 9.5,36.5C 9.16667,36.5 8.83333,36.5 8.5,36.5C 8.30678,32.551 7.80678,32.551 7,36.5C 6.51722,35.552 6.35055,34.552 6.5,33.5C 4.5,33.5 2.5,33.5 0.5,33.5C 0.5,34.8333 0.5,36.1667 0.5,37.5C 0.5,38.1667 0.166667,38.5 -0.5,38.5C -0.5,28.5 -0.5,18.5 -0.5,8.5C 0.495904,8.41423 1.32924,8.74756 2,9.5C 3.05028,13.8034 3.88361,18.1368 4.5,22.5C 9.43704,22.3775 11.937,19.7108 12,14.5C 12.8215,17.1168 13.3215,19.7835 13.5,22.5C 15.5,22.5 17.5,22.5 19.5,22.5C 19.8019,16.265 21.4686,10.5983 24.5,5.5C 22.1667,5.5 19.8333,5.5 17.5,5.5C 17.7863,7.27692 18.4529,8.94359 19.5,10.5C 19.1012,12.1966 18.6012,13.8632 18,15.5C 16.2532,12.7896 15.2532,9.78962 15,6.5C 13.6667,5.16667 12.3333,5.16667 11,6.5C 10.4743,9.27158 9.64094,11.9382 8.5,14.5C 7.54437,13.1349 6.87771,11.6349 6.5,10C 7.70728,8.69981 8.37394,7.19981 8.5,5.5C 5.5,5.5 2.5,5.5 -0.5,5.5C -0.5,3.5 -0.5,1.5 -0.5,-0.5 Z"/></g>
<g><path style="opacity:1" fill="#efecf3" d="M -0.5,5.5 C 2.5,5.5 5.5,5.5 8.5,5.5C 8.37394,7.19981 7.70728,8.69981 6.5,10C 6.87771,11.6349 7.54437,13.1349 8.5,14.5C 9.64094,11.9382 10.4743,9.27158 11,6.5C 12.3333,5.16667 13.6667,5.16667 15,6.5C 15.2532,9.78962 16.2532,12.7896 18,15.5C 18.6012,13.8632 19.1012,12.1966 19.5,10.5C 18.4529,8.94359 17.7863,7.27692 17.5,5.5C 19.8333,5.5 22.1667,5.5 24.5,5.5C 21.4686,10.5983 19.8019,16.265 19.5,22.5C 17.5,22.5 15.5,22.5 13.5,22.5C 13.3215,19.7835 12.8215,17.1168 12,14.5C 11.937,19.7108 9.43704,22.3775 4.5,22.5C 3.88361,18.1368 3.05028,13.8034 2,9.5C 1.32924,8.74756 0.495904,8.41423 -0.5,8.5C -0.5,7.5 -0.5,6.5 -0.5,5.5 Z"/></g>
<g><path style="opacity:1" fill="#d5cee0" d="M 0.5,27.5 C 1.55198,27.3505 2.55198,27.5172 3.5,28C 3.55438,29.3509 3.05438,30.5176 2,31.5C 1.5,31.3333 1,31.1667 0.5,31C 1.17119,30.0138 1.17119,28.8471 0.5,27.5 Z"/></g>
<g><path style="opacity:1" fill="#baafcd" d="M 5.5,30.5 C 4.59603,29.791 4.26269,28.791 4.5,27.5C 10.8261,27.6087 17.1595,27.6087 23.5,27.5C 23.33,28.8221 23.6634,29.9887 24.5,31C 17.9612,31.5701 11.6278,31.4034 5.5,30.5 Z"/></g>
<g><path style="opacity:1" fill="#563b89" d="M 5.5,30.5 C 5.63945,28.663 6.30612,28.3296 7.5,29.5C 7.04311,30.2975 6.37644,30.6309 5.5,30.5 Z"/></g>
<g><path style="opacity:1" fill="#c6bcd7" d="M 26.5,27.5 C 29.1667,27.5 31.8333,27.5 34.5,27.5C 34.719,28.675 34.3857,29.675 33.5,30.5C 31.2534,31.3742 28.9201,31.7076 26.5,31.5C 26.5,30.1667 26.5,28.8333 26.5,27.5 Z"/></g>
<g><path style="opacity:1" fill="#e3dee9" d="M 40.5,34.5 C 41.2506,33.4265 42.2506,33.2599 43.5,34C 42.8095,35.0674 42.3095,36.2341 42,37.5C 41.7679,36.2625 41.2679,35.2625 40.5,34.5 Z"/></g>
<g><path style="opacity:1" fill="#bcb1ce" d="M 23.5,33.5 C 25.9946,33.9688 28.6613,33.9688 31.5,33.5C 31.5,34.8333 31.5,36.1667 31.5,37.5C 28.9885,37.162 26.6552,37.162 24.5,37.5C 23.5713,36.3112 23.238,34.9778 23.5,33.5 Z"/></g>
<g><path style="opacity:1" fill="#b8aecc" d="M 33.5,33.5 C 34.9403,34.3629 36.2736,34.3629 37.5,33.5C 38.2621,34.6283 38.9288,35.7949 39.5,37C 37.0982,37.8141 34.7649,37.6474 32.5,36.5C 33.1272,35.5832 33.4606,34.5832 33.5,33.5 Z"/></g>
<g><path style="opacity:1" fill="#c3b9d4" d="M 48.5,33.5 C 48.762,34.9778 48.4287,36.3112 47.5,37.5C 46.4728,36.2086 45.4728,36.2086 44.5,37.5C 44.3433,36.1266 44.51,34.7932 45,33.5C 45.9862,34.1712 47.1529,34.1712 48.5,33.5 Z"/></g>
<g><path style="opacity:1" fill="#c8bfd6" d="M 8.5,36.5 C 6.84656,37.7994 5.34656,37.4661 4,35.5C 3.18405,36.8228 2.01739,37.4894 0.5,37.5C 0.5,36.1667 0.5,34.8333 0.5,33.5C 2.5,33.5 4.5,33.5 6.5,33.5C 6.35055,34.552 6.51722,35.552 7,36.5C 7.80678,32.551 8.30678,32.551 8.5,36.5 Z"/></g>
<g><path style="opacity:1" fill="#b9aecc" d="M 20.5,37.5 C 16.847,37.6719 13.1803,37.3385 9.5,36.5C 9.5,35.5 9.5,34.5 9.5,33.5C 11.5,33.5 13.5,33.5 15.5,33.5C 15.5958,37.3107 16.2624,37.3107 17.5,33.5C 19.0207,33.8797 20.6874,34.0464 22.5,34C 20.7607,34.9188 20.094,36.0855 20.5,37.5 Z"/></g>
<g><path style="opacity:1" fill="#523482" d="M 49.5,32.5 C 49.5,38.1667 49.5,43.8333 49.5,49.5C 32.8333,49.5 16.1667,49.5 -0.5,49.5C -0.5,45.8333 -0.5,42.1667 -0.5,38.5C 0.166667,38.5 0.5,38.1667 0.5,37.5C 2.01739,37.4894 3.18405,36.8228 4,35.5C 5.34656,37.4661 6.84656,37.7994 8.5,36.5C 8.83333,36.5 9.16667,36.5 9.5,36.5C 13.1803,37.3385 16.847,37.6719 20.5,37.5C 20.9175,38.2216 21.5842,38.7216 22.5,39C 22.1667,39.3333 21.8333,39.6667 21.5,40C 29.8533,40.8317 38.1866,40.6651 46.5,39.5C 46.1543,38.3044 45.6543,38.3044 45,39.5C 44.5357,38.9056 44.369,38.2389 44.5,37.5C 45.4728,36.2086 46.4728,36.2086 47.5,37.5C 48.4287,36.3112 48.762,34.9778 48.5,33.5C 48.5,32.8333 48.8333,32.5 49.5,32.5 Z"/></g>
</svg>
