<?xml version="1.0" encoding="UTF-8"?>
<!DOCTYPE svg PUBLIC "-//W3C//DTD SVG 1.1//EN" "http://www.w3.org/Graphics/SVG/1.1/DTD/svg11.dtd">
<svg xmlns="http://www.w3.org/2000/svg" version="1.1" width="50px" height="50px" style="shape-rendering:geometricPrecision; text-rendering:geometricPrecision; image-rendering:optimizeQuality; fill-rule:evenodd; clip-rule:evenodd" xmlns:xlink="http://www.w3.org/1999/xlink">
<g><path style="opacity:1" fill="#fcf9f9" d="M -0.5,-0.5 C 5.83333,-0.5 12.1667,-0.5 18.5,-0.5C 9.16667,2.83333 2.83333,9.16667 -0.5,18.5C -0.5,12.1667 -0.5,5.83333 -0.5,-0.5 Z"/></g>
<g><path style="opacity:1" fill="#fcf8f8" d="M 29.5,-0.5 C 36.1667,-0.5 42.8333,-0.5 49.5,-0.5C 49.5,5.83333 49.5,12.1667 49.5,18.5C 46.0719,8.73818 39.4053,2.40485 29.5,-0.5 Z"/></g>
<g><path style="opacity:1" fill="#a5866a" d="M 22.5,-0.5 C 23.8333,-0.5 25.1667,-0.5 26.5,-0.5C 26.9371,1.07442 27.9371,2.24109 29.5,3C 35.353,4.50543 38.5197,8.33876 39,14.5C 39.6667,17.5 39.6667,20.5 39,23.5C 37.85,27.1117 37.0166,30.7783 36.5,34.5C 34.1432,34.6633 31.8098,34.4966 29.5,34C 30.0659,33.0053 30.7326,32.172 31.5,31.5C 31.3691,32.3764 31.7025,33.0431 32.5,33.5C 35.4608,29.161 36.7941,24.3277 36.5,19C 37.1518,14.3109 35.8185,10.3109 32.5,7C 31.0538,8.17219 29.3871,9.33886 27.5,10.5C 24.8978,9.94547 22.2311,9.77881 19.5,10C 18.9288,8.79492 18.2621,7.62826 17.5,6.5C 13.9481,9.27292 12.2814,12.9396 12.5,17.5C 13.5,17.5 14.5,17.5 15.5,17.5C 15.5,19.8333 15.5,22.1667 15.5,24.5C 14.8354,22.6309 14.1687,20.6309 13.5,18.5C 12.3204,22.5901 12.6537,26.5901 14.5,30.5C 15.0016,31.521 15.6683,31.6877 16.5,31C 15.6198,29.6439 15.2865,28.1439 15.5,26.5C 16.9142,28.8673 18.2475,31.3673 19.5,34C 17.1902,34.4966 14.8568,34.6633 12.5,34.5C 11.9836,31.1012 11.1503,27.7679 10,24.5C 8.05215,16.5834 9.88548,9.75003 15.5,4C 18.8127,3.82757 21.146,2.32757 22.5,-0.5 Z"/></g>
<g><path style="opacity:1" fill="#c21111" d="M 18.5,-0.5 C 19.8333,-0.5 21.1667,-0.5 22.5,-0.5C 21.146,2.32757 18.8127,3.82757 15.5,4C 9.88548,9.75003 8.05215,16.5834 10,24.5C 11.1503,27.7679 11.9836,31.1012 12.5,34.5C 12.5,34.8333 12.5,35.1667 12.5,35.5C 12.5,36.1667 12.1667,36.5 11.5,36.5C 9.83333,35.1667 8.16667,35.1667 6.5,36.5C 5.83333,37.5 5.16667,38.5 4.5,39.5C 3.01679,36.3688 1.35013,33.3688 -0.5,30.5C -0.5,26.5 -0.5,22.5 -0.5,18.5C 2.83333,9.16667 9.16667,2.83333 18.5,-0.5 Z"/></g>
<g><path style="opacity:1" fill="#c21312" d="M 26.5,-0.5 C 27.5,-0.5 28.5,-0.5 29.5,-0.5C 39.4053,2.40485 46.0719,8.73818 49.5,18.5C 49.5,22.1667 49.5,25.8333 49.5,29.5C 47.8504,32.7991 46.1838,36.1325 44.5,39.5C 43.8333,38.8333 43.1667,38.1667 42.5,37.5C 42.316,35.0752 41.6493,35.0752 40.5,37.5C 38.7859,36.3915 38.1192,37.0582 38.5,39.5C 38.1667,39.5 37.8333,39.5 37.5,39.5C 37.5674,38.0413 37.2341,36.7079 36.5,35.5C 36.5,35.1667 36.5,34.8333 36.5,34.5C 37.0166,30.7783 37.85,27.1117 39,23.5C 39.6667,20.5 39.6667,17.5 39,14.5C 38.5197,8.33876 35.353,4.50543 29.5,3C 27.9371,2.24109 26.9371,1.07442 26.5,-0.5 Z"/></g>
<g><path style="opacity:1" fill="#cfb293" d="M 31.5,31.5 C 34.065,25.4411 34.065,19.4411 31.5,13.5C 27.4317,11.4765 23.0984,10.9765 18.5,12C 16.84,13.4877 15.84,15.321 15.5,17.5C 14.5,17.5 13.5,17.5 12.5,17.5C 12.2814,12.9396 13.9481,9.27292 17.5,6.5C 18.2621,7.62826 18.9288,8.79492 19.5,10C 22.2311,9.77881 24.8978,9.94547 27.5,10.5C 29.3871,9.33886 31.0538,8.17219 32.5,7C 35.8185,10.3109 37.1518,14.3109 36.5,19C 36.7941,24.3277 35.4608,29.161 32.5,33.5C 31.7025,33.0431 31.3691,32.3764 31.5,31.5 Z"/></g>
<g><path style="opacity:1" fill="#e6ceb3" d="M 15.5,24.5 C 15.5,25.1667 15.5,25.8333 15.5,26.5C 15.2865,28.1439 15.6198,29.6439 16.5,31C 15.6683,31.6877 15.0016,31.521 14.5,30.5C 12.6537,26.5901 12.3204,22.5901 13.5,18.5C 14.1687,20.6309 14.8354,22.6309 15.5,24.5 Z"/></g>
<g><path style="opacity:1" fill="#fcf8f8" d="M -0.5,30.5 C 1.35013,33.3688 3.01679,36.3688 4.5,39.5C 8.3531,44.0269 13.0198,47.3603 18.5,49.5C 12.1667,49.5 5.83333,49.5 -0.5,49.5C -0.5,43.1667 -0.5,36.8333 -0.5,30.5 Z"/></g>
<g><path style="opacity:1" fill="#fcf5f5" d="M 49.5,29.5 C 49.5,36.1667 49.5,42.8333 49.5,49.5C 42.8333,49.5 36.1667,49.5 29.5,49.5C 35.5456,47.7967 40.5456,44.4634 44.5,39.5C 46.1838,36.1325 47.8504,32.7991 49.5,29.5 Z"/></g>
<g><path style="opacity:1" fill="#bf1c1a" d="M 31.5,31.5 C 30.7326,32.172 30.0659,33.0053 29.5,34C 31.8098,34.4966 34.1432,34.6633 36.5,34.5C 36.5,34.8333 36.5,35.1667 36.5,35.5C 34.0882,35.6941 33.0882,37.0274 33.5,39.5C 33.1667,39.5 32.8333,39.5 32.5,39.5C 32.3491,36.2819 31.5158,35.9485 30,38.5C 29.7508,37.376 29.2508,36.376 28.5,35.5C 27.9276,37.0778 27.5943,38.5778 27.5,40C 28.0944,40.4643 28.7611,40.631 29.5,40.5C 28.1225,41.2344 26.6225,41.9011 25,42.5C 24.7216,41.5842 24.2216,40.9175 23.5,40.5C 23.3894,38.3523 24.056,38.019 25.5,39.5C 26.6139,38.277 26.7805,36.9437 26,35.5C 25.6758,37.5689 24.8425,37.9023 23.5,36.5C 22.5713,37.6888 22.238,39.0222 22.5,40.5C 22.1667,40.5 21.8333,40.5 21.5,40.5C 20.9285,39.0267 20.9285,37.36 21.5,35.5C 18.5,35.5 15.5,35.5 12.5,35.5C 12.5,35.1667 12.5,34.8333 12.5,34.5C 14.8568,34.6633 17.1902,34.4966 19.5,34C 18.2475,31.3673 16.9142,28.8673 15.5,26.5C 15.5,25.8333 15.5,25.1667 15.5,24.5C 15.5,22.1667 15.5,19.8333 15.5,17.5C 15.84,15.321 16.84,13.4877 18.5,12C 23.0984,10.9765 27.4317,11.4765 31.5,13.5C 34.065,19.4411 34.065,25.4411 31.5,31.5 Z"/></g>
<g><path style="opacity:1" fill="#f5dbdb" d="M 17.5,16.5 C 18.5,16.5 19.5,16.5 20.5,16.5C 21.3203,29.7968 22.487,29.7968 24,16.5C 25.4515,19.0138 26.6182,21.6805 27.5,24.5C 28.5,21.8333 29.5,19.1667 30.5,16.5C 30.8333,16.8333 31.1667,17.1667 31.5,17.5C 30.2086,23.2812 28.7086,28.9478 27,34.5C 24.9013,24.0467 23.2346,24.0467 22,34.5C 20.4967,28.4866 18.9967,22.4866 17.5,16.5 Z"/></g>
<g><path style="opacity:1" fill="#e6a2a2" d="M 12.5,35.5 C 15.5,35.5 18.5,35.5 21.5,35.5C 20.9285,37.36 20.9285,39.0267 21.5,40.5C 20.5,40.5 19.5,40.5 18.5,40.5C 17.9473,36.5443 17.1139,36.5443 16,40.5C 14.161,35.3924 13.161,35.3924 13,40.5C 11.0438,40.2155 8.87713,40.2155 6.5,40.5C 6.5,39.1667 6.5,37.8333 6.5,36.5C 8.23267,37.0076 8.566,37.841 7.5,39C 8.44802,39.4828 9.44802,39.6495 10.5,39.5C 10.2627,38.209 10.596,37.209 11.5,36.5C 12.1667,36.5 12.5,36.1667 12.5,35.5 Z"/></g>
<g><path style="opacity:1" fill="#d46665" d="M 6.5,36.5 C 8.16667,35.1667 9.83333,35.1667 11.5,36.5C 10.596,37.209 10.2627,38.209 10.5,39.5C 9.44802,39.6495 8.44802,39.4828 7.5,39C 8.566,37.841 8.23267,37.0076 6.5,36.5 Z"/></g>
<g><path style="opacity:1" fill="#eab5b4" d="M 36.5,35.5 C 37.2341,36.7079 37.5674,38.0413 37.5,39.5C 36.1667,40.8333 34.8333,40.8333 33.5,39.5C 33.0882,37.0274 34.0882,35.6941 36.5,35.5 Z"/></g>
<g><path style="opacity:1" fill="#efcaca" d="M 23.5,40.5 C 23.1667,40.5 22.8333,40.5 22.5,40.5C 22.238,39.0222 22.5713,37.6888 23.5,36.5C 24.8425,37.9023 25.6758,37.5689 26,35.5C 26.7805,36.9437 26.6139,38.277 25.5,39.5C 24.056,38.019 23.3894,38.3523 23.5,40.5 Z"/></g>
<g><path style="opacity:1" fill="#e49899" d="M 32.5,39.5 C 31.791,40.404 30.791,40.7373 29.5,40.5C 28.7611,40.631 28.0944,40.4643 27.5,40C 27.5943,38.5778 27.9276,37.0778 28.5,35.5C 29.2508,36.376 29.7508,37.376 30,38.5C 31.5158,35.9485 32.3491,36.2819 32.5,39.5 Z"/></g>
<g><path style="opacity:1" fill="#f1cdcc" d="M 42.5,37.5 C 42.741,40.999 41.9076,41.3323 40,38.5C 39.6667,39.1667 39.3333,39.8333 39,40.5C 38.6012,40.2716 38.4346,39.9382 38.5,39.5C 38.1192,37.0582 38.7859,36.3915 40.5,37.5C 41.6493,35.0752 42.316,35.0752 42.5,37.5 Z"/></g>
<g><path style="opacity:1" fill="#c51615" d="M 6.5,36.5 C 6.5,37.8333 6.5,39.1667 6.5,40.5C 8.87713,40.2155 11.0438,40.2155 13,40.5C 13.161,35.3924 14.161,35.3924 16,40.5C 17.1139,36.5443 17.9473,36.5443 18.5,40.5C 19.5,40.5 20.5,40.5 21.5,40.5C 21.8333,40.5 22.1667,40.5 22.5,40.5C 22.8333,40.5 23.1667,40.5 23.5,40.5C 24.2216,40.9175 24.7216,41.5842 25,42.5C 26.6225,41.9011 28.1225,41.2344 29.5,40.5C 30.791,40.7373 31.791,40.404 32.5,39.5C 32.8333,39.5 33.1667,39.5 33.5,39.5C 34.8333,40.8333 36.1667,40.8333 37.5,39.5C 37.8333,39.5 38.1667,39.5 38.5,39.5C 38.4346,39.9382 38.6012,40.2716 39,40.5C 39.3333,39.8333 39.6667,39.1667 40,38.5C 41.9076,41.3323 42.741,40.999 42.5,37.5C 43.1667,38.1667 43.8333,38.8333 44.5,39.5C 40.5456,44.4634 35.5456,47.7967 29.5,49.5C 25.8333,49.5 22.1667,49.5 18.5,49.5C 13.0198,47.3603 8.3531,44.0269 4.5,39.5C 5.16667,38.5 5.83333,37.5 6.5,36.5 Z"/></g>
<g><path style="opacity:1" fill="#c42326" d="M 34.5,37.5 C 36.337,37.6395 36.6704,38.3061 35.5,39.5C 34.7025,39.0431 34.3691,38.3764 34.5,37.5 Z"/></g>
</svg>
