<?xml version="1.0" encoding="UTF-8"?>
<!DOCTYPE svg PUBLIC "-//W3C//DTD SVG 1.1//EN" "http://www.w3.org/Graphics/SVG/1.1/DTD/svg11.dtd">
<svg xmlns="http://www.w3.org/2000/svg" version="1.1" width="50px" height="50px" style="shape-rendering:geometricPrecision; text-rendering:geometricPrecision; image-rendering:optimizeQuality; fill-rule:evenodd; clip-rule:evenodd" xmlns:xlink="http://www.w3.org/1999/xlink">
<g><path style="opacity:1" fill="#0681c5" d="M -0.5,-0.5 C 16.1667,-0.5 32.8333,-0.5 49.5,-0.5C 49.5,1.16667 49.5,2.83333 49.5,4.5C 32.8333,4.5 16.1667,4.5 -0.5,4.5C -0.5,2.83333 -0.5,1.16667 -0.5,-0.5 Z"/></g>
<g><path style="opacity:1" fill="#1d80c0" d="M -0.5,4.5 C 16.1667,4.5 32.8333,4.5 49.5,4.5C 49.5,7.83333 49.5,11.1667 49.5,14.5C 44.2166,15.0433 39.2166,16.3767 34.5,18.5C 35.1216,15.2244 37.1216,13.8911 40.5,14.5C 40.5,12.8333 40.5,11.1667 40.5,9.5C 38.1432,9.33669 35.8098,9.50335 33.5,10C 32.1196,11.9252 30.6196,13.7585 29,15.5C 27.4905,13.7923 25.9905,12.1256 24.5,10.5C 22.5414,11.7481 21.0414,13.4148 20,15.5C 18.3804,13.7585 16.8804,11.9252 15.5,10C 13.1902,9.50335 10.8568,9.33669 8.5,9.5C 7.16667,11.1667 7.16667,12.8333 8.5,14.5C 5.7131,15.4767 2.7131,15.81 -0.5,15.5C -0.5,11.8333 -0.5,8.16667 -0.5,4.5 Z"/></g>
<g><path style="opacity:1" fill="#a1a75c" d="M 8.5,9.5 C 8.5,10.8333 8.5,12.1667 8.5,13.5C 10.099,13.2322 11.4324,13.5655 12.5,14.5C 11.1667,14.5 9.83333,14.5 8.5,14.5C 7.16667,12.8333 7.16667,11.1667 8.5,9.5 Z"/></g>
<g><path style="opacity:1" fill="#e8b21a" d="M 8.5,9.5 C 10.8568,9.33669 13.1902,9.50335 15.5,10C 16.8804,11.9252 18.3804,13.7585 20,15.5C 21.0414,13.4148 22.5414,11.7481 24.5,10.5C 25.9905,12.1256 27.4905,13.7923 29,15.5C 30.6196,13.7585 32.1196,11.9252 33.5,10C 35.8098,9.50335 38.1432,9.33669 40.5,9.5C 40.5,11.1667 40.5,12.8333 40.5,14.5C 37.1216,13.8911 35.1216,15.2244 34.5,18.5C 33.8333,18.5 33.5,18.8333 33.5,19.5C 31.8634,21.3162 30.3634,23.3162 29,25.5C 27.4905,23.7923 25.9905,22.1256 24.5,20.5C 23.0095,22.1256 21.5095,23.7923 20,25.5C 19.6174,24.944 19.1174,24.6107 18.5,24.5C 18.5,23.8333 18.1667,23.5 17.5,23.5C 16.0991,20.3661 14.4325,17.3661 12.5,14.5C 11.4324,13.5655 10.099,13.2322 8.5,13.5C 8.5,12.1667 8.5,10.8333 8.5,9.5 Z"/></g>
<g><path style="opacity:1" fill="#0368a4" d="M 49.5,14.5 C 49.5,17.1667 49.5,19.8333 49.5,22.5C 47.0722,24.0435 44.4056,25.0435 41.5,25.5C 41.7373,24.209 41.404,23.209 40.5,22.5C 38.1667,22.5 35.8333,22.5 33.5,22.5C 33.5,21.5 33.5,20.5 33.5,19.5C 33.5,18.8333 33.8333,18.5 34.5,18.5C 39.2166,16.3767 44.2166,15.0433 49.5,14.5 Z"/></g>
<g><path style="opacity:1" fill="#045d93" d="M 8.5,14.5 C 9.83333,14.5 11.1667,14.5 12.5,14.5C 14.4325,17.3661 16.0991,20.3661 17.5,23.5C 17.189,24.4778 16.5223,25.1445 15.5,25.5C 14.1767,23.3176 12.5101,22.6509 10.5,23.5C 6.80186,22.1682 3.13519,20.8349 -0.5,19.5C -0.5,18.1667 -0.5,16.8333 -0.5,15.5C 2.7131,15.81 5.7131,15.4767 8.5,14.5 Z"/></g>
<g><path style="opacity:1" fill="#074d7c" d="M -0.5,19.5 C 3.13519,20.8349 6.80186,22.1682 10.5,23.5C 12.5101,22.6509 14.1767,23.3176 15.5,25.5C 16.5223,25.1445 17.189,24.4778 17.5,23.5C 18.1667,23.5 18.5,23.8333 18.5,24.5C 19.1224,26.1216 20.1224,27.4549 21.5,28.5C 22.1667,29.8333 22.8333,31.1667 23.5,32.5C 17.8163,33.2265 13.1497,31.2265 9.5,26.5C 6.07061,25.7494 2.73728,24.7494 -0.5,23.5C -0.5,22.1667 -0.5,20.8333 -0.5,19.5 Z"/></g>
<g><path style="opacity:1" fill="#e6b019" d="M 33.5,22.5 C 35.8333,22.5 38.1667,22.5 40.5,22.5C 40.5,24.1667 40.5,25.8333 40.5,27.5C 38.5853,27.2155 36.9187,27.5489 35.5,28.5C 35.5,28.8333 35.5,29.1667 35.5,29.5C 33.5299,32.3283 31.6966,35.3283 30,38.5C 29.0228,39.7736 28.1894,39.7736 27.5,38.5C 26.5254,36.2048 25.1921,34.2048 23.5,32.5C 22.8333,31.1667 22.1667,29.8333 21.5,28.5C 21.7377,26.3551 22.7377,24.6885 24.5,23.5C 25.9905,25.1256 27.4905,26.7923 29,28.5C 30.7524,26.6491 32.2524,24.6491 33.5,22.5 Z"/></g>
<g><path style="opacity:1" fill="#356f8d" d="M 33.5,19.5 C 33.5,20.5 33.5,21.5 33.5,22.5C 32.2524,24.6491 30.7524,26.6491 29,28.5C 27.4905,26.7923 25.9905,25.1256 24.5,23.5C 22.7377,24.6885 21.7377,26.3551 21.5,28.5C 20.1224,27.4549 19.1224,26.1216 18.5,24.5C 19.1174,24.6107 19.6174,24.944 20,25.5C 21.5095,23.7923 23.0095,22.1256 24.5,20.5C 25.9905,22.1256 27.4905,23.7923 29,25.5C 30.3634,23.3162 31.8634,21.3162 33.5,19.5 Z"/></g>
<g><path style="opacity:1" fill="#6d8156" d="M 40.5,22.5 C 41.404,23.209 41.7373,24.209 41.5,25.5C 41.5,26.5 41.5,27.5 41.5,28.5C 39.5,28.5 37.5,28.5 35.5,28.5C 36.9187,27.5489 38.5853,27.2155 40.5,27.5C 40.5,25.8333 40.5,24.1667 40.5,22.5 Z"/></g>
<g><path style="opacity:1" fill="#0c4674" d="M -0.5,23.5 C 2.73728,24.7494 6.07061,25.7494 9.5,26.5C 13.1497,31.2265 17.8163,33.2265 23.5,32.5C 23.2914,33.9217 22.7914,35.255 22,36.5C 21.3457,35.3044 20.8457,35.3044 20.5,36.5C 21.4279,37.7678 21.5946,39.1011 21,40.5C 18.319,38.3416 15.6524,36.0083 13,33.5C 12.6667,34.5 12.3333,35.5 12,36.5C 10.9207,34.6063 9.58738,34.273 8,35.5C 4.98883,33.2633 2.15549,30.93 -0.5,28.5C -0.5,26.8333 -0.5,25.1667 -0.5,23.5 Z"/></g>
<g><path style="opacity:1" fill="#11436d" d="M -0.5,28.5 C 2.15549,30.93 4.98883,33.2633 8,35.5C 9.58738,34.273 10.9207,34.6063 12,36.5C 12.3333,35.5 12.6667,34.5 13,33.5C 15.6524,36.0083 18.319,38.3416 21,40.5C 21.5946,39.1011 21.4279,37.7678 20.5,36.5C 20.8457,35.3044 21.3457,35.3044 22,36.5C 22.7914,35.255 23.2914,33.9217 23.5,32.5C 25.1921,34.2048 26.5254,36.2048 27.5,38.5C 25.0272,38.6043 24.3606,39.6043 25.5,41.5C 25.1924,42.3081 24.6924,42.9747 24,43.5C 22.5701,43.3062 21.0701,43.3062 19.5,43.5C 17.8333,41.5 16.1667,39.5 14.5,37.5C 13.2011,38.09 12.3678,39.09 12,40.5C 10.0967,40.3062 8.26333,40.3062 6.5,40.5C 3.97634,39.4077 1.64301,38.0743 -0.5,36.5C -0.5,33.8333 -0.5,31.1667 -0.5,28.5 Z"/></g>
<g><path style="opacity:1" fill="#10406b" d="M 49.5,22.5 C 49.5,28.1667 49.5,33.8333 49.5,39.5C 47.5,39.5 45.5,39.5 43.5,39.5C 42.4019,38.603 42.4019,37.7697 43.5,37C 38.9701,36.2809 36.3034,33.7809 35.5,29.5C 35.5,29.1667 35.5,28.8333 35.5,28.5C 37.5,28.5 39.5,28.5 41.5,28.5C 41.5,27.5 41.5,26.5 41.5,25.5C 44.4056,25.0435 47.0722,24.0435 49.5,22.5 Z"/></g>
<g><path style="opacity:1" fill="#123a61" d="M 43.5,39.5 C 45.5,39.5 47.5,39.5 49.5,39.5C 49.5,42.8333 49.5,46.1667 49.5,49.5C 43.1667,49.5 36.8333,49.5 30.5,49.5C 32.193,48.1467 33.5264,46.48 34.5,44.5C 36.0295,43.9332 37.5295,43.2666 39,42.5C 40.3561,43.3802 41.8561,43.7135 43.5,43.5C 43.5,42.1667 43.5,40.8333 43.5,39.5 Z"/></g>
<g><path style="opacity:1" fill="#133e67" d="M 35.5,29.5 C 36.3034,33.7809 38.9701,36.2809 43.5,37C 42.4019,37.7697 42.4019,38.603 43.5,39.5C 43.5,40.8333 43.5,42.1667 43.5,43.5C 41.8561,43.7135 40.3561,43.3802 39,42.5C 37.5295,43.2666 36.0295,43.9332 34.5,44.5C 26.612,46.4152 18.7787,47.4152 11,47.5C 7.87409,44.2568 4.04075,42.9235 -0.5,43.5C -0.5,41.1667 -0.5,38.8333 -0.5,36.5C 1.64301,38.0743 3.97634,39.4077 6.5,40.5C 8.26333,40.3062 10.0967,40.3062 12,40.5C 12.3678,39.09 13.2011,38.09 14.5,37.5C 16.1667,39.5 17.8333,41.5 19.5,43.5C 21.0701,43.3062 22.5701,43.3062 24,43.5C 24.6924,42.9747 25.1924,42.3081 25.5,41.5C 24.3606,39.6043 25.0272,38.6043 27.5,38.5C 28.1894,39.7736 29.0228,39.7736 30,38.5C 31.6966,35.3283 33.5299,32.3283 35.5,29.5 Z"/></g>
<g><path style="opacity:1" fill="#123c62" d="M -0.5,43.5 C 4.04075,42.9235 7.87409,44.2568 11,47.5C 18.7787,47.4152 26.612,46.4152 34.5,44.5C 33.5264,46.48 32.193,48.1467 30.5,49.5C 20.1667,49.5 9.83333,49.5 -0.5,49.5C -0.5,47.5 -0.5,45.5 -0.5,43.5 Z"/></g>
</svg>
