<?xml version="1.0" encoding="UTF-8"?>
<!DOCTYPE svg PUBLIC "-//W3C//DTD SVG 1.1//EN" "http://www.w3.org/Graphics/SVG/1.1/DTD/svg11.dtd">
<svg xmlns="http://www.w3.org/2000/svg" version="1.1" width="50px" height="50px" style="shape-rendering:geometricPrecision; text-rendering:geometricPrecision; image-rendering:optimizeQuality; fill-rule:evenodd; clip-rule:evenodd" xmlns:xlink="http://www.w3.org/1999/xlink">
<g><path style="opacity:1" fill="#dcae3f" d="M -0.5,-0.5 C 16.1667,-0.5 32.8333,-0.5 49.5,-0.5C 49.5,16.1667 49.5,32.8333 49.5,49.5C 32.8333,49.5 16.1667,49.5 -0.5,49.5C -0.5,32.8333 -0.5,16.1667 -0.5,-0.5 Z"/></g>
<g><path style="opacity:1" fill="#7f5d2d" d="M 10.5,17.5 C 9.71003,16.3915 9.21003,15.0581 9,13.5C 8.51722,14.448 8.35055,15.448 8.5,16.5C 7.16667,16.5 5.83333,16.5 4.5,16.5C 4.73731,17.791 4.40397,18.791 3.5,19.5C 3.18136,17.2495 3.68136,15.2495 5,13.5C 5.30762,14.3081 5.80762,14.9747 6.5,15.5C 7.45189,13.9547 7.78522,12.288 7.5,10.5C 8.5,10.5 9.5,10.5 10.5,10.5C 10.5,12.8333 10.5,15.1667 10.5,17.5 Z"/></g>
<g><path style="opacity:1" fill="#543825" d="M 10.5,17.5 C 11.4552,19.7457 12.1218,22.079 12.5,24.5C 9.64991,23.8275 7.48324,22.1609 6,19.5C 5.29492,21.9856 4.46158,21.9856 3.5,19.5C 4.40397,18.791 4.73731,17.791 4.5,16.5C 5.83333,16.5 7.16667,16.5 8.5,16.5C 8.35055,15.448 8.51722,14.448 9,13.5C 9.21003,15.0581 9.71003,16.3915 10.5,17.5 Z"/></g>
<g><path style="opacity:1" fill="#c69a3b" d="M 16.5,12.5 C 18.1238,12.3601 19.2904,13.0267 20,14.5C 23.0491,13.3899 26.2158,12.7233 29.5,12.5C 29.7852,14.288 29.4519,15.9547 28.5,17.5C 26.9954,14.8694 26.3287,15.2027 26.5,18.5C 29.9721,17.9629 32.8055,18.9629 35,21.5C 35.4828,20.552 35.6495,19.552 35.5,18.5C 37.1439,18.2865 38.6439,18.6198 40,19.5C 42.7579,18.2271 43.0912,16.5605 41,14.5C 40,18.5 39,18.5 38,14.5C 37.5172,15.448 37.3505,16.448 37.5,17.5C 35.1229,17.2155 32.9562,17.2155 31,17.5C 30.51,16.2068 30.3433,14.8734 30.5,13.5C 35.5075,12.4077 40.5075,12.4077 45.5,13.5C 44.8333,14.8333 44.1667,16.1667 43.5,17.5C 46.51,19.3918 46.8433,21.3918 44.5,23.5C 41.8627,21.5416 39.5294,21.5416 37.5,23.5C 35.8129,23.2395 34.3129,22.5728 33,21.5C 31.3333,22.8333 29.6667,22.8333 28,21.5C 26.3091,24.1307 25.1424,23.7973 24.5,20.5C 22.8778,22.4386 21.0445,22.772 19,21.5C 17.0924,18.7935 16.259,15.7935 16.5,12.5 Z"/></g>
<g><path style="opacity:1" fill="#b08636" d="M 23.5,30.5 C 30.443,31.4267 37.443,31.76 44.5,31.5C 44.719,32.675 44.3857,33.675 43.5,34.5C 37.0393,33.4654 30.7059,33.4654 24.5,34.5C 23.5713,33.3112 23.238,31.9778 23.5,30.5 Z"/></g>
<g><path style="opacity:1" fill="#b38a37" d="M 4.5,30.5 C 8.82826,31.0464 13.1616,31.7131 17.5,32.5C 13.8642,34.2069 13.8642,35.3736 17.5,36C 20.8891,35.8127 24.2224,35.9794 27.5,36.5C 27.2907,37.086 26.9574,37.586 26.5,38C 21.6947,38.7809 17.028,38.2809 12.5,36.5C 13.3256,35.549 13.4922,34.549 13,33.5C 10.2809,34.4438 7.44753,34.7771 4.5,34.5C 4.5,33.1667 4.5,31.8333 4.5,30.5 Z"/></g>
<g><path style="opacity:1" fill="#aa8235" d="M 10.5,35.5 C 11.7759,36.3864 11.7759,37.3864 10.5,38.5C 8.88489,37.846 7.21822,37.346 5.5,37C 7.38172,36.8019 9.04839,36.3019 10.5,35.5 Z"/></g>
<g><path style="opacity:1" fill="#ba8f3a" d="M 28.5,35.5 C 33.6509,35.978 38.6509,35.978 43.5,35.5C 43.5,36.5 43.5,37.5 43.5,38.5C 38.5,38.5 33.5,38.5 28.5,38.5C 28.5,37.5 28.5,36.5 28.5,35.5 Z"/></g>
</svg>
