<?xml version="1.0" encoding="UTF-8"?>
<!DOCTYPE svg PUBLIC "-//W3C//DTD SVG 1.1//EN" "http://www.w3.org/Graphics/SVG/1.1/DTD/svg11.dtd">
<svg xmlns="http://www.w3.org/2000/svg" version="1.1" width="50px" height="50px" style="shape-rendering:geometricPrecision; text-rendering:geometricPrecision; image-rendering:optimizeQuality; fill-rule:evenodd; clip-rule:evenodd" xmlns:xlink="http://www.w3.org/1999/xlink">
<g><path style="opacity:1" fill="#f1b200" d="M -0.5,-0.5 C 16.1667,-0.5 32.8333,-0.5 49.5,-0.5C 49.5,16.1667 49.5,32.8333 49.5,49.5C 32.8333,49.5 16.1667,49.5 -0.5,49.5C -0.5,32.8333 -0.5,16.1667 -0.5,-0.5 Z"/></g>
<g><path style="opacity:1" fill="#715818" d="M 30.5,17.5 C 30.0618,17.5654 29.7284,17.3988 29.5,17C 31.291,14.8938 31.9577,12.3938 31.5,9.5C 26.8333,9.5 22.1667,9.5 17.5,9.5C 17.5,11.8333 17.5,14.1667 17.5,16.5C 18.5,16.5 19.5,16.5 20.5,16.5C 20.5,21.8333 20.5,27.1667 20.5,32.5C 19.5,32.5 18.5,32.5 17.5,32.5C 17.5,34.8333 17.5,37.1667 17.5,39.5C 22.1667,39.5 26.8333,39.5 31.5,39.5C 31.9577,36.6062 31.291,34.1062 29.5,32C 29.7284,31.6012 30.0618,31.4346 30.5,31.5C 31.5,31.5 32.5,31.5 33.5,31.5C 33.5,34.5 33.5,37.5 33.5,40.5C 27.5,40.5 21.5,40.5 15.5,40.5C 15.5,37.5 15.5,34.5 15.5,31.5C 16.5,31.5 17.5,31.5 18.5,31.5C 18.5,26.8333 18.5,22.1667 18.5,17.5C 17.5,17.5 16.5,17.5 15.5,17.5C 15.5,14.5 15.5,11.5 15.5,8.5C 21.5,8.5 27.5,8.5 33.5,8.5C 33.5,11.5 33.5,14.5 33.5,17.5C 32.5,17.5 31.5,17.5 30.5,17.5 Z"/></g>
<g><path style="opacity:1" fill="#997513" d="M 30.5,17.5 C 30.5,22.1667 30.5,26.8333 30.5,31.5C 30.0618,31.4346 29.7284,31.6012 29.5,32C 31.291,34.1062 31.9577,36.6062 31.5,39.5C 26.8333,39.5 22.1667,39.5 17.5,39.5C 17.5,37.1667 17.5,34.8333 17.5,32.5C 18.5,32.5 19.5,32.5 20.5,32.5C 20.5,27.1667 20.5,21.8333 20.5,16.5C 19.5,16.5 18.5,16.5 17.5,16.5C 17.5,14.1667 17.5,11.8333 17.5,9.5C 22.1667,9.5 26.8333,9.5 31.5,9.5C 31.9577,12.3938 31.291,14.8938 29.5,17C 29.7284,17.3988 30.0618,17.5654 30.5,17.5 Z"/></g>
<g><path style="opacity:1" fill="#171718" d="M 18.5,10.5 C 22.5,10.5 26.5,10.5 30.5,10.5C 30.7254,12.7159 29.8921,14.3826 28,15.5C 27.3333,21.5 27.3333,27.5 28,33.5C 29.8921,34.6174 30.7254,36.2841 30.5,38.5C 26.5,38.5 22.5,38.5 18.5,38.5C 18.5,37.1667 18.5,35.8333 18.5,34.5C 19.5,34.5 20.5,34.5 21.5,34.5C 21.5,27.8333 21.5,21.1667 21.5,14.5C 20.5,14.5 19.5,14.5 18.5,14.5C 18.5,13.1667 18.5,11.8333 18.5,10.5 Z"/></g>
</svg>
