<?xml version="1.0" encoding="UTF-8"?>
<!DOCTYPE svg PUBLIC "-//W3C//DTD SVG 1.1//EN" "http://www.w3.org/Graphics/SVG/1.1/DTD/svg11.dtd">
<svg xmlns="http://www.w3.org/2000/svg" version="1.1" width="50px" height="50px" style="shape-rendering:geometricPrecision; text-rendering:geometricPrecision; image-rendering:optimizeQuality; fill-rule:evenodd; clip-rule:evenodd" xmlns:xlink="http://www.w3.org/1999/xlink">
<g><path style="opacity:1" fill="#980603" d="M -0.5,-0.5 C 4.83333,-0.5 10.1667,-0.5 15.5,-0.5C 15.5,8.5 15.5,17.5 15.5,26.5C 21.358,26.8222 27.0247,26.4889 32.5,25.5C 33.493,17.0161 33.8264,8.34945 33.5,-0.5C 38.8333,-0.5 44.1667,-0.5 49.5,-0.5C 49.5,16.1667 49.5,32.8333 49.5,49.5C 32.8333,49.5 16.1667,49.5 -0.5,49.5C -0.5,32.8333 -0.5,16.1667 -0.5,-0.5 Z"/></g>
<g><path style="opacity:1" fill="#f9f2f2" d="M 16.5,-0.5 C 22.1667,-0.5 27.8333,-0.5 33.5,-0.5C 33.8264,8.34945 33.493,17.0161 32.5,25.5C 27.1667,25.5 21.8333,25.5 16.5,25.5C 16.5,16.8333 16.5,8.16667 16.5,-0.5 Z"/></g>
<g><path style="opacity:1" fill="#9a1612" d="M 26.5,17.5 C 27.3091,15.7078 27.8091,13.7078 28,11.5C 28.4966,13.8098 28.6633,16.1432 28.5,18.5C 27.6016,19.1577 26.6016,19.8243 25.5,20.5C 25.7093,21.086 26.0426,21.586 26.5,22C 25.1667,22.6667 23.8333,22.6667 22.5,22C 22.9574,21.586 23.2907,21.086 23.5,20.5C 22.3717,19.7379 21.2051,19.0712 20,18.5C 19.5034,16.1902 19.3367,13.8568 19.5,11.5C 21.0358,13.0251 22.0358,15.0251 22.5,17.5C 23.1667,14.8333 23.8333,12.1667 24.5,9.5C 25.1676,12.3056 25.8343,14.9723 26.5,17.5 Z"/></g>
<g><path style="opacity:1" fill="#e5bfbd" d="M 26.5,10.5 C 26.5,12.8333 26.5,15.1667 26.5,17.5C 25.8343,14.9723 25.1676,12.3056 24.5,9.5C 23.8333,12.1667 23.1667,14.8333 22.5,17.5C 22.0358,15.0251 21.0358,13.0251 19.5,11.5C 20.9974,10.3957 22.664,9.39573 24.5,8.5C 25.7133,8.74716 26.38,9.41383 26.5,10.5 Z"/></g>
<g><path style="opacity:1" fill="#c77b79" d="M 26.5,10.5 C 27.5,10.5 28.5,10.5 29.5,10.5C 29.8064,13.3854 29.4731,16.0521 28.5,18.5C 28.6633,16.1432 28.4966,13.8098 28,11.5C 27.8091,13.7078 27.3091,15.7078 26.5,17.5C 26.5,15.1667 26.5,12.8333 26.5,10.5 Z"/></g>
<g><path style="opacity:1" fill="#be7170" d="M 15.5,-0.5 C 15.8333,-0.5 16.1667,-0.5 16.5,-0.5C 16.5,8.16667 16.5,16.8333 16.5,25.5C 21.8333,25.5 27.1667,25.5 32.5,25.5C 27.0247,26.4889 21.358,26.8222 15.5,26.5C 15.5,17.5 15.5,8.5 15.5,-0.5 Z"/></g>
<g><path style="opacity:1" fill="#ebd8d7" d="M 10.5,37.5 C 9.26162,35.7857 8.59495,33.7857 8.5,31.5C 8.55999,30.9569 8.89333,30.6236 9.5,30.5C 10.4742,32.7427 10.8076,35.076 10.5,37.5 Z"/></g>
<g><path style="opacity:1" fill="#970404" d="M 30.5,33.5 C 31.8333,34.1667 31.8333,34.8333 30.5,35.5C 28.8763,37.1368 27.8763,36.8034 27.5,34.5C 27.8763,32.1966 28.8763,31.8632 30.5,33.5 Z"/></g>
<g><path style="opacity:1" fill="#cb8080" d="M 4.5,30.5 C 4.19845,33.0593 4.53178,35.3926 5.5,37.5C 5.44001,38.0431 5.10667,38.3764 4.5,38.5C 3.19966,35.6908 3.19966,33.0241 4.5,30.5 Z"/></g>
<g><path style="opacity:1" fill="#d9b4b3" d="M 15.5,30.5 C 15.4226,31.7498 14.756,32.5831 13.5,33C 13.1751,34.9611 13.8418,36.7944 15.5,38.5C 14.1667,38.5 12.8333,38.5 11.5,38.5C 11.5,35.8333 11.5,33.1667 11.5,30.5C 12.8333,30.5 14.1667,30.5 15.5,30.5 Z"/></g>
<g><path style="opacity:1" fill="#e4c4c3" d="M 17.5,30.5 C 22.6677,31.3385 23.6677,33.8385 20.5,38C 19.552,38.4828 18.552,38.6495 17.5,38.5C 17.5,35.8333 17.5,33.1667 17.5,30.5 Z"/></g>
<g><path style="opacity:1" fill="#e5c5c4" d="M 30.5,31.5 C 30.5,32.1667 30.5,32.8333 30.5,33.5C 28.8763,31.8632 27.8763,32.1966 27.5,34.5C 27.8763,36.8034 28.8763,37.1368 30.5,35.5C 30.5,36.1667 30.5,36.8333 30.5,37.5C 25.891,38.1857 24.5576,36.1857 26.5,31.5C 27.9584,30.218 29.2918,30.218 30.5,31.5 Z"/></g>
<g><path style="opacity:1" fill="#b5514a" d="M 15.5,30.5 C 16.1667,30.5 16.8333,30.5 17.5,30.5C 17.5,33.1667 17.5,35.8333 17.5,38.5C 16.8333,38.5 16.1667,38.5 15.5,38.5C 13.8418,36.7944 13.1751,34.9611 13.5,33C 14.756,32.5831 15.4226,31.7498 15.5,30.5 Z"/></g>
<g><path style="opacity:1" fill="#e7c9c8" d="M 41.5,30.5 C 42.9778,30.238 44.3112,30.5713 45.5,31.5C 44.9747,32.1924 44.3081,32.6924 43.5,33C 44.6405,33.7412 44.6405,34.5745 43.5,35.5C 45.9238,37.7136 45.2571,38.7136 41.5,38.5C 41.5,35.8333 41.5,33.1667 41.5,30.5 Z"/></g>
<g><path style="opacity:1" fill="#e0b7b7" d="M 4.5,30.5 C 6.04504,31.2297 6.87838,32.563 7,34.5C 7.23209,33.2625 7.73209,32.2625 8.5,31.5C 8.59495,33.7857 9.26162,35.7857 10.5,37.5C 8.95041,38.7199 7.28374,38.7199 5.5,37.5C 4.53178,35.3926 4.19845,33.0593 4.5,30.5 Z"/></g>
<g><path style="opacity:1" fill="#9b0c0c" d="M 18.5,32.5 C 19.5862,32.62 20.2528,33.2867 20.5,34.5C 20.1667,35.1667 19.8333,35.8333 19.5,36.5C 18.5713,35.3112 18.238,33.9778 18.5,32.5 Z"/></g>
<g><path style="opacity:1" fill="#cf8d8c" d="M 30.5,37.5 C 30.5,36.8333 30.5,36.1667 30.5,35.5C 31.8333,34.8333 31.8333,34.1667 30.5,33.5C 30.5,32.8333 30.5,32.1667 30.5,31.5C 31.1499,31.1961 31.8165,30.8627 32.5,30.5C 33.8333,33.1667 33.8333,35.8333 32.5,38.5C 31.8165,38.1373 31.1499,37.8039 30.5,37.5 Z"/></g>
<g><path style="opacity:1" fill="#e1b8b6" d="M 34.5,30.5 C 36.4109,30.5743 37.5776,31.5743 38,33.5C 38.2492,32.376 38.7492,31.376 39.5,30.5C 40.8333,33.1667 40.8333,35.8333 39.5,38.5C 38.6667,37.5 37.8333,36.5 37,35.5C 36.7508,36.624 36.2508,37.624 35.5,38.5C 34.52,35.9135 34.1866,33.2469 34.5,30.5 Z"/></g>
</svg>
