<?xml version="1.0" encoding="UTF-8"?>
<!DOCTYPE svg PUBLIC "-//W3C//DTD SVG 1.1//EN" "http://www.w3.org/Graphics/SVG/1.1/DTD/svg11.dtd">
<svg xmlns="http://www.w3.org/2000/svg" version="1.1" width="50px" height="50px" style="shape-rendering:geometricPrecision; text-rendering:geometricPrecision; image-rendering:optimizeQuality; fill-rule:evenodd; clip-rule:evenodd" xmlns:xlink="http://www.w3.org/1999/xlink">
<g><path style="opacity:1" fill="#0552ba" d="M -0.5,-0.5 C 16.1667,-0.5 32.8333,-0.5 49.5,-0.5C 49.5,16.1667 49.5,32.8333 49.5,49.5C 32.8333,49.5 16.1667,49.5 -0.5,49.5C -0.5,32.8333 -0.5,16.1667 -0.5,-0.5 Z"/></g>
<g><path style="opacity:1" fill="#91b1d5" d="M 12.5,20.5 C 11.4902,18.9866 11.1569,16.6533 11.5,13.5C 10.5,13.5 9.5,13.5 8.5,13.5C 8.16667,13.5 7.83333,13.5 7.5,13.5C 8.67629,12.3654 10.6763,12.1988 13.5,13C 12.565,15.3806 12.2317,17.8806 12.5,20.5 Z"/></g>
<g><path style="opacity:1" fill="#8fb1db" d="M 28.5,27.5 C 27.5139,23.03 27.1805,18.3633 27.5,13.5C 26.5,13.5 25.5,13.5 24.5,13.5C 23.391,13.5569 22.391,13.8902 21.5,14.5C 20.6522,13.375 19.6522,13.375 18.5,14.5C 19.8714,13.2132 21.7047,12.5465 24,12.5C 25.8333,12.6667 27.6667,12.8333 29.5,13C 28.5308,17.7367 28.1975,22.57 28.5,27.5 Z"/></g>
<g><path style="opacity:1" fill="#e3ebf4" d="M 24.5,13.5 C 25.5,13.5 26.5,13.5 27.5,13.5C 27.1805,18.3633 27.5139,23.03 28.5,27.5C 29.8844,31.4606 32.5511,32.4606 36.5,30.5C 38.0138,27.3779 38.6804,24.0446 38.5,20.5C 38.4262,17.7125 37.7595,15.2125 36.5,13C 38.5,12.3333 40.5,12.3333 42.5,13C 42,13.5 41.5,14 41,14.5C 40.6667,19.1667 40.3333,23.8333 40,28.5C 36.9867,33.5352 32.8201,34.7019 27.5,32C 26.2986,31.0975 25.4652,29.9308 25,28.5C 24.5007,23.5111 24.3341,18.5111 24.5,13.5 Z"/></g>
<g><path style="opacity:1" fill="#e9f0f6" d="M 8.5,13.5 C 9.5,13.5 10.5,13.5 11.5,13.5C 11.1569,16.6533 11.4902,18.9866 12.5,20.5C 14.8333,18.8333 16.8333,16.8333 18.5,14.5C 19.6522,13.375 20.6522,13.375 21.5,14.5C 19.0365,16.4611 16.7032,18.6278 14.5,21C 18.9003,27.0693 24.2337,32.0693 30.5,36C 28.5,36.6667 26.5,36.6667 24.5,36C 20.6572,32.3241 16.9905,28.4908 13.5,24.5C 13.44,23.9569 13.1067,23.6236 12.5,23.5C 11.1997,26.3092 11.1997,28.9759 12.5,31.5C 11.4324,32.4345 10.099,32.7678 8.5,32.5C 8.5,26.1667 8.5,19.8333 8.5,13.5 Z"/></g>
<g><path style="opacity:1" fill="#6394cf" d="M 13.5,24.5 C 12.5318,26.6074 12.1984,28.9407 12.5,31.5C 11.1997,28.9759 11.1997,26.3092 12.5,23.5C 13.1067,23.6236 13.44,23.9569 13.5,24.5 Z"/></g>
<g><path style="opacity:1" fill="#2e68be" d="M 7.5,13.5 C 7.83333,13.5 8.16667,13.5 8.5,13.5C 8.5,19.8333 8.5,26.1667 8.5,32.5C 10.099,32.7678 11.4324,32.4345 12.5,31.5C 13.3764,31.3691 14.0431,31.7025 14.5,32.5C 11.8333,33.8333 9.16667,33.8333 6.5,32.5C 7.45956,26.2266 7.79289,19.8933 7.5,13.5 Z"/></g>
</svg>
