<?xml version="1.0" encoding="UTF-8"?>
<!DOCTYPE svg PUBLIC "-//W3C//DTD SVG 1.1//EN" "http://www.w3.org/Graphics/SVG/1.1/DTD/svg11.dtd">
<svg xmlns="http://www.w3.org/2000/svg" version="1.1" width="50px" height="50px" style="shape-rendering:geometricPrecision; text-rendering:geometricPrecision; image-rendering:optimizeQuality; fill-rule:evenodd; clip-rule:evenodd" xmlns:xlink="http://www.w3.org/1999/xlink">
<g><path style="opacity:1" fill="#fefdfc" d="M -0.5,-0.5 C 16.1667,-0.5 32.8333,-0.5 49.5,-0.5C 49.5,16.1667 49.5,32.8333 49.5,49.5C 32.8333,49.5 16.1667,49.5 -0.5,49.5C -0.5,32.8333 -0.5,16.1667 -0.5,-0.5 Z"/></g>
<g><path style="opacity:1" fill="#f4d970" d="M 15.5,14.5 C 15.5,14.8333 15.5,15.1667 15.5,15.5C 15.81,18.7131 15.4767,21.7131 14.5,24.5C 14.7839,21.2234 14.4505,18.0567 13.5,15C 14.0944,14.5357 14.7611,14.369 15.5,14.5 Z"/></g>
<g><path style="opacity:1" fill="#f8e28e" d="M 28.5,15.5 C 29.7815,18.9359 29.7815,22.2693 28.5,25.5C 28.6621,23.4727 28.4955,21.4727 28,19.5C 27.059,21.7274 25.8923,23.7274 24.5,25.5C 24.4431,24.391 24.1098,23.391 23.5,22.5C 24.3764,22.6309 25.0431,22.2975 25.5,21.5C 26.1359,19.22 27.1359,17.22 28.5,15.5 Z"/></g>
<g><path style="opacity:1" fill="#fadd78" d="M 14.5,24.5 C 14.4413,26.7224 13.2747,27.7224 11,27.5C 9.18778,27.5066 7.68778,26.84 6.5,25.5C 5.57412,21.9062 5.24079,18.2396 5.5,14.5C 6.5,14.5 7.5,14.5 8.5,14.5C 8.5,18.1667 8.5,21.8333 8.5,25.5C 10.6208,25.6747 12.6208,25.3414 14.5,24.5 Z"/></g>
<g><path style="opacity:1" fill="#fcf7df" d="M 15.5,15.5 C 15.5,15.1667 15.5,14.8333 15.5,14.5C 16.5,14.5 17.5,14.5 18.5,14.5C 18.3345,18.5138 18.5012,22.5138 19,26.5C 19.1169,16.2853 20.6169,16.2853 23.5,26.5C 22.8826,26.3893 22.3826,26.056 22,25.5C 20.5822,27.3632 18.7489,27.8632 16.5,27C 17.1311,25.0937 17.4644,23.0937 17.5,21C 17.4535,18.7047 16.7868,16.8714 15.5,15.5 Z"/></g>
<g><path style="opacity:1" fill="#f8cc35" d="M 31.5,25.5 C 30.5,26.8333 29.5,26.8333 28.5,25.5C 29.7815,22.2693 29.7815,18.9359 28.5,15.5C 29.2506,14.4265 30.2506,14.2599 31.5,15C 30.1802,18.6013 30.1802,22.1013 31.5,25.5 Z"/></g>
<g><path style="opacity:1" fill="#f8d250" d="M 33.5,15.5 C 41.676,12.8358 45.176,15.8358 44,24.5C 42.8904,26.0368 41.3904,26.7035 39.5,26.5C 39.5,26.1667 39.5,25.8333 39.5,25.5C 42.3324,23.5935 43.1657,20.9268 42,17.5C 40.4157,16.1387 38.5824,15.472 36.5,15.5C 35.6773,18.977 35.1773,22.6437 35,26.5C 34.8227,22.6437 34.3227,18.977 33.5,15.5 Z"/></g>
<g><path style="opacity:1" fill="#fdfdf8" d="M 36.5,15.5 C 38.5824,15.472 40.4157,16.1387 42,17.5C 43.1657,20.9268 42.3324,23.5935 39.5,25.5C 38.5,25.5 37.5,25.5 36.5,25.5C 36.5,22.1667 36.5,18.8333 36.5,15.5 Z"/></g>
<g><path style="opacity:1" fill="#f8d251" d="M 18.5,14.5 C 21.639,16.085 23.3056,18.7517 23.5,22.5C 24.1098,23.391 24.4431,24.391 24.5,25.5C 24.5,26.1667 24.1667,26.5 23.5,26.5C 20.6169,16.2853 19.1169,16.2853 19,26.5C 18.5012,22.5138 18.3345,18.5138 18.5,14.5 Z"/></g>
<g><path style="opacity:1" fill="#f7e7a6" d="M 33.5,15.5 C 34.3227,18.977 34.8227,22.6437 35,26.5C 35.1773,22.6437 35.6773,18.977 36.5,15.5C 36.5,18.8333 36.5,22.1667 36.5,25.5C 37.5,25.5 38.5,25.5 39.5,25.5C 39.5,25.8333 39.5,26.1667 39.5,26.5C 35.6493,27.8095 31.6493,27.8095 27.5,26.5C 27.6236,25.8933 27.9569,25.56 28.5,25.5C 29.5,26.8333 30.5,26.8333 31.5,25.5C 33.4023,22.6627 34.069,19.3293 33.5,15.5 Z"/></g>
<g><path style="opacity:1" fill="#be7c8b" d="M 16.5,32.5 C 16.6495,33.552 16.4828,34.552 16,35.5C 15.8038,33.7139 14.9705,32.3805 13.5,31.5C 12.8302,33.2914 12.1635,34.9581 11.5,36.5C 11.5,34.5 11.5,32.5 11.5,30.5C 13.698,30.1201 15.3646,30.7868 16.5,32.5 Z"/></g>
<g><path style="opacity:1" fill="#cba0a9" d="M 36.5,32.5 C 37.5862,32.62 38.2528,33.2867 38.5,34.5C 38.1667,35.1667 37.8333,35.8333 37.5,36.5C 36.5713,35.3112 36.238,33.9778 36.5,32.5 Z"/></g>
<g><path style="opacity:1" fill="#cda7b1" d="M 21.5,32.5 C 22.8589,33.0065 23.8589,34.0065 24.5,35.5C 25.8847,31.6221 27.0514,31.6221 28,35.5C 28.4828,34.552 28.6495,33.552 28.5,32.5C 29.8333,32.5 31.1667,32.5 32.5,32.5C 32.6691,37.0407 32.0025,37.374 30.5,33.5C 29.8524,35.1492 28.8524,36.4825 27.5,37.5C 25.5841,36.7517 23.5841,36.7517 21.5,37.5C 21.5,35.8333 21.5,34.1667 21.5,32.5 Z"/></g>
<g><path style="opacity:1" fill="#e1cad0" d="M 16.5,32.5 C 18.0568,33.4663 19.3901,34.7996 20.5,36.5C 20.1667,36.8333 19.8333,37.1667 19.5,37.5C 16.6903,36.9323 14.0236,36.599 11.5,36.5C 12.1635,34.9581 12.8302,33.2914 13.5,31.5C 14.9705,32.3805 15.8038,33.7139 16,35.5C 16.4828,34.552 16.6495,33.552 16.5,32.5 Z"/></g>
</svg>
