<?xml version="1.0" encoding="UTF-8"?>
<!DOCTYPE svg PUBLIC "-//W3C//DTD SVG 1.1//EN" "http://www.w3.org/Graphics/SVG/1.1/DTD/svg11.dtd">
<svg xmlns="http://www.w3.org/2000/svg" version="1.1" width="50px" height="50px" style="shape-rendering:geometricPrecision; text-rendering:geometricPrecision; image-rendering:optimizeQuality; fill-rule:evenodd; clip-rule:evenodd" xmlns:xlink="http://www.w3.org/1999/xlink">
<g><path style="opacity:1" fill="#00533d" d="M 18.5,-0.5 C 23.8333,-0.5 29.1667,-0.5 34.5,-0.5C 38.2054,4.244 40.872,9.57733 42.5,15.5C 39.1116,15.1261 37.2782,13.1261 37,9.5C 29.9467,1.84653 22.78,1.67987 15.5,9C 12.2184,12.1091 9.21836,15.2757 6.5,18.5C 6.08247,17.7784 5.4158,17.2784 4.5,17C 5.46014,15.5806 6.29347,14.0806 7,12.5C 11.378,8.6236 15.2113,4.29026 18.5,-0.5 Z"/></g>
<g><path style="opacity:1" fill="#00442f" d="M -0.5,-0.5 C 3.83333,-0.5 8.16667,-0.5 12.5,-0.5C 10.2167,2.95627 7.71673,6.2896 5,9.5C 2.63167,13.8995 1.13167,18.5662 0.5,23.5C 0.166667,23.5 -0.166667,23.5 -0.5,23.5C -0.5,15.5 -0.5,7.5 -0.5,-0.5 Z"/></g>
<g><path style="opacity:1" fill="#0e583e" d="M 42.5,15.5 C 42.5,16.5 42.5,17.5 42.5,18.5C 42.5924,21.6448 42.2591,24.9781 41.5,28.5C 40.5832,29.1272 39.5832,29.4606 38.5,29.5C 37.907,26.1996 37.2403,22.8663 36.5,19.5C 35.52,22.0865 35.1866,24.7531 35.5,27.5C 34.8333,27.5 34.1667,27.5 33.5,27.5C 33.0367,24.7448 31.3701,23.0781 28.5,22.5C 29.3675,18.9265 30.8675,18.9265 33,22.5C 32.9595,19.194 31.1262,17.8607 27.5,18.5C 30.3583,17.834 33.3583,17.1674 36.5,16.5C 35.0451,14.7801 34.2117,12.7801 34,10.5C 33.6924,11.3081 33.1924,11.9747 32.5,12.5C 28.9222,10.2347 25.0889,10.2347 21,12.5C 20.6667,12.1667 20.3333,11.8333 20,11.5C 16.5404,13.6046 13.0404,15.7712 9.5,18C 10.0944,18.4643 10.7611,18.631 11.5,18.5C 12.6227,20.9787 12.6227,23.312 11.5,25.5C 10.2983,23.6075 8.96501,21.7742 7.5,20C 6.56323,19.3083 5.89657,19.475 5.5,20.5C 4.62356,20.6309 3.95689,20.2975 3.5,19.5C 4.32496,18.6143 5.32496,18.281 6.5,18.5C 9.21836,15.2757 12.2184,12.1091 15.5,9C 22.78,1.67987 29.9467,1.84653 37,9.5C 37.2782,13.1261 39.1116,15.1261 42.5,15.5 Z"/></g>
<g><path style="opacity:1" fill="#03573f" d="M 27.5,18.5 C 27.5,19.1667 27.5,19.8333 27.5,20.5C 26.6618,20.8417 26.3284,21.5084 26.5,22.5C 26.1667,22.5 25.8333,22.5 25.5,22.5C 25.1667,21.8333 24.8333,21.1667 24.5,20.5C 24.0825,19.7784 23.4158,19.2784 22.5,19C 18.8484,18.5014 15.1817,18.3347 11.5,18.5C 10.7611,18.631 10.0944,18.4643 9.5,18C 13.0404,15.7712 16.5404,13.6046 20,11.5C 20.3333,11.8333 20.6667,12.1667 21,12.5C 25.0889,10.2347 28.9222,10.2347 32.5,12.5C 33.1924,11.9747 33.6924,11.3081 34,10.5C 34.2117,12.7801 35.0451,14.7801 36.5,16.5C 33.3583,17.1674 30.3583,17.834 27.5,18.5 Z"/></g>
<g><path style="opacity:1" fill="#034e38" d="M 34.5,-0.5 C 36.1667,-0.5 37.8333,-0.5 39.5,-0.5C 44.7694,9.3062 46.9361,19.6395 46,30.5C 45.6264,32.4913 44.793,34.158 43.5,35.5C 44.1032,32.9591 44.1032,30.6257 43.5,28.5C 43.2601,25.4212 43.5934,22.4212 44.5,19.5C 44.0431,18.7025 43.3764,18.3691 42.5,18.5C 42.5,17.5 42.5,16.5 42.5,15.5C 40.872,9.57733 38.2054,4.244 34.5,-0.5 Z"/></g>
<g><path style="opacity:1" fill="#8b8f39" d="M 27.5,18.5 C 31.1262,17.8607 32.9595,19.194 33,22.5C 30.8675,18.9265 29.3675,18.9265 28.5,22.5C 27.6618,22.1583 27.3284,21.4916 27.5,20.5C 27.5,19.8333 27.5,19.1667 27.5,18.5 Z"/></g>
<g><path style="opacity:1" fill="#6b8037" d="M 11.5,18.5 C 15.1817,18.3347 18.8484,18.5014 22.5,19C 23.4158,19.2784 24.0825,19.7784 24.5,20.5C 23.8333,20.5 23.5,20.8333 23.5,21.5C 22.2921,20.7659 20.9587,20.4326 19.5,20.5C 19.5,23.1667 19.5,25.8333 19.5,28.5C 20.8333,28.5 22.1667,28.5 23.5,28.5C 23.8333,28.5 24.1667,28.5 24.5,28.5C 21.8087,30.5962 18.8087,30.9295 15.5,29.5C 15.6236,28.8933 15.9569,28.56 16.5,28.5C 16.56,29.0431 16.8933,29.3764 17.5,29.5C 18.8333,26.1667 18.8333,22.8333 17.5,19.5C 16.8933,19.6236 16.56,19.9569 16.5,20.5C 15.5,20.5 14.5,20.5 13.5,20.5C 13.5,22.5 13.5,24.5 13.5,26.5C 12.5084,26.6716 11.8417,26.3382 11.5,25.5C 12.6227,23.312 12.6227,20.9787 11.5,18.5 Z"/></g>
<g><path style="opacity:1" fill="#04563f" d="M 23.5,21.5 C 23.5,23.8333 23.5,26.1667 23.5,28.5C 22.1667,28.5 20.8333,28.5 19.5,28.5C 19.5,25.8333 19.5,23.1667 19.5,20.5C 20.9587,20.4326 22.2921,20.7659 23.5,21.5 Z"/></g>
<g><path style="opacity:1" fill="#f9b92b" d="M 16.5,20.5 C 16.56,19.9569 16.8933,19.6236 17.5,19.5C 18.8333,22.8333 18.8333,26.1667 17.5,29.5C 16.8933,29.3764 16.56,29.0431 16.5,28.5C 17.8333,25.8333 17.8333,23.1667 16.5,20.5 Z"/></g>
<g><path style="opacity:1" fill="#d1ac32" d="M 24.5,20.5 C 24.8333,21.1667 25.1667,21.8333 25.5,22.5C 25.5,24.1667 25.5,25.8333 25.5,27.5C 24.8333,27.5 24.5,27.8333 24.5,28.5C 24.1667,28.5 23.8333,28.5 23.5,28.5C 23.5,26.1667 23.5,23.8333 23.5,21.5C 23.5,20.8333 23.8333,20.5 24.5,20.5 Z"/></g>
<g><path style="opacity:1" fill="#888932" d="M 42.5,18.5 C 43.3764,18.3691 44.0431,18.7025 44.5,19.5C 43.5934,22.4212 43.2601,25.4212 43.5,28.5C 42.7095,29.4013 41.7095,30.0679 40.5,30.5C 39.8333,30.5 39.1667,30.5 38.5,30.5C 37.8333,30.5 37.5,30.1667 37.5,29.5C 37.8333,29.5 38.1667,29.5 38.5,29.5C 39.5832,29.4606 40.5832,29.1272 41.5,28.5C 42.2591,24.9781 42.5924,21.6448 42.5,18.5 Z"/></g>
<g><path style="opacity:1" fill="#9d9433" d="M 5.5,20.5 C 6.5,20.8333 7.16667,21.5 7.5,22.5C 6.85287,23.2739 6.51954,24.2739 6.5,25.5C 6.98649,27.3042 7.65316,28.9709 8.5,30.5C 7.02218,30.762 5.68884,30.4287 4.5,29.5C 5.40661,26.5788 5.73994,23.5788 5.5,20.5 Z"/></g>
<g><path style="opacity:1" fill="#e3b12c" d="M 5.5,20.5 C 5.89657,19.475 6.56323,19.3083 7.5,20C 8.96501,21.7742 10.2983,23.6075 11.5,25.5C 11.8417,26.3382 12.5084,26.6716 13.5,26.5C 13.8693,28.9935 13.2027,29.6602 11.5,28.5C 10.1667,26.5 8.83333,24.5 7.5,22.5C 7.16667,21.5 6.5,20.8333 5.5,20.5 Z"/></g>
<g><path style="opacity:1" fill="#d5ab2c" d="M 27.5,20.5 C 27.3284,21.4916 27.6618,22.1583 28.5,22.5C 31.3701,23.0781 33.0367,24.7448 33.5,27.5C 33.5,27.8333 33.5,28.1667 33.5,28.5C 33.1667,28.5 32.8333,28.5 32.5,28.5C 31.3939,25.9228 29.3939,24.2561 26.5,23.5C 26.5,23.1667 26.5,22.8333 26.5,22.5C 26.3284,21.5084 26.6618,20.8417 27.5,20.5 Z"/></g>
<g><path style="opacity:1" fill="#003c28" d="M 49.5,25.5 C 49.5,33.5 49.5,41.5 49.5,49.5C 32.8333,49.5 16.1667,49.5 -0.5,49.5C -0.5,42.8333 -0.5,36.1667 -0.5,29.5C 2.09963,33.8299 5.09963,37.9966 8.5,42C 21.8474,50.1309 34.0141,48.6309 45,37.5C 46.8197,33.5039 48.3197,29.5039 49.5,25.5 Z"/></g>
<g><path style="opacity:1" fill="#caa62e" d="M 38.5,29.5 C 38.1667,29.5 37.8333,29.5 37.5,29.5C 36.5,29.1667 35.8333,28.5 35.5,27.5C 35.1866,24.7531 35.52,22.0865 36.5,19.5C 37.2403,22.8663 37.907,26.1996 38.5,29.5 Z"/></g>
<g><path style="opacity:1" fill="#929034" d="M 25.5,22.5 C 25.8333,22.5 26.1667,22.5 26.5,22.5C 26.5,22.8333 26.5,23.1667 26.5,23.5C 26.9073,27.6073 28.9073,29.2739 32.5,28.5C 32.8333,28.5 33.1667,28.5 33.5,28.5C 30.6228,31.1272 27.9561,30.7939 25.5,27.5C 25.5,25.8333 25.5,24.1667 25.5,22.5 Z"/></g>
<g><path style="opacity:1" fill="#014e39" d="M 12.5,-0.5 C 14.5,-0.5 16.5,-0.5 18.5,-0.5C 15.2113,4.29026 11.378,8.6236 7,12.5C 6.29347,14.0806 5.46014,15.5806 4.5,17C 5.4158,17.2784 6.08247,17.7784 6.5,18.5C 5.32496,18.281 4.32496,18.6143 3.5,19.5C 3.95689,20.2975 4.62356,20.6309 5.5,20.5C 5.73994,23.5788 5.40661,26.5788 4.5,29.5C 5.68884,30.4287 7.02218,30.762 8.5,30.5C 7.26126,31.212 6.76126,32.212 7,33.5C 8.57934,35.0412 10.4127,36.2078 12.5,37C 18.3355,38.0455 24.1689,38.8788 30,39.5C 34.8528,38.1086 39.0194,35.6086 42.5,32C 41.5842,31.7216 40.9175,31.2216 40.5,30.5C 41.7095,30.0679 42.7095,29.4013 43.5,28.5C 44.1032,30.6257 44.1032,32.9591 43.5,35.5C 40.8142,39.3388 37.1475,41.8388 32.5,43C 15.0781,46.8158 4.41139,40.3158 0.5,23.5C 1.13167,18.5662 2.63167,13.8995 5,9.5C 7.71673,6.2896 10.2167,2.95627 12.5,-0.5 Z"/></g>
<g><path style="opacity:1" fill="#004530" d="M 39.5,-0.5 C 42.8333,-0.5 46.1667,-0.5 49.5,-0.5C 49.5,8.16667 49.5,16.8333 49.5,25.5C 48.3197,29.5039 46.8197,33.5039 45,37.5C 34.0141,48.6309 21.8474,50.1309 8.5,42C 5.09963,37.9966 2.09963,33.8299 -0.5,29.5C -0.5,27.5 -0.5,25.5 -0.5,23.5C -0.166667,23.5 0.166667,23.5 0.5,23.5C 4.41139,40.3158 15.0781,46.8158 32.5,43C 37.1475,41.8388 40.8142,39.3388 43.5,35.5C 44.793,34.158 45.6264,32.4913 46,30.5C 46.9361,19.6395 44.7694,9.3062 39.5,-0.5 Z"/></g>
<g><path style="opacity:1" fill="#13593d" d="M 26.5,23.5 C 29.3939,24.2561 31.3939,25.9228 32.5,28.5C 28.9073,29.2739 26.9073,27.6073 26.5,23.5 Z"/></g>
<g><path style="opacity:1" fill="#03543d" d="M 7.5,22.5 C 8.83333,24.5 10.1667,26.5 11.5,28.5C 11.5106,30.0174 12.1772,31.1841 13.5,32C 12.8333,32.3333 12.1667,32.6667 11.5,33C 18.4333,34.5058 25.4333,34.8391 32.5,34C 34.6402,32.1988 36.6402,31.0321 38.5,30.5C 39.1667,30.5 39.8333,30.5 40.5,30.5C 40.9175,31.2216 41.5842,31.7216 42.5,32C 39.0194,35.6086 34.8528,38.1086 30,39.5C 24.1689,38.8788 18.3355,38.0455 12.5,37C 10.4127,36.2078 8.57934,35.0412 7,33.5C 6.76126,32.212 7.26126,31.212 8.5,30.5C 7.65316,28.9709 6.98649,27.3042 6.5,25.5C 6.51954,24.2739 6.85287,23.2739 7.5,22.5 Z"/></g>
<g><path style="opacity:1" fill="#185b3d" d="M 16.5,20.5 C 17.8333,23.1667 17.8333,25.8333 16.5,28.5C 15.9569,28.56 15.6236,28.8933 15.5,29.5C 18.8087,30.9295 21.8087,30.5962 24.5,28.5C 24.5,27.8333 24.8333,27.5 25.5,27.5C 27.9561,30.7939 30.6228,31.1272 33.5,28.5C 33.5,28.1667 33.5,27.8333 33.5,27.5C 34.1667,27.5 34.8333,27.5 35.5,27.5C 35.8333,28.5 36.5,29.1667 37.5,29.5C 37.5,30.1667 37.8333,30.5 38.5,30.5C 36.6402,31.0321 34.6402,32.1988 32.5,34C 25.4333,34.8391 18.4333,34.5058 11.5,33C 12.1667,32.6667 12.8333,32.3333 13.5,32C 12.1772,31.1841 11.5106,30.0174 11.5,28.5C 13.2027,29.6602 13.8693,28.9935 13.5,26.5C 13.5,24.5 13.5,22.5 13.5,20.5C 14.5,20.5 15.5,20.5 16.5,20.5 Z"/></g>
</svg>
