<?xml version="1.0" encoding="UTF-8"?>
<!DOCTYPE svg PUBLIC "-//W3C//DTD SVG 1.1//EN" "http://www.w3.org/Graphics/SVG/1.1/DTD/svg11.dtd">
<svg xmlns="http://www.w3.org/2000/svg" version="1.1" width="50px" height="50px" style="shape-rendering:geometricPrecision; text-rendering:geometricPrecision; image-rendering:optimizeQuality; fill-rule:evenodd; clip-rule:evenodd" xmlns:xlink="http://www.w3.org/1999/xlink">
<g><path style="opacity:1" fill="#cf0201" d="M -0.5,-0.5 C 16.1667,-0.5 32.8333,-0.5 49.5,-0.5C 49.5,16.1667 49.5,32.8333 49.5,49.5C 32.8333,49.5 16.1667,49.5 -0.5,49.5C -0.5,32.8333 -0.5,16.1667 -0.5,-0.5 Z"/></g>
<g><path style="opacity:1" fill="#eba8a8" d="M 21.5,14.5 C 19.1667,14.5 16.8333,14.5 14.5,14.5C 14.366,16.2915 14.6993,17.9582 15.5,19.5C 14.8333,19.5 14.1667,19.5 13.5,19.5C 13.5,17.5 13.5,15.5 13.5,13.5C 16.3854,13.1936 19.0521,13.5269 21.5,14.5 Z"/></g>
<g><path style="opacity:1" fill="#fcfaf9" d="M 21.5,14.5 C 21.427,16.0269 22.0937,17.0269 23.5,17.5C 24.1667,18.8333 24.8333,20.1667 25.5,21.5C 28.441,26.3064 29.1077,25.6397 27.5,19.5C 27.5,17.8333 27.5,16.1667 27.5,14.5C 29.8333,14.5 32.1667,14.5 34.5,14.5C 34.634,16.2915 34.3007,17.9582 33.5,19.5C 33.5,22.8333 33.5,26.1667 33.5,29.5C 34.3007,31.0418 34.634,32.7085 34.5,34.5C 32.1667,34.5 29.8333,34.5 27.5,34.5C 27.573,32.9731 26.9063,31.9731 25.5,31.5C 25.2671,29.9382 24.6005,28.6049 23.5,27.5C 22.928,26.0267 22.0946,24.6934 21,23.5C 20.2109,25.7116 20.3775,27.7116 21.5,29.5C 21.5,31.1667 21.5,32.8333 21.5,34.5C 19.1667,34.5 16.8333,34.5 14.5,34.5C 14.366,32.7085 14.6993,31.0418 15.5,29.5C 15.5,26.1667 15.5,22.8333 15.5,19.5C 14.6993,17.9582 14.366,16.2915 14.5,14.5C 16.8333,14.5 19.1667,14.5 21.5,14.5 Z"/></g>
<g><path style="opacity:1" fill="#e99f9e" d="M 26.5,13.5 C 29.5,13.5 32.5,13.5 35.5,13.5C 35.9746,16.0821 35.3079,18.0821 33.5,19.5C 34.3007,17.9582 34.634,16.2915 34.5,14.5C 32.1667,14.5 29.8333,14.5 27.5,14.5C 27.5,16.1667 27.5,17.8333 27.5,19.5C 26.5386,17.7354 26.2053,15.7354 26.5,13.5 Z"/></g>
<g><path style="opacity:1" fill="#da7875" d="M 21.5,14.5 C 22.9063,14.9731 23.573,15.9731 23.5,17.5C 22.0937,17.0269 21.427,16.0269 21.5,14.5 Z"/></g>
<g><path style="opacity:1" fill="#d2423d" d="M 26.5,13.5 C 26.2053,15.7354 26.5386,17.7354 27.5,19.5C 27.5,20.8333 26.8333,21.5 25.5,21.5C 24.8333,20.1667 24.1667,18.8333 23.5,17.5C 24.1174,17.6107 24.6174,17.944 25,18.5C 25.1981,16.6183 25.6981,14.9516 26.5,13.5 Z"/></g>
<g><path style="opacity:1" fill="#dc5354" d="M 13.5,19.5 C 14.1667,19.5 14.8333,19.5 15.5,19.5C 15.5,22.8333 15.5,26.1667 15.5,29.5C 14.8333,29.5 14.1667,29.5 13.5,29.5C 14.8333,26.1667 14.8333,22.8333 13.5,19.5 Z"/></g>
<g><path style="opacity:1" fill="#d94644" d="M 35.5,13.5 C 36.1524,14.4486 36.4857,15.6153 36.5,17C 35.7552,19.4791 35.0886,21.9791 34.5,24.5C 35.4113,28.0623 36.4113,31.5623 37.5,35C 36.9056,35.4643 36.2389,35.631 35.5,35.5C 35.9746,32.9179 35.3079,30.9179 33.5,29.5C 33.5,26.1667 33.5,22.8333 33.5,19.5C 35.3079,18.0821 35.9746,16.0821 35.5,13.5 Z"/></g>
<g><path style="opacity:1" fill="#d46e6d" d="M 27.5,19.5 C 29.1077,25.6397 28.441,26.3064 25.5,21.5C 26.8333,21.5 27.5,20.8333 27.5,19.5 Z"/></g>
<g><path style="opacity:1" fill="#d26b6a" d="M 23.5,27.5 C 22.1667,27.5 21.5,28.1667 21.5,29.5C 20.3775,27.7116 20.2109,25.7116 21,23.5C 22.0946,24.6934 22.928,26.0267 23.5,27.5 Z"/></g>
<g><path style="opacity:1" fill="#d23e3a" d="M 23.5,27.5 C 24.6005,28.6049 25.2671,29.9382 25.5,31.5C 24.8826,31.3893 24.3826,31.056 24,30.5C 23.8019,32.3817 23.3019,34.0484 22.5,35.5C 22.7947,33.2646 22.4614,31.2646 21.5,29.5C 21.5,28.1667 22.1667,27.5 23.5,27.5 Z"/></g>
<g><path style="opacity:1" fill="#d77170" d="M 25.5,31.5 C 26.9063,31.9731 27.573,32.9731 27.5,34.5C 26.0937,34.0269 25.427,33.0269 25.5,31.5 Z"/></g>
<g><path style="opacity:1" fill="#e8a0a0" d="M 13.5,29.5 C 14.1667,29.5 14.8333,29.5 15.5,29.5C 14.6993,31.0418 14.366,32.7085 14.5,34.5C 16.8333,34.5 19.1667,34.5 21.5,34.5C 21.5,32.8333 21.5,31.1667 21.5,29.5C 22.4614,31.2646 22.7947,33.2646 22.5,35.5C 19.5,35.5 16.5,35.5 13.5,35.5C 13.5,33.5 13.5,31.5 13.5,29.5 Z"/></g>
<g><path style="opacity:1" fill="#e6a2a0" d="M 33.5,29.5 C 35.3079,30.9179 35.9746,32.9179 35.5,35.5C 32.6146,35.8064 29.9479,35.4731 27.5,34.5C 29.8333,34.5 32.1667,34.5 34.5,34.5C 34.634,32.7085 34.3007,31.0418 33.5,29.5 Z"/></g>
</svg>
