<?xml version="1.0" encoding="UTF-8"?>
<!DOCTYPE svg PUBLIC "-//W3C//DTD SVG 1.1//EN" "http://www.w3.org/Graphics/SVG/1.1/DTD/svg11.dtd">
<svg xmlns="http://www.w3.org/2000/svg" version="1.1" width="50px" height="50px" style="shape-rendering:geometricPrecision; text-rendering:geometricPrecision; image-rendering:optimizeQuality; fill-rule:evenodd; clip-rule:evenodd" xmlns:xlink="http://www.w3.org/1999/xlink">
<g><path style="opacity:1" fill="#fbfbfc" d="M -0.5,-0.5 C 16.1667,-0.5 32.8333,-0.5 49.5,-0.5C 49.5,16.1667 49.5,32.8333 49.5,49.5C 32.8333,49.5 16.1667,49.5 -0.5,49.5C -0.5,32.8333 -0.5,16.1667 -0.5,-0.5 Z"/></g>
<g><path style="opacity:1" fill="#1f3051" d="M 11.5,18.5 C 11.6893,22.037 11.0226,25.3703 9.5,28.5C 8.01011,30.2798 6.01011,30.9465 3.5,30.5C 2.25106,23.621 4.91772,19.621 11.5,18.5 Z"/></g>
<g><path style="opacity:1" fill="#e2e4e8" d="M 8.5,20.5 C 9.37644,20.3691 10.0431,20.7025 10.5,21.5C 9.69386,24.4456 8.36053,27.1123 6.5,29.5C 5.12019,26.0675 5.78686,23.0675 8.5,20.5 Z"/></g>
<g><path style="opacity:1" fill="#b9c0c9" d="M 33.5,21.5 C 34.9587,21.4326 36.2921,21.7659 37.5,22.5C 36.2498,24.9324 34.7498,27.2657 33,29.5C 32.884,27.3454 33.2173,25.3454 34,23.5C 32.1706,25.1558 30.8372,27.1558 30,29.5C 29.7965,26.2398 30.9632,23.5731 33.5,21.5 Z"/></g>
<g><path style="opacity:1" fill="#40506b" d="M 11.5,18.5 C 12.2679,19.2625 12.7679,20.2625 13,21.5C 16.3338,17.1843 17.5005,17.5176 16.5,22.5C 17.325,23.3857 18.325,23.719 19.5,23.5C 19.607,25.9032 18.607,27.7365 16.5,29C 17.1667,29.3333 17.8333,29.6667 18.5,30C 15.1562,30.9065 12.1562,30.4065 9.5,28.5C 11.0226,25.3703 11.6893,22.037 11.5,18.5 Z"/></g>
<g><path style="opacity:1" fill="#afb5c1" d="M 12.5,27.5 C 14.337,27.6395 14.6704,28.3061 13.5,29.5C 12.7025,29.0431 12.3691,28.3764 12.5,27.5 Z"/></g>
<g><path style="opacity:1" fill="#273857" d="M 33.5,21.5 C 30.9632,23.5731 29.7965,26.2398 30,29.5C 30.8372,27.1558 32.1706,25.1558 34,23.5C 33.2173,25.3454 32.884,27.3454 33,29.5C 34.7498,27.2657 36.2498,24.9324 37.5,22.5C 39.1171,23.5893 39.9504,25.256 40,27.5C 41.093,25.6508 42.4263,23.9842 44,22.5C 44.0674,25.047 44.9007,27.2137 46.5,29C 46.1667,29.3333 45.8333,29.6667 45.5,30C 39.5092,30.4995 33.5092,30.6662 27.5,30.5C 30.3115,21.7777 29.6448,21.4444 25.5,29.5C 24.9033,29.2648 24.5699,28.7648 24.5,28C 26.921,21.0045 26.5877,20.8378 23.5,27.5C 22.2101,28.0577 21.3768,29.0577 21,30.5C 20.7118,26.726 21.8785,23.3927 24.5,20.5C 23.1667,20.1667 21.8333,19.8333 20.5,19.5C 24.8499,19.8221 29.0166,19.4887 33,18.5C 34.6833,19.1765 34.8499,20.1765 33.5,21.5 Z"/></g>
<g><path style="opacity:1" fill="#56667c" d="M 25.5,29.5 C 25.44,30.0431 25.1067,30.3764 24.5,30.5C 23.6143,29.675 23.281,28.675 23.5,27.5C 26.5877,20.8378 26.921,21.0045 24.5,28C 24.5699,28.7648 24.9033,29.2648 25.5,29.5 Z"/></g>
</svg>
