<?xml version="1.0" encoding="UTF-8"?>
<!DOCTYPE svg PUBLIC "-//W3C//DTD SVG 1.1//EN" "http://www.w3.org/Graphics/SVG/1.1/DTD/svg11.dtd">
<svg xmlns="http://www.w3.org/2000/svg" version="1.1" width="50px" height="50px" style="shape-rendering:geometricPrecision; text-rendering:geometricPrecision; image-rendering:optimizeQuality; fill-rule:evenodd; clip-rule:evenodd" xmlns:xlink="http://www.w3.org/1999/xlink">
<g><path style="opacity:1" fill="#f7f9fa" d="M -0.5,-0.5 C 16.1667,-0.5 32.8333,-0.5 49.5,-0.5C 49.5,16.1667 49.5,32.8333 49.5,49.5C 32.8333,49.5 16.1667,49.5 -0.5,49.5C -0.5,32.8333 -0.5,16.1667 -0.5,-0.5 Z"/></g>
<g><path style="opacity:1" fill="#677aa3" d="M 14.5,2.5 C 12.4855,3.92381 10.1522,4.59047 7.5,4.5C 9.51451,3.07619 11.8478,2.40953 14.5,2.5 Z"/></g>
<g><path style="opacity:1" fill="#96bbe3" d="M 24.5,32.5 C 21.5817,30.1232 18.4151,28.1232 15,26.5C 13.5549,29.0904 12.3882,31.757 11.5,34.5C 10.8529,33.7261 10.5195,32.7261 10.5,31.5C 12.7195,27.5199 13.8861,23.1865 14,18.5C 14.7065,20.0806 15.5399,21.5806 16.5,23C 24.0126,22.2158 26.6793,25.3825 24.5,32.5 Z"/></g>
<g><path style="opacity:1" fill="#254480" d="M 14.5,2.5 C 21.8409,2.33368 29.1742,2.50034 36.5,3C 39.365,3.83683 42.1983,4.67016 45,5.5C 48.7287,20.1744 44.8953,32.341 33.5,42C 32.552,42.4828 31.552,42.6495 30.5,42.5C 30.0133,41.5266 29.5133,40.5266 29,39.5C 25.9457,41.3663 24.4457,44.033 24.5,47.5C 19.7745,45.377 15.6079,42.377 12,38.5C 11.51,37.2068 11.3433,35.8734 11.5,34.5C 12.3882,31.757 13.5549,29.0904 15,26.5C 18.4151,28.1232 21.5817,30.1232 24.5,32.5C 26.8268,32.3354 28.9935,31.6687 31,30.5C 31.7172,31.0442 32.2172,31.7109 32.5,32.5C 34.7409,31.7002 35.7409,30.0336 35.5,27.5C 35.5,25.8333 35.5,24.1667 35.5,22.5C 35.1667,21.1667 34.8333,19.8333 34.5,18.5C 35.2389,18.631 35.9056,18.4643 36.5,18C 35.8767,15.3927 35.21,12.8927 34.5,10.5C 28.1205,11.598 21.9538,10.9314 16,8.5C 15.2352,8.56993 14.7352,8.90326 14.5,9.5C 12.7202,10.9899 12.0535,12.9899 12.5,15.5C 9.22884,19.4599 7.56218,24.1265 7.5,29.5C 6.64056,30.7742 5.97389,30.6075 5.5,29C 3.45693,21.3207 2.95693,13.4874 4,5.5C 5.01127,4.66337 6.17793,4.33003 7.5,4.5C 10.1522,4.59047 12.4855,3.92381 14.5,2.5 Z"/></g>
<g><path style="opacity:1" fill="#3c5689" d="M 34.5,27.5 C 33.2502,27.5774 32.4169,28.244 32,29.5C 31.5831,28.244 30.7498,27.5774 29.5,27.5C 29.7911,26.3509 30.6244,25.6842 32,25.5C 33.3756,25.6842 34.2089,26.3509 34.5,27.5 Z"/></g>
<g><path style="opacity:1" fill="#bcd1e7" d="M 25.5,19.5 C 26.1667,19.5 26.8333,19.5 27.5,19.5C 28.6006,20.8484 29.6006,22.3484 30.5,24C 32.3302,24.1816 33.9969,23.6816 35.5,22.5C 35.5,24.1667 35.5,25.8333 35.5,27.5C 35.1667,27.5 34.8333,27.5 34.5,27.5C 34.2089,26.3509 33.3756,25.6842 32,25.5C 30.6244,25.6842 29.7911,26.3509 29.5,27.5C 28.7428,24.5724 27.4095,21.9058 25.5,19.5 Z"/></g>
<g><path style="opacity:1" fill="#99a8c0" d="M 34.5,10.5 C 35.21,12.8927 35.8767,15.3927 36.5,18C 35.9056,18.4643 35.2389,18.631 34.5,18.5C 34.5,17.8333 34.5,17.1667 34.5,16.5C 34.5,15.8333 34.5,15.1667 34.5,14.5C 34.6716,13.5084 34.3382,12.8417 33.5,12.5C 33.8333,11.8333 34.1667,11.1667 34.5,10.5 Z"/></g>
<g><path style="opacity:1" fill="#566c96" d="M 34.5,16.5 C 34.5,17.1667 34.5,17.8333 34.5,18.5C 33.2502,18.5774 32.4169,19.244 32,20.5C 31.51,19.2068 31.3433,17.8734 31.5,16.5C 32.5,16.5 33.5,16.5 34.5,16.5 Z"/></g>
<g><path style="opacity:1" fill="#526896" d="M 27.5,19.5 C 26.8333,19.5 26.1667,19.5 25.5,19.5C 24.7494,18.4265 23.7494,18.2599 22.5,19C 23.4506,19.7175 23.6172,20.5509 23,21.5C 18.5217,19.3883 18.8551,17.7217 24,16.5C 26.2747,16.2776 27.4413,17.2776 27.5,19.5 Z"/></g>
<g><path style="opacity:1" fill="#8e9ebc" d="M 14.5,9.5 C 15.4916,9.32842 16.1583,9.66175 16.5,10.5C 14.9519,10.8212 14.2852,11.8212 14.5,13.5C 13.8333,14.1667 13.1667,14.8333 12.5,15.5C 12.0535,12.9899 12.7202,10.9899 14.5,9.5 Z"/></g>
<g><path style="opacity:1" fill="#2f4e82" d="M 33.5,12.5 C 34.3382,12.8417 34.6716,13.5084 34.5,14.5C 32.5759,14.2893 32.2426,13.6226 33.5,12.5 Z"/></g>
<g><path style="opacity:1" fill="#2c4881" d="M 16.5,10.5 C 18.0376,12.5514 17.7043,14.218 15.5,15.5C 14.7025,15.0431 14.3691,14.3764 14.5,13.5C 14.2852,11.8212 14.9519,10.8212 16.5,10.5 Z"/></g>
<g><path style="opacity:1" fill="#d9dfe8" d="M 32.5,32.5 C 32.5858,33.4959 32.2524,34.3292 31.5,35C 29.7412,35.7975 28.0745,35.6309 26.5,34.5C 28.1727,32.9137 30.1727,32.2471 32.5,32.5 Z"/></g>
<g><path style="opacity:1" fill="#9cbfe5" d="M 30.5,42.5 C 29.34,45.0922 27.34,46.7589 24.5,47.5C 24.4457,44.033 25.9457,41.3663 29,39.5C 29.5133,40.5266 30.0133,41.5266 30.5,42.5 Z"/></g>
</svg>
