<?xml version="1.0" encoding="UTF-8"?>
<!DOCTYPE svg PUBLIC "-//W3C//DTD SVG 1.1//EN" "http://www.w3.org/Graphics/SVG/1.1/DTD/svg11.dtd">
<svg xmlns="http://www.w3.org/2000/svg" version="1.1" width="50px" height="50px" style="shape-rendering:geometricPrecision; text-rendering:geometricPrecision; image-rendering:optimizeQuality; fill-rule:evenodd; clip-rule:evenodd" xmlns:xlink="http://www.w3.org/1999/xlink">
<g><path style="opacity:1" fill="#fefefe" d="M -0.5,-0.5 C 16.1667,-0.5 32.8333,-0.5 49.5,-0.5C 49.5,16.1667 49.5,32.8333 49.5,49.5C 32.8333,49.5 16.1667,49.5 -0.5,49.5C -0.5,32.8333 -0.5,16.1667 -0.5,-0.5 Z"/></g>
<g><path style="opacity:1" fill="#afabad" d="M 9.5,5.5 C 19.3247,4.34174 29.3247,4.17508 39.5,5C 40.8279,13.5983 40.8279,22.0983 39.5,30.5C 39.8222,24.642 39.4889,18.9753 38.5,13.5C 37.8333,13.5 37.1667,13.5 36.5,13.5C 36.8333,12.8333 37.1667,12.1667 37.5,11.5C 38.5983,10.3991 38.765,9.06574 38,7.5C 36.3845,6.19914 34.8845,6.19914 33.5,7.5C 33.5,8.16667 33.1667,8.5 32.5,8.5C 32.5,7.16667 31.8333,6.5 30.5,6.5C 29.8333,6.5 29.1667,6.5 28.5,6.5C 27.8333,6.5 27.1667,6.5 26.5,6.5C 26.1667,6.5 25.8333,6.5 25.5,6.5C 24.8333,6.5 24.1667,6.5 23.5,6.5C 23.1667,6.5 22.8333,6.5 22.5,6.5C 21.8333,6.5 21.1667,6.5 20.5,6.5C 19.8333,6.5 19.1667,6.5 18.5,6.5C 17.1667,6.5 16.5,7.16667 16.5,8.5C 15.8333,8.5 15.5,8.16667 15.5,7.5C 13.9504,6.28006 12.2837,6.28006 10.5,7.5C 10.6716,6.50838 10.3382,5.84171 9.5,5.5 Z"/></g>
<g><path style="opacity:1" fill="#e03a4c" d="M 18.5,6.5 C 19.4731,8.06831 19.6397,9.73498 19,11.5C 18.6232,10.0577 17.7899,9.05773 16.5,8.5C 16.5,7.16667 17.1667,6.5 18.5,6.5 Z"/></g>
<g><path style="opacity:1" fill="#e24556" d="M 30.5,6.5 C 31.8333,6.5 32.5,7.16667 32.5,8.5C 30.8639,9.74894 29.6972,11.4156 29,13.5C 28.7607,11.0405 29.2607,8.70717 30.5,6.5 Z"/></g>
<g><path style="opacity:1" fill="#e01f36" d="M 33.5,7.5 C 34.552,7.35055 35.552,7.51722 36.5,8C 35.3333,9.16667 34.1667,10.3333 33,11.5C 32.6012,11.2716 32.4346,10.9382 32.5,10.5C 32.5,9.83333 32.5,9.16667 32.5,8.5C 33.1667,8.5 33.5,8.16667 33.5,7.5 Z"/></g>
<g><path style="opacity:1" fill="#ed8c98" d="M 15.5,7.5 C 14.448,7.35055 13.448,7.51722 12.5,8C 14.0414,9.37121 15.3747,10.8712 16.5,12.5C 15.089,14.539 13.089,15.539 10.5,15.5C 10.5,14.1667 11.1667,13.5 12.5,13.5C 13.3764,13.6309 14.0431,13.2975 14.5,12.5C 13.2855,9.74094 12.2855,9.40761 11.5,11.5C 10.5655,10.4324 10.2322,9.09903 10.5,7.5C 12.2837,6.28006 13.9504,6.28006 15.5,7.5 Z"/></g>
<g><path style="opacity:1" fill="#e13c4b" d="M 15.5,7.5 C 15.5,8.16667 15.8333,8.5 16.5,8.5C 17.3497,10.4944 17.8497,12.4944 18,14.5C 17.2828,13.9558 16.7828,13.2891 16.5,12.5C 15.3747,10.8712 14.0414,9.37121 12.5,8C 13.448,7.51722 14.448,7.35055 15.5,7.5 Z"/></g>
<g><path style="opacity:1" fill="#ec8494" d="M 33.5,7.5 C 34.8845,6.19914 36.3845,6.19914 38,7.5C 38.765,9.06574 38.5983,10.3991 37.5,11.5C 37.631,10.7611 37.4643,10.0944 37,9.5C 35.9609,10.7101 34.7942,11.7101 33.5,12.5C 29.9729,14.7986 29.6396,14.1319 32.5,10.5C 32.4346,10.9382 32.6012,11.2716 33,11.5C 34.1667,10.3333 35.3333,9.16667 36.5,8C 35.552,7.51722 34.552,7.35055 33.5,7.5 Z"/></g>
<g><path style="opacity:1" fill="#df2b3e" d="M 12.5,13.5 C 12.1667,12.8333 11.8333,12.1667 11.5,11.5C 12.2855,9.40761 13.2855,9.74094 14.5,12.5C 14.0431,13.2975 13.3764,13.6309 12.5,13.5 Z"/></g>
<g><path style="opacity:1" fill="#e23746" d="M 37.5,11.5 C 37.1667,12.1667 36.8333,12.8333 36.5,13.5C 35.8333,13.5 35.5,13.8333 35.5,14.5C 34.1667,14.5 33.5,13.8333 33.5,12.5C 34.7942,11.7101 35.9609,10.7101 37,9.5C 37.4643,10.0944 37.631,10.7611 37.5,11.5 Z"/></g>
<g><path style="opacity:1" fill="#f5ced4" d="M 18.5,6.5 C 19.1667,6.5 19.8333,6.5 20.5,6.5C 21.7821,14.3726 22.4488,14.3726 22.5,6.5C 22.8333,6.5 23.1667,6.5 23.5,6.5C 24.1667,13.1667 24.8333,13.1667 25.5,6.5C 25.8333,6.5 26.1667,6.5 26.5,6.5C 26.5512,14.3726 27.2179,14.3726 28.5,6.5C 29.1667,6.5 29.8333,6.5 30.5,6.5C 29.2607,8.70717 28.7607,11.0405 29,13.5C 29.6972,11.4156 30.8639,9.74894 32.5,8.5C 32.5,9.16667 32.5,9.83333 32.5,10.5C 29.6396,14.1319 29.9729,14.7986 33.5,12.5C 33.5,13.8333 34.1667,14.5 35.5,14.5C 35.5,15.1667 35.5,15.8333 35.5,16.5C 32.1667,16.5 28.8333,16.5 25.5,16.5C 24.8333,16.5 24.1667,16.5 23.5,16.5C 19.5,16.5 15.5,16.5 11.5,16.5C 11.5,21.1667 11.5,25.8333 11.5,30.5C 10.5128,25.6946 10.1795,20.6946 10.5,15.5C 13.089,15.539 15.089,14.539 16.5,12.5C 16.7828,13.2891 17.2828,13.9558 18,14.5C 17.8497,12.4944 17.3497,10.4944 16.5,8.5C 17.7899,9.05773 18.6232,10.0577 19,11.5C 19.6397,9.73498 19.4731,8.06831 18.5,6.5 Z"/></g>
<g><path style="opacity:1" fill="#e77784" d="M 23.5,6.5 C 24.1667,6.5 24.8333,6.5 25.5,6.5C 24.8333,13.1667 24.1667,13.1667 23.5,6.5 Z"/></g>
<g><path style="opacity:1" fill="#e34255" d="M 20.5,6.5 C 21.1667,6.5 21.8333,6.5 22.5,6.5C 22.4488,14.3726 21.7821,14.3726 20.5,6.5 Z"/></g>
<g><path style="opacity:1" fill="#e34659" d="M 26.5,6.5 C 27.1667,6.5 27.8333,6.5 28.5,6.5C 27.2179,14.3726 26.5512,14.3726 26.5,6.5 Z"/></g>
<g><path style="opacity:1" fill="#9b9495" d="M 9.5,5.5 C 10.3382,5.84171 10.6716,6.50838 10.5,7.5C 10.2322,9.09903 10.5655,10.4324 11.5,11.5C 11.8333,12.1667 12.1667,12.8333 12.5,13.5C 11.1667,13.5 10.5,14.1667 10.5,15.5C 10.1795,20.6946 10.5128,25.6946 11.5,30.5C 12.9255,36.9238 16.9255,40.5904 23.5,41.5C 24.1667,41.5 24.8333,41.5 25.5,41.5C 32.0839,40.5805 36.0839,36.9138 37.5,30.5C 38.4889,25.0247 38.8222,19.358 38.5,13.5C 39.4889,18.9753 39.8222,24.642 39.5,30.5C 38.5346,36.9697 34.8679,41.1363 28.5,43C 18.5339,44.2658 12.0339,40.0991 9,30.5C 8.17678,21.9896 8.34345,13.6563 9.5,5.5 Z"/></g>
<g><path style="opacity:1" fill="#e12039" d="M 25.5,16.5 C 28.8333,16.5 32.1667,16.5 35.5,16.5C 37.4364,20.7147 38.1031,25.3814 37.5,30.5C 36.0839,36.9138 32.0839,40.5805 25.5,41.5C 25.5,33.1667 25.5,24.8333 25.5,16.5 Z"/></g>
<g><path style="opacity:1" fill="#db7384" d="M 27.5,21.5 C 27.5,23.5 27.5,25.5 27.5,27.5C 30.1667,27.5 32.8333,27.5 35.5,27.5C 35.5,25.5 35.5,23.5 35.5,21.5C 36.9217,24.6636 36.4217,27.6636 34,30.5C 32.3333,27.8333 30.6667,27.8333 29,30.5C 26.5783,27.6636 26.0783,24.6636 27.5,21.5 Z"/></g>
<g><path style="opacity:1" fill="#e9bcc4" d="M 27.5,21.5 C 30.1667,21.5 32.8333,21.5 35.5,21.5C 35.5,23.5 35.5,25.5 35.5,27.5C 32.8333,27.5 30.1667,27.5 27.5,27.5C 27.5,25.5 27.5,23.5 27.5,21.5 Z"/></g>
<g><path style="opacity:1" fill="#f28e9d" d="M 36.5,13.5 C 37.1667,13.5 37.8333,13.5 38.5,13.5C 38.8222,19.358 38.4889,25.0247 37.5,30.5C 38.1031,25.3814 37.4364,20.7147 35.5,16.5C 35.5,15.8333 35.5,15.1667 35.5,14.5C 35.5,13.8333 35.8333,13.5 36.5,13.5 Z"/></g>
<g><path style="opacity:1" fill="#e86e81" d="M 23.5,16.5 C 24.1667,16.5 24.8333,16.5 25.5,16.5C 25.5,24.8333 25.5,33.1667 25.5,41.5C 24.8333,41.5 24.1667,41.5 23.5,41.5C 23.5,33.1667 23.5,24.8333 23.5,16.5 Z"/></g>
<g><path style="opacity:1" fill="#e01b36" d="M 23.5,16.5 C 23.5,24.8333 23.5,33.1667 23.5,41.5C 16.9255,40.5904 12.9255,36.9238 11.5,30.5C 11.5,25.8333 11.5,21.1667 11.5,16.5C 15.5,16.5 19.5,16.5 23.5,16.5 Z"/></g>
<g><path style="opacity:1" fill="#df5266" d="M 13.5,25.5 C 15.8741,27.7268 18.5408,28.0602 21.5,26.5C 21.5,28.1667 21.5,29.8333 21.5,31.5C 18.7284,30.6285 16.0618,30.6285 13.5,31.5C 13.5,29.5 13.5,27.5 13.5,25.5 Z"/></g>
<g><path style="opacity:1" fill="#e98b98" d="M 21.5,26.5 C 18.5408,28.0602 15.8741,27.7268 13.5,25.5C 12.6971,24.5768 12.5304,23.5768 13,22.5C 14.6934,21.8155 16.1934,20.8155 17.5,19.5C 19.026,20.9056 20.6927,22.0723 22.5,23C 21.6634,24.0113 21.33,25.1779 21.5,26.5 Z"/></g>
<g><path style="opacity:1" fill="#de1530" d="M 18.5,22.5 C 20.337,22.6395 20.6704,23.3061 19.5,24.5C 18.7025,24.0431 18.3691,23.3764 18.5,22.5 Z"/></g>
</svg>
