<?xml version="1.0" encoding="UTF-8"?>
<!DOCTYPE svg PUBLIC "-//W3C//DTD SVG 1.1//EN" "http://www.w3.org/Graphics/SVG/1.1/DTD/svg11.dtd">
<svg xmlns="http://www.w3.org/2000/svg" version="1.1" width="50px" height="50px" style="shape-rendering:geometricPrecision; text-rendering:geometricPrecision; image-rendering:optimizeQuality; fill-rule:evenodd; clip-rule:evenodd" xmlns:xlink="http://www.w3.org/1999/xlink">
<g><path style="opacity:1" fill="#142555" d="M -0.5,-0.5 C 16.1667,-0.5 32.8333,-0.5 49.5,-0.5C 49.5,2.83333 49.5,6.16667 49.5,9.5C 32.9567,9.29795 16.29,9.63129 -0.5,10.5C -0.5,6.83333 -0.5,3.16667 -0.5,-0.5 Z"/></g>
<g><path style="opacity:1" fill="#172550" d="M 49.5,9.5 C 49.5,11.5 49.5,13.5 49.5,15.5C 47.1432,15.3367 44.8098,15.5034 42.5,16C 43.6841,17.1803 44.3507,18.6803 44.5,20.5C 44.4892,22.0451 44.1558,23.3784 43.5,24.5C 43.6633,22.1432 43.4966,19.8098 43,17.5C 42.6667,19.1667 42.3333,20.8333 42,22.5C 41.6174,21.944 41.1174,21.6107 40.5,21.5C 40.4456,19.368 39.4456,18.0347 37.5,17.5C 36.8333,17.5 36.1667,17.5 35.5,17.5C 34.71,18.6085 34.21,19.9419 34,21.5C 32.6927,19.8082 31.1927,18.4749 29.5,17.5C 28.8333,17.5 28.1667,17.5 27.5,17.5C 25.5,17.5 23.5,17.5 21.5,17.5C 20.8333,17.5 20.1667,17.5 19.5,17.5C 17.2646,17.2053 15.2646,17.5386 13.5,18.5C 12.8333,18.1667 12.1667,17.8333 11.5,17.5C 10.5386,19.2646 10.2053,21.2646 10.5,23.5C 9.16667,23.5 7.83333,23.5 6.5,23.5C 6.66212,21.4727 6.49546,19.4727 6,17.5C 5.50335,19.8098 5.33669,22.1432 5.5,24.5C 4.74629,21.9773 4.07963,19.3106 3.5,16.5C 2.31116,15.5713 0.977822,15.238 -0.5,15.5C -0.5,13.8333 -0.5,12.1667 -0.5,10.5C 16.29,9.63129 32.9567,9.29795 49.5,9.5 Z"/></g>
<g><path style="opacity:1" fill="#08163a" d="M -0.5,15.5 C 0.977822,15.238 2.31116,15.5713 3.5,16.5C 4.07963,19.3106 4.74629,21.9773 5.5,24.5C 7.38879,25.7416 9.38879,25.7416 11.5,24.5C 12.1667,24.5 12.8333,24.5 13.5,24.5C 15.5,25.8333 17.5,25.8333 19.5,24.5C 20.1667,24.5 20.8333,24.5 21.5,24.5C 22.9187,25.4511 24.5853,25.7845 26.5,25.5C 28.1667,25.5 29.8333,25.5 31.5,25.5C 31.2627,24.209 31.596,23.209 32.5,22.5C 32.8333,23.1667 33.1667,23.8333 33.5,24.5C 35.1667,25.8333 36.8333,25.8333 38.5,24.5C 38.3433,23.1266 38.51,21.7932 39,20.5C 39.3826,21.056 39.8826,21.3893 40.5,21.5C 40.5,23.5 41.5,24.5 43.5,24.5C 44.1558,23.3784 44.4892,22.0451 44.5,20.5C 44.3507,18.6803 43.6841,17.1803 42.5,16C 44.8098,15.5034 47.1432,15.3367 49.5,15.5C 49.5,22.1667 49.5,28.8333 49.5,35.5C 42.3315,36.7629 34.9981,37.4296 27.5,37.5C 20.0615,37.4301 12.7282,36.7635 5.5,35.5C 3.66634,36.7545 1.66634,37.4211 -0.5,37.5C -0.5,30.1667 -0.5,22.8333 -0.5,15.5 Z"/></g>
<g><path style="opacity:1" fill="#c9ccd2" d="M 30.5,28.5 C 31.2506,27.4265 32.2506,27.2599 33.5,28C 32.8095,29.0674 32.3095,30.2341 32,31.5C 31.7679,30.2625 31.2679,29.2625 30.5,28.5 Z"/></g>
<g><path style="opacity:1" fill="#a9adb8" d="M 21.5,27.5 C 23.1207,27.7869 24.1207,28.7869 24.5,30.5C 23.1667,31.8333 21.8333,31.8333 20.5,30.5C 21.1272,29.5832 21.4606,28.5832 21.5,27.5 Z"/></g>
<g><path style="opacity:1" fill="#bcc0cc" d="M 35.5,27.5 C 36.4728,28.7914 37.4728,28.7914 38.5,27.5C 39.6139,28.723 39.7805,30.0563 39,31.5C 38,30.1667 37,30.1667 36,31.5C 35.51,30.2068 35.3433,28.8734 35.5,27.5 Z"/></g>
<g><path style="opacity:1" fill="#d2d6dd" d="M 11.5,17.5 C 11.5,19.8333 11.5,22.1667 11.5,24.5C 9.38879,25.7416 7.38879,25.7416 5.5,24.5C 5.33669,22.1432 5.50335,19.8098 6,17.5C 6.49546,19.4727 6.66212,21.4727 6.5,23.5C 7.83333,23.5 9.16667,23.5 10.5,23.5C 10.2053,21.2646 10.5386,19.2646 11.5,17.5 Z"/></g>
<g><path style="opacity:1" fill="#f5f7f7" d="M 43.5,24.5 C 41.5,24.5 40.5,23.5 40.5,21.5C 41.1174,21.6107 41.6174,21.944 42,22.5C 42.3333,20.8333 42.6667,19.1667 43,17.5C 43.4966,19.8098 43.6633,22.1432 43.5,24.5 Z"/></g>
<g><path style="opacity:1" fill="#5f6a82" d="M 19.5,17.5 C 20.1667,17.5 20.8333,17.5 21.5,17.5C 21.5,19.8333 21.5,22.1667 21.5,24.5C 20.8333,24.5 20.1667,24.5 19.5,24.5C 19.6716,23.5084 19.3382,22.8417 18.5,22.5C 18.9175,21.7784 19.5842,21.2784 20.5,21C 20.2716,20.6012 19.9382,20.4346 19.5,20.5C 19.5,19.5 19.5,18.5 19.5,17.5 Z"/></g>
<g><path style="opacity:1" fill="#0f1b43" d="M 18.5,20.5 C 18.8333,20.5 19.1667,20.5 19.5,20.5C 19.9382,20.4346 20.2716,20.6012 20.5,21C 19.5842,21.2784 18.9175,21.7784 18.5,22.5C 17.791,23.404 16.791,23.7373 15.5,23.5C 15.1205,20.4331 16.1205,19.4331 18.5,20.5 Z"/></g>
<g><path style="opacity:1" fill="#57617a" d="M 18.5,20.5 C 16.1205,19.4331 15.1205,20.4331 15.5,23.5C 14.5489,22.0813 14.2155,20.4147 14.5,18.5C 16.4832,18.1568 17.8166,18.8235 18.5,20.5 Z"/></g>
<g><path style="opacity:1" fill="#6a738b" d="M 35.5,17.5 C 36.1667,17.5 36.8333,17.5 37.5,17.5C 37.1984,20.0593 37.5318,22.3926 38.5,24.5C 36.8333,25.8333 35.1667,25.8333 33.5,24.5C 35.3435,22.7211 36.0102,20.3878 35.5,17.5 Z"/></g>
<g><path style="opacity:1" fill="#e4e6e9" d="M 29.5,17.5 C 31.1927,18.4749 32.6927,19.8082 34,21.5C 34.21,19.9419 34.71,18.6085 35.5,17.5C 36.0102,20.3878 35.3435,22.7211 33.5,24.5C 33.1667,23.8333 32.8333,23.1667 32.5,22.5C 32.2172,21.7109 31.7172,21.0442 31,20.5C 30.6667,21.8333 30.3333,23.1667 30,24.5C 29.5034,22.1902 29.3367,19.8568 29.5,17.5 Z"/></g>
<g><path style="opacity:1" fill="#5f6881" d="M 27.5,17.5 C 28.1667,17.5 28.8333,17.5 29.5,17.5C 29.3367,19.8568 29.5034,22.1902 30,24.5C 30.3333,23.1667 30.6667,21.8333 31,20.5C 31.7172,21.0442 32.2172,21.7109 32.5,22.5C 31.596,23.209 31.2627,24.209 31.5,25.5C 29.8333,25.5 28.1667,25.5 26.5,25.5C 27.388,22.9455 27.7214,20.2788 27.5,17.5 Z"/></g>
<g><path style="opacity:1" fill="#727c92" d="M 11.5,17.5 C 12.1667,17.8333 12.8333,18.1667 13.5,18.5C 13.5,20.5 13.5,22.5 13.5,24.5C 12.8333,24.5 12.1667,24.5 11.5,24.5C 11.5,22.1667 11.5,19.8333 11.5,17.5 Z"/></g>
<g><path style="opacity:1" fill="#eff0f2" d="M 37.5,17.5 C 39.4456,18.0347 40.4456,19.368 40.5,21.5C 39.8826,21.3893 39.3826,21.056 39,20.5C 38.51,21.7932 38.3433,23.1266 38.5,24.5C 37.5318,22.3926 37.1984,20.0593 37.5,17.5 Z"/></g>
<g><path style="opacity:1" fill="#e8eaed" d="M 21.5,17.5 C 23.5,17.5 25.5,17.5 27.5,17.5C 27.7214,20.2788 27.388,22.9455 26.5,25.5C 24.5853,25.7845 22.9187,25.4511 21.5,24.5C 21.5,22.1667 21.5,19.8333 21.5,17.5 Z"/></g>
<g><path style="opacity:1" fill="#535c77" d="M 25.5,23.5 C 24.8333,18.1667 24.1667,18.1667 23.5,23.5C 22.5489,22.0813 22.2155,20.4147 22.5,18.5C 23.8333,18.5 25.1667,18.5 26.5,18.5C 26.7845,20.4147 26.4511,22.0813 25.5,23.5 Z"/></g>
<g><path style="opacity:1" fill="#001039" d="M 25.5,23.5 C 24.8333,23.5 24.1667,23.5 23.5,23.5C 24.1667,18.1667 24.8333,18.1667 25.5,23.5 Z"/></g>
<g><path style="opacity:1" fill="#e8eaed" d="M 19.5,17.5 C 19.5,18.5 19.5,19.5 19.5,20.5C 19.1667,20.5 18.8333,20.5 18.5,20.5C 17.8166,18.8235 16.4832,18.1568 14.5,18.5C 14.2155,20.4147 14.5489,22.0813 15.5,23.5C 16.791,23.7373 17.791,23.404 18.5,22.5C 19.3382,22.8417 19.6716,23.5084 19.5,24.5C 17.5,25.8333 15.5,25.8333 13.5,24.5C 13.5,22.5 13.5,20.5 13.5,18.5C 15.2646,17.5386 17.2646,17.2053 19.5,17.5 Z"/></g>
<g><path style="opacity:1" fill="#c3c8cf" d="M 9.5,27.5 C 10.6879,28.6843 11.8545,28.6843 13,27.5C 13.6667,28.8333 13.6667,30.1667 13,31.5C 12,30.1667 11,30.1667 10,31.5C 9.50999,30.2068 9.34332,28.8734 9.5,27.5 Z"/></g>
<g><path style="opacity:1" fill="#969cab" d="M 15.5,27.5 C 18.5983,27.4125 18.9316,27.9125 16.5,29C 17.9733,29.7096 18.6399,30.8762 18.5,32.5C 17.5,32.5 16.5,32.5 15.5,32.5C 15.5,30.8333 15.5,29.1667 15.5,27.5 Z"/></g>
<g><path style="opacity:1" fill="#8b91a0" d="M 26.5,27.5 C 27.3063,28.8675 28.3063,30.2008 29.5,31.5C 28.675,32.3857 27.675,32.719 26.5,32.5C 26.5,30.8333 26.5,29.1667 26.5,27.5 Z"/></g>
<g><path style="opacity:1" fill="#000e2f" d="M 49.5,35.5 C 49.5,40.1667 49.5,44.8333 49.5,49.5C 32.8333,49.5 16.1667,49.5 -0.5,49.5C -0.5,45.5 -0.5,41.5 -0.5,37.5C 1.66634,37.4211 3.66634,36.7545 5.5,35.5C 12.7282,36.7635 20.0615,37.4301 27.5,37.5C 34.9981,37.4296 42.3315,36.7629 49.5,35.5 Z"/></g>
</svg>
