<?xml version="1.0" encoding="UTF-8"?>
<!DOCTYPE svg PUBLIC "-//W3C//DTD SVG 1.1//EN" "http://www.w3.org/Graphics/SVG/1.1/DTD/svg11.dtd">
<svg xmlns="http://www.w3.org/2000/svg" version="1.1" width="50px" height="50px" style="shape-rendering:geometricPrecision; text-rendering:geometricPrecision; image-rendering:optimizeQuality; fill-rule:evenodd; clip-rule:evenodd" xmlns:xlink="http://www.w3.org/1999/xlink">
<g><path style="opacity:1" fill="#f5f9fa" d="M -0.5,-0.5 C 16.1667,-0.5 32.8333,-0.5 49.5,-0.5C 49.5,16.1667 49.5,32.8333 49.5,49.5C 32.8333,49.5 16.1667,49.5 -0.5,49.5C -0.5,32.8333 -0.5,16.1667 -0.5,-0.5 Z"/></g>
<g><path style="opacity:1" fill="#0d69ab" d="M 18.5,1.5 C 41.1702,0.665493 50.3369,11.3322 46,33.5C 38.3566,47.0493 27.19,50.8827 12.5,45C 1.21395,36.508 -1.61938,25.6746 4,12.5C 7.56218,6.98849 12.3955,3.32182 18.5,1.5 Z"/></g>
<g><path style="opacity:1" fill="#a2c9dd" d="M 18.5,10.5 C 18.1667,10.5 17.8333,10.5 17.5,10.5C 16.8333,9.16667 16.1667,9.16667 15.5,10.5C 12.8003,9.05835 13.1336,8.39168 16.5,8.5C 18.9761,8.23259 19.6428,8.89925 18.5,10.5 Z"/></g>
<g><path style="opacity:1" fill="#e3eff3" d="M 20.5,38.5 C 21.1599,37.036 21.4932,35.3693 21.5,33.5C 21.4439,31.3603 20.7773,29.6936 19.5,28.5C 17.5891,28.4257 16.4224,27.4257 16,25.5C 15.5007,20.5111 15.3341,15.5111 15.5,10.5C 16.1667,9.16667 16.8333,9.16667 17.5,10.5C 17.1805,15.3633 17.5139,20.03 18.5,24.5C 18.3284,25.4916 18.6618,26.1583 19.5,26.5C 19.56,27.0431 19.8933,27.3764 20.5,27.5C 21.8003,24.6908 21.8003,22.0241 20.5,19.5C 19.8333,19.5 19.1667,19.5 18.5,19.5C 21.2869,18.5233 24.2869,18.19 27.5,18.5C 27.8064,15.6146 27.4731,12.9479 26.5,10.5C 26.3893,9.88258 26.056,9.38258 25.5,9C 27.1667,8.33333 28.8333,8.33333 30.5,9C 28.6602,11.8263 27.9935,14.9929 28.5,18.5C 36.8886,20.1037 39.7219,25.1037 37,33.5C 35.5,36.3333 33.3333,38.5 30.5,40C 26.5,40.6667 22.5,40.6667 18.5,40C 19.4158,39.7216 20.0825,39.2216 20.5,38.5 Z"/></g>
<g><path style="opacity:1" fill="#1c6ca9" d="M 23.5,19.5 C 24.5,19.5 25.5,19.5 26.5,19.5C 27.0365,22.6646 26.2031,25.3312 24,27.5C 23.5026,24.854 23.3359,22.1873 23.5,19.5 Z"/></g>
<g><path style="opacity:1" fill="#5194be" d="M 17.5,10.5 C 17.8333,10.5 18.1667,10.5 18.5,10.5C 18.5,12.8333 18.5,15.1667 18.5,17.5C 21.1667,17.5 23.8333,17.5 26.5,17.5C 26.5,15.1667 26.5,12.8333 26.5,10.5C 27.4731,12.9479 27.8064,15.6146 27.5,18.5C 24.2869,18.19 21.2869,18.5233 18.5,19.5C 18.5,21.1667 18.5,22.8333 18.5,24.5C 17.5139,20.03 17.1805,15.3633 17.5,10.5 Z"/></g>
<g><path style="opacity:1" fill="#0c64a6" d="M 18.5,19.5 C 19.1667,19.5 19.8333,19.5 20.5,19.5C 20.8016,22.0593 20.4682,24.3926 19.5,26.5C 18.6618,26.1583 18.3284,25.4916 18.5,24.5C 18.5,22.8333 18.5,21.1667 18.5,19.5 Z"/></g>
<g><path style="opacity:1" fill="#156cac" d="M 28.5,19.5 C 32.8831,21.0887 34.8831,24.2554 34.5,29C 34.9387,36.9064 31.4387,40.0731 24,38.5C 23.1764,35.1177 23.343,31.7844 24.5,28.5C 27.7213,26.3872 29.0546,23.3872 28.5,19.5 Z"/></g>
<g><path style="opacity:1" fill="#89b5d0" d="M 20.5,19.5 C 21.8003,22.0241 21.8003,24.6908 20.5,27.5C 19.8933,27.3764 19.56,27.0431 19.5,26.5C 20.4682,24.3926 20.8016,22.0593 20.5,19.5 Z"/></g>
<g><path style="opacity:1" fill="#8bb8d3" d="M 19.5,28.5 C 20.7773,29.6936 21.4439,31.3603 21.5,33.5C 21.4932,35.3693 21.1599,37.036 20.5,38.5C 20.7471,35.0613 20.4137,31.728 19.5,28.5 Z"/></g>
</svg>
