<?xml version="1.0" encoding="UTF-8"?>
<!DOCTYPE svg PUBLIC "-//W3C//DTD SVG 1.1//EN" "http://www.w3.org/Graphics/SVG/1.1/DTD/svg11.dtd">
<svg xmlns="http://www.w3.org/2000/svg" version="1.1" width="50px" height="50px" style="shape-rendering:geometricPrecision; text-rendering:geometricPrecision; image-rendering:optimizeQuality; fill-rule:evenodd; clip-rule:evenodd" xmlns:xlink="http://www.w3.org/1999/xlink">
<g><path style="opacity:1" fill="#fefefe" d="M -0.5,-0.5 C 16.1667,-0.5 32.8333,-0.5 49.5,-0.5C 49.5,9.16667 49.5,18.8333 49.5,28.5C 48.8333,28.5 48.5,28.1667 48.5,27.5C 48.1788,25.9519 47.1788,25.2852 45.5,25.5C 45.8333,24.8333 46.1667,24.1667 46.5,23.5C 42.9707,21.5772 38.9707,20.9106 34.5,21.5C 31.6558,20.4489 28.6558,20.4489 25.5,21.5C 22.0542,21.0181 18.7209,21.0181 15.5,21.5C 15.1583,20.6618 14.4916,20.3284 13.5,20.5C 12.5,20.5 11.5,20.5 10.5,20.5C 8.16667,20.5 5.83333,20.5 3.5,20.5C 3.5,22.1667 3.5,23.8333 3.5,25.5C 2.69609,24.6135 2.02942,22.9468 1.5,20.5C 0.702451,20.9569 0.369118,21.6236 0.5,22.5C 0.166667,22.5 -0.166667,22.5 -0.5,22.5C -0.5,14.8333 -0.5,7.16667 -0.5,-0.5 Z"/></g>
<g><path style="opacity:1" fill="#779ec4" d="M 10.5,20.5 C 10.1788,22.0481 9.17876,22.7148 7.5,22.5C 6.48192,23.2921 6.14858,24.9588 6.5,27.5C 5.83333,27.5 5.16667,27.5 4.5,27.5C 5.51095,25.5976 5.67761,23.5976 5,21.5C 4.78997,23.0581 4.28997,24.3915 3.5,25.5C 3.5,23.8333 3.5,22.1667 3.5,20.5C 5.83333,20.5 8.16667,20.5 10.5,20.5 Z"/></g>
<g><path style="opacity:1" fill="#fdfdfe" d="M 10.5,20.5 C 11.5,20.5 12.5,20.5 13.5,20.5C 12.6993,22.0418 12.366,23.7085 12.5,25.5C 12.3691,26.3764 12.7025,27.0431 13.5,27.5C 14.5272,26.2086 15.5272,26.2086 16.5,27.5C 19.3138,28.1647 22.3138,28.498 25.5,28.5C 29.0977,28.4094 32.431,27.7427 35.5,26.5C 39.6344,27.4849 43.9677,27.8182 48.5,27.5C 48.5,28.1667 48.8333,28.5 49.5,28.5C 49.5,35.5 49.5,42.5 49.5,49.5C 32.8333,49.5 16.1667,49.5 -0.5,49.5C -0.5,40.5 -0.5,31.5 -0.5,22.5C -0.166667,22.5 0.166667,22.5 0.5,22.5C -0.24365,25.9496 1.08968,27.6162 4.5,27.5C 5.16667,27.5 5.83333,27.5 6.5,27.5C 7.18586,26.1516 8.18586,24.985 9.5,24C 8.5842,23.7216 7.91753,23.2216 7.5,22.5C 9.17876,22.7148 10.1788,22.0481 10.5,20.5 Z"/></g>
<g><path style="opacity:1" fill="#245d9c" d="M 7.5,22.5 C 7.91753,23.2216 8.5842,23.7216 9.5,24C 8.18586,24.985 7.18586,26.1516 6.5,27.5C 6.14858,24.9588 6.48192,23.2921 7.5,22.5 Z"/></g>
<g><path style="opacity:1" fill="#94afc9" d="M 34.5,21.5 C 38.9707,20.9106 42.9707,21.5772 46.5,23.5C 41.456,23.8275 36.456,23.4941 31.5,22.5C 32.325,21.6143 33.325,21.281 34.5,21.5 Z"/></g>
<g><path style="opacity:1" fill="#e8eef2" d="M 13.5,20.5 C 14.4916,20.3284 15.1583,20.6618 15.5,21.5C 17.3216,23.2343 19.6549,24.2343 22.5,24.5C 24.2131,24.1207 25.2131,23.1207 25.5,21.5C 28.6558,20.4489 31.6558,20.4489 34.5,21.5C 33.325,21.281 32.325,21.6143 31.5,22.5C 36.456,23.4941 41.456,23.8275 46.5,23.5C 46.1667,24.1667 45.8333,24.8333 45.5,25.5C 41.9581,25.1872 38.6248,25.5206 35.5,26.5C 32.431,27.7427 29.0977,28.4094 25.5,28.5C 22.3138,28.498 19.3138,28.1647 16.5,27.5C 21.544,27.8275 26.544,27.4941 31.5,26.5C 25.2015,25.5037 18.8682,25.1703 12.5,25.5C 12.366,23.7085 12.6993,22.0418 13.5,20.5 Z"/></g>
<g><path style="opacity:1" fill="#9eb6cf" d="M 25.5,21.5 C 25.2131,23.1207 24.2131,24.1207 22.5,24.5C 19.6549,24.2343 17.3216,23.2343 15.5,21.5C 18.7209,21.0181 22.0542,21.0181 25.5,21.5 Z"/></g>
<g><path style="opacity:1" fill="#366da4" d="M 3.5,25.5 C 4.28997,24.3915 4.78997,23.0581 5,21.5C 5.67761,23.5976 5.51095,25.5976 4.5,27.5C 1.08968,27.6162 -0.24365,25.9496 0.5,22.5C 0.369118,21.6236 0.702451,20.9569 1.5,20.5C 2.02942,22.9468 2.69609,24.6135 3.5,25.5 Z"/></g>
<g><path style="opacity:1" fill="#abbed2" d="M 12.5,25.5 C 18.8682,25.1703 25.2015,25.5037 31.5,26.5C 26.544,27.4941 21.544,27.8275 16.5,27.5C 15.5272,26.2086 14.5272,26.2086 13.5,27.5C 12.7025,27.0431 12.3691,26.3764 12.5,25.5 Z"/></g>
<g><path style="opacity:1" fill="#9bb5cf" d="M 45.5,25.5 C 47.1788,25.2852 48.1788,25.9519 48.5,27.5C 43.9677,27.8182 39.6344,27.4849 35.5,26.5C 38.6248,25.5206 41.9581,25.1872 45.5,25.5 Z"/></g>
</svg>
