<?xml version="1.0" encoding="UTF-8"?>
<!DOCTYPE svg PUBLIC "-//W3C//DTD SVG 1.1//EN" "http://www.w3.org/Graphics/SVG/1.1/DTD/svg11.dtd">
<svg xmlns="http://www.w3.org/2000/svg" version="1.1" width="50px" height="50px" style="shape-rendering:geometricPrecision; text-rendering:geometricPrecision; image-rendering:optimizeQuality; fill-rule:evenodd; clip-rule:evenodd" xmlns:xlink="http://www.w3.org/1999/xlink">
<g><path style="opacity:1" fill="#871c1c" d="M -0.5,-0.5 C 16.1667,-0.5 32.8333,-0.5 49.5,-0.5C 49.5,16.1667 49.5,32.8333 49.5,49.5C 32.8333,49.5 16.1667,49.5 -0.5,49.5C -0.5,32.8333 -0.5,16.1667 -0.5,-0.5 Z"/></g>
<g><path style="opacity:1" fill="#a95a59" d="M 24.5,21.5 C 25.1667,21.5 25.5,21.1667 25.5,20.5C 27.0231,18.4896 28.8564,18.1563 31,19.5C 31.3333,18.8333 31.6667,18.1667 32,17.5C 32.6891,18.3567 33.5224,19.0233 34.5,19.5C 37.4212,18.5934 40.4212,18.2601 43.5,18.5C 43.5,19.8333 43.5,21.1667 43.5,22.5C 41.549,22.7733 40.049,22.1066 39,20.5C 38.3333,23.1667 37.6667,23.1667 37,20.5C 35.1303,21.7435 32.9637,22.4101 30.5,22.5C 28.3035,22.4954 26.3035,22.162 24.5,21.5 Z"/></g>
<g><path style="opacity:1" fill="#c49190" d="M 25.5,20.5 C 25.5,21.1667 25.1667,21.5 24.5,21.5C 24.5,20.8333 24.1667,20.5 23.5,20.5C 23.7856,18.0673 24.4523,18.0673 25.5,20.5 Z"/></g>
<g><path style="opacity:1" fill="#ac605f" d="M 23.5,20.5 C 24.1667,20.5 24.5,20.8333 24.5,21.5C 18.4756,22.259 12.4756,22.4257 6.5,22C 5.25278,20.5064 5.25278,19.0064 6.5,17.5C 7.77601,22.6817 8.44268,22.6817 8.5,17.5C 11.1977,17.4503 13.3644,18.4503 15,20.5C 17.7957,19.3213 20.6291,19.3213 23.5,20.5 Z"/></g>
<g><path style="opacity:1" fill="#a55554" d="M 5.5,27.5 C 8.42836,27.8516 11.2617,28.5183 14,29.5C 16.7191,28.5562 19.5525,28.2229 22.5,28.5C 22.5,29.5 22.5,30.5 22.5,31.5C 20.2341,31.8588 18.4007,31.1922 17,29.5C 13.5065,31.377 9.67316,32.0436 5.5,31.5C 5.5,30.1667 5.5,28.8333 5.5,27.5 Z"/></g>
<g><path style="opacity:1" fill="#a35151" d="M 24.5,28.5 C 29.6807,28.6385 34.6807,28.9719 39.5,29.5C 39.2907,30.086 38.9574,30.586 38.5,31C 33.8452,31.4992 29.1785,31.6658 24.5,31.5C 24.5,30.5 24.5,29.5 24.5,28.5 Z"/></g>
</svg>
