<?xml version="1.0" encoding="UTF-8"?>
<!DOCTYPE svg PUBLIC "-//W3C//DTD SVG 1.1//EN" "http://www.w3.org/Graphics/SVG/1.1/DTD/svg11.dtd">
<svg xmlns="http://www.w3.org/2000/svg" version="1.1" width="50px" height="50px" style="shape-rendering:geometricPrecision; text-rendering:geometricPrecision; image-rendering:optimizeQuality; fill-rule:evenodd; clip-rule:evenodd" xmlns:xlink="http://www.w3.org/1999/xlink">
<g><path style="opacity:1" fill="#f5f4f4" d="M -0.5,-0.5 C 16.1667,-0.5 32.8333,-0.5 49.5,-0.5C 49.5,16.1667 49.5,32.8333 49.5,49.5C 32.8333,49.5 16.1667,49.5 -0.5,49.5C -0.5,32.8333 -0.5,16.1667 -0.5,-0.5 Z"/></g>
<g><path style="opacity:1" fill="#b9b9b9" d="M 20.5,3.5 C 22.0174,3.51056 23.1841,4.17723 24,5.5C 25.4926,3.44018 27.3259,3.10684 29.5,4.5C 29.1667,5.16667 28.8333,5.83333 28.5,6.5C 25.1637,7.23957 21.8304,7.90624 18.5,8.5C 16.5643,7.09199 16.3977,5.75866 18,4.5C 19.8918,7.38952 20.7251,7.05618 20.5,3.5 Z"/></g>
<g><path style="opacity:1" fill="#e6d6d5" d="M 24.5,11.5 C 31.122,13.7329 31.122,14.7329 24.5,14.5C 24.5,13.5 24.5,12.5 24.5,11.5 Z"/></g>
<g><path style="opacity:1" fill="#51471f" d="M 24.5,10.5 C 24.5,10.8333 24.5,11.1667 24.5,11.5C 23.8333,11.8333 23.1667,12.1667 22.5,12.5C 19.852,14.1594 17.1853,15.8261 14.5,17.5C 13.0541,19.6179 12.3874,21.9512 12.5,24.5C 10.8399,19.2797 12.5066,15.113 17.5,12C 19.6775,10.7978 22.0108,10.2978 24.5,10.5 Z"/></g>
<g><path style="opacity:1" fill="#221a12" d="M 24.5,11.5 C 24.5,12.5 24.5,13.5 24.5,14.5C 24.5,14.8333 24.5,15.1667 24.5,15.5C 24.5,16.1667 24.5,16.8333 24.5,17.5C 24.5,18.8333 24.5,20.1667 24.5,21.5C 21.4449,18.8692 19.9449,19.8692 20,24.5C 18.0924,21.6677 17.259,22.001 17.5,25.5C 16.8333,25.5 16.1667,25.5 15.5,25.5C 15.1667,25.5 14.8333,25.5 14.5,25.5C 14.5,25.1667 14.5,24.8333 14.5,24.5C 14.3433,23.1266 14.51,21.7932 15,20.5C 15.7412,19.3595 16.5745,19.3595 17.5,20.5C 18.3857,19.675 18.719,18.675 18.5,17.5C 19.5,17.5 20.5,17.5 21.5,17.5C 21.6287,15.7839 21.962,14.1172 22.5,12.5C 23.1667,12.1667 23.8333,11.8333 24.5,11.5 Z"/></g>
<g><path style="opacity:1" fill="#d36465" d="M 24.5,11.5 C 24.5,11.1667 24.5,10.8333 24.5,10.5C 27.5959,9.90656 29.9292,10.9066 31.5,13.5C 31.2907,14.086 30.9574,14.586 30.5,15C 28.5273,15.4955 26.5273,15.6621 24.5,15.5C 24.5,15.1667 24.5,14.8333 24.5,14.5C 31.122,14.7329 31.122,13.7329 24.5,11.5 Z"/></g>
<g><path style="opacity:1" fill="#cfb121" d="M 22.5,12.5 C 21.962,14.1172 21.6287,15.7839 21.5,17.5C 20.5,17.5 19.5,17.5 18.5,17.5C 18.719,18.675 18.3857,19.675 17.5,20.5C 16.5745,19.3595 15.7412,19.3595 15,20.5C 14.51,21.7932 14.3433,23.1266 14.5,24.5C 13.8333,24.5 13.1667,24.5 12.5,24.5C 12.3874,21.9512 13.0541,19.6179 14.5,17.5C 17.1853,15.8261 19.852,14.1594 22.5,12.5 Z"/></g>
<g><path style="opacity:1" fill="#d56c67" d="M 34.5,24.5 C 34.5,25.1667 34.1667,25.5 33.5,25.5C 33.1667,25.5 32.8333,25.5 32.5,25.5C 32.5,25.1667 32.5,24.8333 32.5,24.5C 33.9302,22.5453 33.5969,20.8786 31.5,19.5C 31.5,18.8333 31.5,18.1667 31.5,17.5C 32.2032,14.1394 33.5365,13.8061 35.5,16.5C 34.7376,16.9106 33.7376,17.0773 32.5,17C 35.5276,18.9107 36.1943,21.4107 34.5,24.5 Z"/></g>
<g><path style="opacity:1" fill="#f4dadb" d="M 31.5,19.5 C 33.5969,20.8786 33.9302,22.5453 32.5,24.5C 32.0962,23.2436 31.4295,22.0769 30.5,21C 30.5699,20.2352 30.9033,19.7352 31.5,19.5 Z"/></g>
<g><path style="opacity:1" fill="#e03b40" d="M 31.5,17.5 C 31.5,18.1667 31.5,18.8333 31.5,19.5C 30.9033,19.7352 30.5699,20.2352 30.5,21C 31.4295,22.0769 32.0962,23.2436 32.5,24.5C 32.5,24.8333 32.5,25.1667 32.5,25.5C 31.8333,25.5 31.1667,25.5 30.5,25.5C 28.5,25.5 26.5,25.5 24.5,25.5C 24.5,24.1667 24.5,22.8333 24.5,21.5C 24.5,20.1667 24.5,18.8333 24.5,17.5C 26.953,17.9297 29.2863,17.9297 31.5,17.5 Z"/></g>
<g><path style="opacity:1" fill="#ccac22" d="M 24.5,21.5 C 24.5,22.8333 24.5,24.1667 24.5,25.5C 22.1667,25.5 19.8333,25.5 17.5,25.5C 17.259,22.001 18.0924,21.6677 20,24.5C 19.9449,19.8692 21.4449,18.8692 24.5,21.5 Z"/></g>
<g><path style="opacity:1" fill="#1a0d08" d="M 24.5,25.5 C 26.5,25.5 28.5,25.5 30.5,25.5C 30.6106,27.6477 29.944,27.981 28.5,26.5C 27.7022,28.0777 27.2022,29.7444 27,31.5C 26.2917,30.6195 25.4584,29.9528 24.5,29.5C 24.5,28.1667 24.5,26.8333 24.5,25.5 Z"/></g>
<g><path style="opacity:1" fill="#a58d29" d="M 35.5,24.5 C 36.5862,24.62 37.2528,25.2867 37.5,26.5C 37.2413,28.9872 36.2413,30.9872 34.5,32.5C 35.2653,29.9039 35.5987,27.2372 35.5,24.5 Z"/></g>
<g><path style="opacity:1" fill="#251f10" d="M 34.5,24.5 C 34.8333,24.5 35.1667,24.5 35.5,24.5C 35.5987,27.2372 35.2653,29.9039 34.5,32.5C 31.9203,33.7347 29.587,35.4014 27.5,37.5C 26.8333,37.5 26.1667,37.5 25.5,37.5C 27.5031,34.9887 29.3364,32.3221 31,29.5C 31.6667,30.1667 32.3333,30.8333 33,31.5C 33.4955,29.5273 33.6621,27.5273 33.5,25.5C 34.1667,25.5 34.5,25.1667 34.5,24.5 Z"/></g>
<g><path style="opacity:1" fill="#db4543" d="M 15.5,25.5 C 16.1667,25.5 16.8333,25.5 17.5,25.5C 19.8333,25.5 22.1667,25.5 24.5,25.5C 24.5,26.8333 24.5,28.1667 24.5,29.5C 24.5,31.5 24.5,33.5 24.5,35.5C 21.9276,36.7084 19.5943,36.3751 17.5,34.5C 19.5273,34.6621 21.5273,34.4955 23.5,34C 21.4236,32.8354 19.257,32.3354 17,32.5C 16.5078,31.451 16.6744,30.451 17.5,29.5C 16.3698,28.3777 15.7031,27.0443 15.5,25.5 Z"/></g>
<g><path style="opacity:1" fill="#d6b720" d="M 30.5,25.5 C 31.1667,25.5 31.8333,25.5 32.5,25.5C 32.8333,25.5 33.1667,25.5 33.5,25.5C 33.6621,27.5273 33.4955,29.5273 33,31.5C 32.3333,30.8333 31.6667,30.1667 31,29.5C 29.3364,32.3221 27.5031,34.9887 25.5,37.5C 24.6618,37.1583 24.3284,36.4916 24.5,35.5C 24.5,33.5 24.5,31.5 24.5,29.5C 25.4584,29.9528 26.2917,30.6195 27,31.5C 27.2022,29.7444 27.7022,28.0777 28.5,26.5C 29.944,27.981 30.6106,27.6477 30.5,25.5 Z"/></g>
<g><path style="opacity:1" fill="#e4abaa" d="M 14.5,25.5 C 14.8333,25.5 15.1667,25.5 15.5,25.5C 15.7031,27.0443 16.3698,28.3777 17.5,29.5C 16.6744,30.451 16.5078,31.451 17,32.5C 19.257,32.3354 21.4236,32.8354 23.5,34C 21.5273,34.4955 19.5273,34.6621 17.5,34.5C 15.6536,34.7778 14.3202,34.1112 13.5,32.5C 13.436,30.1363 13.7693,27.803 14.5,25.5 Z"/></g>
<g><path style="opacity:1" fill="#a79240" d="M 34.5,32.5 C 33.0077,35.3231 30.6743,36.9898 27.5,37.5C 29.587,35.4014 31.9203,33.7347 34.5,32.5 Z"/></g>
<g><path style="opacity:1" fill="#bfbfbf" d="M 39.5,31.5 C 42.0764,31.7218 42.9098,33.0551 42,35.5C 40.2485,37.7745 38.2485,39.7745 36,41.5C 34.9783,40.646 34.1449,39.646 33.5,38.5C 36.202,36.7588 38.202,34.4255 39.5,31.5 Z"/></g>
</svg>
