<?xml version="1.0" encoding="UTF-8"?>
<!DOCTYPE svg PUBLIC "-//W3C//DTD SVG 1.1//EN" "http://www.w3.org/Graphics/SVG/1.1/DTD/svg11.dtd">
<svg xmlns="http://www.w3.org/2000/svg" version="1.1" width="50px" height="50px" style="shape-rendering:geometricPrecision; text-rendering:geometricPrecision; image-rendering:optimizeQuality; fill-rule:evenodd; clip-rule:evenodd" xmlns:xlink="http://www.w3.org/1999/xlink">
<g><path style="opacity:1" fill="#5aa1d5" d="M -0.5,-0.5 C 9.16667,-0.5 18.8333,-0.5 28.5,-0.5C 28.1667,0.166667 27.8333,0.833333 27.5,1.5C 23.0638,1.21011 18.7305,1.71011 14.5,3C 13.0403,3.81129 12.707,4.64462 13.5,5.5C 17.4374,4.04522 21.104,4.54522 24.5,7C 22.1902,7.49665 19.8568,7.66331 17.5,7.5C 14.4177,8.01687 11.4177,8.8502 8.5,10C 7.22641,10.9772 7.22641,11.8106 8.5,12.5C 8.5,13.1667 8.83333,13.5 9.5,13.5C 14.1065,12.4456 18.7732,11.779 23.5,11.5C 24.1667,11.5 24.8333,11.5 25.5,11.5C 33.4036,10.4297 36.7369,13.763 35.5,21.5C 34.5,21.5 33.5,21.5 32.5,21.5C 32.5,18.8333 32.5,16.1667 32.5,13.5C 30.901,13.2322 29.5676,13.5655 28.5,14.5C 28.5,16.5 28.5,18.5 28.5,20.5C 25.8333,20.5 23.1667,20.5 20.5,20.5C 20.8016,17.9407 20.4682,15.6074 19.5,13.5C 18.209,13.2627 17.209,13.596 16.5,14.5C 16.5,16.8333 16.5,19.1667 16.5,21.5C 15.5,21.5 14.5,21.5 13.5,21.5C 13.5,19.1667 13.5,16.8333 13.5,14.5C 11.901,14.2322 10.5676,14.5655 9.5,15.5C 9.5,18.1667 9.5,20.8333 9.5,23.5C 6.0968,23.8511 2.76346,24.5178 -0.5,25.5C -0.5,16.8333 -0.5,8.16667 -0.5,-0.5 Z"/></g>
<g><path style="opacity:1" fill="#58a0d4" d="M 28.5,-0.5 C 35.5,-0.5 42.5,-0.5 49.5,-0.5C 49.5,8.16667 49.5,16.8333 49.5,25.5C 46.198,24.7063 42.8647,24.0396 39.5,23.5C 39.5,20.8333 39.5,18.1667 39.5,15.5C 39.5,14.8333 39.5,14.1667 39.5,13.5C 40.4734,13.0133 41.4734,12.5133 42.5,12C 42.2716,11.6012 41.9382,11.4346 41.5,11.5C 38.7726,5.43768 34.106,2.10434 27.5,1.5C 27.8333,0.833333 28.1667,0.166667 28.5,-0.5 Z"/></g>
<g><path style="opacity:1" fill="#f4f9fb" d="M 27.5,1.5 C 34.106,2.10434 38.7726,5.43768 41.5,11.5C 34.0524,9.02827 26.3858,8.02827 18.5,8.5C 17.8333,8.5 17.5,8.16667 17.5,7.5C 19.8568,7.66331 22.1902,7.49665 24.5,7C 21.104,4.54522 17.4374,4.04522 13.5,5.5C 12.707,4.64462 13.0403,3.81129 14.5,3C 18.7305,1.71011 23.0638,1.21011 27.5,1.5 Z"/></g>
<g><path style="opacity:1" fill="#cae2f0" d="M 17.5,7.5 C 17.5,8.16667 17.8333,8.5 18.5,8.5C 15.6282,9.32543 12.6282,10.1588 9.5,11C 8.94404,11.3826 8.61071,11.8826 8.5,12.5C 7.22641,11.8106 7.22641,10.9772 8.5,10C 11.4177,8.8502 14.4177,8.01687 17.5,7.5 Z"/></g>
<g><path style="opacity:1" fill="#88bbde" d="M 18.5,8.5 C 26.3858,8.02827 34.0524,9.02827 41.5,11.5C 41.9382,11.4346 42.2716,11.6012 42.5,12C 41.4734,12.5133 40.4734,13.0133 39.5,13.5C 35.0862,10.699 30.4196,10.0324 25.5,11.5C 24.8333,11.5 24.1667,11.5 23.5,11.5C 20.3601,10.3592 17.0267,10.1925 13.5,11C 11.6803,11.2004 10.347,12.0337 9.5,13.5C 8.83333,13.5 8.5,13.1667 8.5,12.5C 8.61071,11.8826 8.94404,11.3826 9.5,11C 12.6282,10.1588 15.6282,9.32543 18.5,8.5 Z"/></g>
<g><path style="opacity:1" fill="#edf4f9" d="M 25.5,11.5 C 30.4196,10.0324 35.0862,10.699 39.5,13.5C 39.5,14.1667 39.5,14.8333 39.5,15.5C 38.5076,23.3159 38.1743,31.3159 38.5,39.5C 37.5,39.5 36.5,39.5 35.5,39.5C 35.5,33.5 35.5,27.5 35.5,21.5C 36.7369,13.763 33.4036,10.4297 25.5,11.5 Z"/></g>
<g><path style="opacity:1" fill="#d2e6f1" d="M 23.5,11.5 C 18.7732,11.779 14.1065,12.4456 9.5,13.5C 10.347,12.0337 11.6803,11.2004 13.5,11C 17.0267,10.1925 20.3601,10.3592 23.5,11.5 Z"/></g>
<g><path style="opacity:1" fill="#fdfefd" d="M 16.5,14.5 C 17.209,13.596 18.209,13.2627 19.5,13.5C 19.5,22.5 19.5,31.5 19.5,40.5C 18.8333,40.5 18.1667,40.5 17.5,40.5C 17.8264,31.6506 17.493,22.9839 16.5,14.5 Z"/></g>
<g><path style="opacity:1" fill="#fdfefe" d="M 29.5,14.5 C 31.4698,22.7688 32.1364,31.4355 31.5,40.5C 30.8333,40.5 30.1667,40.5 29.5,40.5C 29.5,31.8333 29.5,23.1667 29.5,14.5 Z"/></g>
<g><path style="opacity:1" fill="#fefefd" d="M 10.5,15.5 C 12.4668,23.0968 13.1335,31.0968 12.5,39.5C 10.5332,31.9032 9.8665,23.9032 10.5,15.5 Z"/></g>
<g><path style="opacity:1" fill="#d2e8f6" d="M 28.5,14.5 C 29.5676,13.5655 30.901,13.2322 32.5,13.5C 32.5,16.1667 32.5,18.8333 32.5,21.5C 32.8235,28.0221 32.4902,34.3554 31.5,40.5C 32.1364,31.4355 31.4698,22.7688 29.5,14.5C 29.1667,14.5 28.8333,14.5 28.5,14.5 Z"/></g>
<g><path style="opacity:1" fill="#87bbe0" d="M 16.5,14.5 C 17.493,22.9839 17.8264,31.6506 17.5,40.5C 17.1583,41.3382 16.4916,41.6716 15.5,41.5C 14.8333,41.5 14.1667,41.5 13.5,41.5C 13.1667,40.8333 12.8333,40.1667 12.5,39.5C 13.4896,33.69 13.8229,27.69 13.5,21.5C 14.5,21.5 15.5,21.5 16.5,21.5C 16.5,19.1667 16.5,16.8333 16.5,14.5 Z"/></g>
<g><path style="opacity:1" fill="#77b2dc" d="M 9.5,23.5 C 9.5,28.8333 9.5,34.1667 9.5,39.5C 9.16667,39.5 8.83333,39.5 8.5,39.5C 7.37067,40.4695 6.37067,41.6362 5.5,43C 5.56993,43.7648 5.90326,44.2648 6.5,44.5C 8.99545,46.7143 11.9955,47.8809 15.5,48C 21.4908,48.4995 27.4908,48.6662 33.5,48.5C 34.4916,48.3284 35.1583,48.6618 35.5,49.5C 23.5,49.5 11.5,49.5 -0.5,49.5C -0.5,41.5 -0.5,33.5 -0.5,25.5C 2.76346,24.5178 6.0968,23.8511 9.5,23.5 Z"/></g>
<g><path style="opacity:1" fill="#d0e4f0" d="M 9.5,15.5 C 10.5676,14.5655 11.901,14.2322 13.5,14.5C 13.5,16.8333 13.5,19.1667 13.5,21.5C 13.8229,27.69 13.4896,33.69 12.5,39.5C 13.1335,31.0968 12.4668,23.0968 10.5,15.5C 10.1667,15.5 9.83333,15.5 9.5,15.5 Z"/></g>
<g><path style="opacity:1" fill="#7db5dd" d="M 39.5,15.5 C 39.5,18.1667 39.5,20.8333 39.5,23.5C 42.8647,24.0396 46.198,24.7063 49.5,25.5C 49.5,33.5 49.5,41.5 49.5,49.5C 44.8333,49.5 40.1667,49.5 35.5,49.5C 35.1583,48.6618 34.4916,48.3284 33.5,48.5C 36.3379,47.1941 39.3379,46.0275 42.5,45C 43.3802,43.6439 43.7135,42.1439 43.5,40.5C 39.4809,40.6458 35.4809,40.9791 31.5,41.5C 31.5,41.1667 31.5,40.8333 31.5,40.5C 32.4902,34.3554 32.8235,28.0221 32.5,21.5C 33.5,21.5 34.5,21.5 35.5,21.5C 35.5,27.5 35.5,33.5 35.5,39.5C 36.5,39.5 37.5,39.5 38.5,39.5C 38.1743,31.3159 38.5076,23.3159 39.5,15.5 Z"/></g>
<g><path style="opacity:1" fill="#9dc7e5" d="M 9.5,15.5 C 9.83333,15.5 10.1667,15.5 10.5,15.5C 9.8665,23.9032 10.5332,31.9032 12.5,39.5C 12.8333,40.1667 13.1667,40.8333 13.5,41.5C 11.847,41.3404 10.5137,40.6737 9.5,39.5C 9.5,34.1667 9.5,28.8333 9.5,23.5C 9.5,20.8333 9.5,18.1667 9.5,15.5 Z"/></g>
<g><path style="opacity:1" fill="#83b9de" d="M 19.5,13.5 C 20.4682,15.6074 20.8016,17.9407 20.5,20.5C 23.1667,20.5 25.8333,20.5 28.5,20.5C 28.5,18.5 28.5,16.5 28.5,14.5C 28.8333,14.5 29.1667,14.5 29.5,14.5C 29.5,23.1667 29.5,31.8333 29.5,40.5C 26.1667,41.8333 22.8333,41.8333 19.5,40.5C 19.5,31.5 19.5,22.5 19.5,13.5 Z"/></g>
<g><path style="opacity:1" fill="#f0f7f9" d="M 22.5,31.5 C 23.5676,30.5655 24.901,30.2322 26.5,30.5C 26.5,33.5 26.5,36.5 26.5,39.5C 25.1667,39.5 23.8333,39.5 22.5,39.5C 22.6845,36.5229 22.6845,33.8562 22.5,31.5 Z"/></g>
<g><path style="opacity:1" fill="#f2f8fa" d="M 8.5,39.5 C 8.83333,39.5 9.16667,39.5 9.5,39.5C 10.5137,40.6737 11.847,41.3404 13.5,41.5C 14.1667,41.5 14.8333,41.5 15.5,41.5C 20.8333,42.8333 26.1667,42.8333 31.5,41.5C 35.4809,40.9791 39.4809,40.6458 43.5,40.5C 43.7135,42.1439 43.3802,43.6439 42.5,45C 39.3379,46.0275 36.3379,47.1941 33.5,48.5C 27.4908,48.6662 21.4908,48.4995 15.5,48C 11.9955,47.8809 8.99545,46.7143 6.5,44.5C 6.36899,43.7611 6.53566,43.0944 7,42.5C 8.64769,43.717 10.481,44.5503 12.5,45C 18.1667,45.6667 23.8333,45.6667 29.5,45C 22.3919,44.827 15.3919,43.9937 8.5,42.5C 8.5,41.5 8.5,40.5 8.5,39.5 Z"/></g>
<g><path style="opacity:1" fill="#9fcae5" d="M 17.5,40.5 C 18.1667,40.5 18.8333,40.5 19.5,40.5C 22.8333,41.8333 26.1667,41.8333 29.5,40.5C 30.1667,40.5 30.8333,40.5 31.5,40.5C 31.5,40.8333 31.5,41.1667 31.5,41.5C 26.1667,42.8333 20.8333,42.8333 15.5,41.5C 16.4916,41.6716 17.1583,41.3382 17.5,40.5 Z"/></g>
<g><path style="opacity:1" fill="#a2cbe6" d="M 8.5,39.5 C 8.5,40.5 8.5,41.5 8.5,42.5C 15.3919,43.9937 22.3919,44.827 29.5,45C 23.8333,45.6667 18.1667,45.6667 12.5,45C 10.481,44.5503 8.64769,43.717 7,42.5C 6.53566,43.0944 6.36899,43.7611 6.5,44.5C 5.90326,44.2648 5.56993,43.7648 5.5,43C 6.37067,41.6362 7.37067,40.4695 8.5,39.5 Z"/></g>
</svg>
