<?xml version="1.0" encoding="UTF-8"?>
<!DOCTYPE svg PUBLIC "-//W3C//DTD SVG 1.1//EN" "http://www.w3.org/Graphics/SVG/1.1/DTD/svg11.dtd">
<svg xmlns="http://www.w3.org/2000/svg" version="1.1" width="50px" height="50px" style="shape-rendering:geometricPrecision; text-rendering:geometricPrecision; image-rendering:optimizeQuality; fill-rule:evenodd; clip-rule:evenodd" xmlns:xlink="http://www.w3.org/1999/xlink">
<g><path style="opacity:1" fill="#013591" d="M -0.5,-0.5 C 16.1667,-0.5 32.8333,-0.5 49.5,-0.5C 49.5,16.1667 49.5,32.8333 49.5,49.5C 32.8333,49.5 16.1667,49.5 -0.5,49.5C -0.5,32.8333 -0.5,16.1667 -0.5,-0.5 Z"/></g>
<g><path style="opacity:1" fill="#93aace" d="M 13.5,11.5 C 20.8333,11.5 28.1667,11.5 35.5,11.5C 35.6662,17.5092 35.4995,23.5092 35,29.5C 28,40.1667 21,40.1667 14,29.5C 13.5005,23.5092 13.3338,17.5092 13.5,11.5 Z"/></g>
<g><path style="opacity:1" fill="#123b93" d="M 14.5,12.5 C 21.1667,12.5 27.8333,12.5 34.5,12.5C 34.8608,18.5933 34.3608,24.5933 33,30.5C 27.3333,38.5 21.6667,38.5 16,30.5C 14.6392,24.5933 14.1392,18.5933 14.5,12.5 Z"/></g>
<g><path style="opacity:1" fill="#dee4ee" d="M 24.5,17.5 C 22.955,18.2297 22.1216,19.563 22,21.5C 19.7487,16.0595 18.582,16.3928 18.5,22.5C 18.8207,28.2906 19.654,28.624 21,23.5C 21.4983,25.5444 22.665,26.8777 24.5,27.5C 25.476,34.3238 23.6427,35.6571 19,31.5C 16.722,26.1004 15.8887,20.4337 16.5,14.5C 19.1667,14.5 21.8333,14.5 24.5,14.5C 24.5,15.5 24.5,16.5 24.5,17.5 Z"/></g>
<g><path style="opacity:1" fill="#f3f6fa" d="M 24.5,17.5 C 25.9432,18.3351 26.9432,19.6684 27.5,21.5C 29.3112,16.2584 30.3112,16.5917 30.5,22.5C 30.3112,28.4083 29.3112,28.7416 27.5,23.5C 26.9432,25.3316 25.9432,26.6649 24.5,27.5C 24.5,24.1667 24.5,20.8333 24.5,17.5 Z"/></g>
<g><path style="opacity:1" fill="#0f3b94" d="M 24.5,17.5 C 24.5,20.8333 24.5,24.1667 24.5,27.5C 22.665,26.8777 21.4983,25.5444 21,23.5C 19.654,28.624 18.8207,28.2906 18.5,22.5C 18.582,16.3928 19.7487,16.0595 22,21.5C 22.1216,19.563 22.955,18.2297 24.5,17.5 Z"/></g>
</svg>
