<?xml version="1.0" encoding="UTF-8"?>
<!DOCTYPE svg PUBLIC "-//W3C//DTD SVG 1.1//EN" "http://www.w3.org/Graphics/SVG/1.1/DTD/svg11.dtd">
<svg xmlns="http://www.w3.org/2000/svg" version="1.1" width="50px" height="50px" style="shape-rendering:geometricPrecision; text-rendering:geometricPrecision; image-rendering:optimizeQuality; fill-rule:evenodd; clip-rule:evenodd" xmlns:xlink="http://www.w3.org/1999/xlink">
<g><path style="opacity:1" fill="#fcf9fa" d="M -0.5,-0.5 C 16.1667,-0.5 32.8333,-0.5 49.5,-0.5C 49.5,16.1667 49.5,32.8333 49.5,49.5C 32.8333,49.5 16.1667,49.5 -0.5,49.5C -0.5,32.8333 -0.5,16.1667 -0.5,-0.5 Z"/></g>
<g><path style="opacity:1" fill="#c82d3d" d="M 37.5,14.5 C 35.8031,16.3052 34.9698,18.6385 35,21.5C 33.8545,22.6843 32.6879,22.6843 31.5,21.5C 31.5424,17.9913 30.8758,14.658 29.5,11.5C 32.1667,11.5 34.8333,11.5 37.5,11.5C 37.5,12.5 37.5,13.5 37.5,14.5 Z"/></g>
<g><path style="opacity:1" fill="#c82e3d" d="M 16.5,23.5 C 14.5446,20.5221 12.8779,17.5221 11.5,14.5C 11.5,13.5 11.5,12.5 11.5,11.5C 14.1667,11.5 16.8333,11.5 19.5,11.5C 18.2723,15.5356 17.2723,19.5356 16.5,23.5 Z"/></g>
<g><path style="opacity:1" fill="#e9c0c9" d="M 11.5,14.5 C 12.8779,17.5221 14.5446,20.5221 16.5,23.5C 16.5,23.8333 16.5,24.1667 16.5,24.5C 14.5,23.1667 12.8333,21.5 11.5,19.5C 12.7199,17.9504 12.7199,16.2837 11.5,14.5 Z"/></g>
<g><path style="opacity:1" fill="#c41f35" d="M 11.5,19.5 C 12.8333,21.5 14.5,23.1667 16.5,24.5C 18.4628,25.9599 20.2962,27.6266 22,29.5C 22.6805,25.324 22.1805,21.324 20.5,17.5C 25.0177,16.8671 28.6844,18.2005 31.5,21.5C 31.4148,22.9953 32.0815,23.9953 33.5,24.5C 35.2882,23.7174 36.2882,22.3841 36.5,20.5C 39.5807,17.8075 43.2473,16.8075 47.5,17.5C 47.5,18.5 47.5,19.5 47.5,20.5C 46.5,20.5 45.5,20.5 44.5,20.5C 43.9106,24.9707 44.5772,28.9707 46.5,32.5C 44.3647,34.369 41.6981,35.0356 38.5,34.5C 40.3131,31.0708 40.8131,27.4041 40,23.5C 37.9218,26.7393 35.4218,29.406 32.5,31.5C 30.9335,28.7173 29.1001,26.0507 27,23.5C 26.5012,27.4862 26.3345,31.4862 26.5,35.5C 23.7743,35.7361 21.441,34.9028 19.5,33C 16.3246,29.4921 12.8246,26.3255 9,23.5C 8.18694,27.4041 8.68694,31.0708 10.5,34.5C 7.30195,35.0356 4.63528,34.369 2.5,32.5C 4.42277,28.9707 5.08943,24.9707 4.5,20.5C 3.5,20.5 2.5,20.5 1.5,20.5C 1.5,19.5 1.5,18.5 1.5,17.5C 5.16202,17.0339 8.49536,17.7006 11.5,19.5 Z"/></g>
<g><path style="opacity:1" fill="#e9bfc7" d="M 37.5,14.5 C 36.6586,16.3792 36.3253,18.3792 36.5,20.5C 36.2882,22.3841 35.2882,23.7174 33.5,24.5C 32.0815,23.9953 31.4148,22.9953 31.5,21.5C 32.6879,22.6843 33.8545,22.6843 35,21.5C 34.9698,18.6385 35.8031,16.3052 37.5,14.5 Z"/></g>
<g><path style="opacity:1" fill="#d56c7f" d="M 2.5,32.5 C 4.63528,34.369 7.30195,35.0356 10.5,34.5C 7.7131,35.4767 4.7131,35.81 1.5,35.5C 1.26269,34.209 1.59603,33.209 2.5,32.5 Z"/></g>
<g><path style="opacity:1" fill="#d46c7e" d="M 46.5,32.5 C 47.404,33.209 47.7373,34.209 47.5,35.5C 44.2869,35.81 41.2869,35.4767 38.5,34.5C 41.6981,35.0356 44.3647,34.369 46.5,32.5 Z"/></g>
<g><path style="opacity:1" fill="#c52138" d="M 32.5,31.5 C 37.0453,35.158 36.0453,38.3247 29.5,41C 25.8333,41.6667 22.1667,41.6667 18.5,41C 13.7762,38.5647 12.2762,34.7314 14,29.5C 16.5156,31.3629 18.0156,33.8629 18.5,37C 22.5,39 26.5,39 30.5,37C 31.1094,35.0517 31.776,33.2184 32.5,31.5 Z"/></g>
</svg>
