<?xml version="1.0" encoding="UTF-8"?>
<!DOCTYPE svg PUBLIC "-//W3C//DTD SVG 1.1//EN" "http://www.w3.org/Graphics/SVG/1.1/DTD/svg11.dtd">
<svg xmlns="http://www.w3.org/2000/svg" version="1.1" width="50px" height="50px" style="shape-rendering:geometricPrecision; text-rendering:geometricPrecision; image-rendering:optimizeQuality; fill-rule:evenodd; clip-rule:evenodd" xmlns:xlink="http://www.w3.org/1999/xlink">
<g><path style="opacity:1" fill="#f9f9fa" d="M -0.5,-0.5 C 16.1667,-0.5 32.8333,-0.5 49.5,-0.5C 49.5,9.5 49.5,19.5 49.5,29.5C 48.1213,28.3911 46.4547,27.7245 44.5,27.5C 39.9795,28.0348 35.3128,28.0348 30.5,27.5C 27.5,27.6667 24.5,27.8333 21.5,28C 20.7476,28.6708 20.4142,29.5041 20.5,30.5C 20.5,31.1667 20.1667,31.5 19.5,31.5C 19.5,30.1667 19.5,28.8333 19.5,27.5C 16.9885,27.838 14.6552,27.838 12.5,27.5C 11.4024,31.3605 10.5691,31.3605 10,27.5C 9.19322,31.449 8.69322,31.449 8.5,27.5C 5.83333,27.5 3.16667,27.5 0.5,27.5C 0.5,28.5 0.5,29.5 0.5,30.5C 0.166667,30.5 -0.166667,30.5 -0.5,30.5C -0.5,20.1667 -0.5,9.83333 -0.5,-0.5 Z"/></g>
<g><path style="opacity:1" fill="#bdc1d0" d="M 4.5,8.5 C 7.16667,8.5 9.83333,8.5 12.5,8.5C 12.5,9.83333 12.5,11.1667 12.5,12.5C 9.83333,12.5 7.16667,12.5 4.5,12.5C 4.5,11.1667 4.5,9.83333 4.5,8.5 Z"/></g>
<g><path style="opacity:1" fill="#878ea9" d="M 36.5,15.5 C 39.5184,14.6815 42.5184,14.5148 45.5,15C 44.1068,16.1711 43.2735,17.6711 43,19.5C 41.4772,14.3203 39.9772,14.3203 38.5,19.5C 37.8281,18.0508 37.1614,16.7175 36.5,15.5 Z"/></g>
<g><path style="opacity:1" fill="#6e7596" d="M 12.5,16.5 C 13.1098,17.391 13.4431,18.391 13.5,19.5C 12.5416,19.0472 11.7083,18.3805 11,17.5C 10.6667,18.1667 10.3333,18.8333 10,19.5C 8.77212,15.1411 9.60545,14.1411 12.5,16.5 Z"/></g>
<g><path style="opacity:1" fill="#7e84a2" d="M 17.5,14.5 C 18.4584,14.9528 19.2917,15.6195 20,16.5C 21.4178,14.6368 23.2511,14.1368 25.5,15C 24.5399,16.4194 23.7065,17.9194 23,19.5C 22.6667,18.1667 22.3333,16.8333 22,15.5C 19.8249,20.7472 18.3249,20.4139 17.5,14.5 Z"/></g>
<g><path style="opacity:1" fill="#b6bbca" d="M 13.5,19.5 C 13.4431,18.391 13.1098,17.391 12.5,16.5C 13.2937,13.8481 13.9604,14.0148 14.5,17C 14.472,18.0698 14.1386,18.9032 13.5,19.5 Z"/></g>
<g><path style="opacity:1" fill="#8f95ae" d="M 26.5,14.5 C 27.5,14.5 28.5,14.5 29.5,14.5C 29.238,15.9778 29.5713,17.3112 30.5,18.5C 30.9059,17.4425 30.9059,16.1092 30.5,14.5C 31.552,14.3505 32.552,14.5172 33.5,15C 33.0338,16.2988 33.0338,17.7988 33.5,19.5C 31.1229,19.2155 28.9562,19.2155 27,19.5C 26.5065,17.8659 26.3398,16.1992 26.5,14.5 Z"/></g>
<g><path style="opacity:1" fill="#adb2c4" d="M 4.5,21.5 C 6.16667,21.5 7.83333,21.5 9.5,21.5C 9.5,22.8333 9.5,24.1667 9.5,25.5C 7.80081,25.6602 6.13414,25.4935 4.5,25C 3.3157,23.8545 3.3157,22.6879 4.5,21.5 Z"/></g>
<g><path style="opacity:1" fill="#a5aabf" d="M 35.5,24.5 C 33.3926,25.4682 31.0593,25.8016 28.5,25.5C 28.5,24.5 28.5,23.5 28.5,22.5C 30.2012,22.9662 31.7012,22.9662 33,22.5C 33.4169,23.756 34.2502,24.4226 35.5,24.5 Z"/></g>
<g><path style="opacity:1" fill="#949bb3" d="M 11.5,21.5 C 12.9311,21.8807 13.7645,22.8807 14,24.5C 15.0875,22.0684 15.5875,22.4017 15.5,25.5C 14.1667,25.5 12.8333,25.5 11.5,25.5C 11.5,24.1667 11.5,22.8333 11.5,21.5 Z"/></g>
<g><path style="opacity:1" fill="#aaafc3" d="M 18.5,21.5 C 21.3243,21.892 24.3243,21.892 27.5,21.5C 27.762,22.9778 27.4287,24.3112 26.5,25.5C 23.121,24.747 19.9543,24.747 17,25.5C 16.516,23.8067 17.016,22.4733 18.5,21.5 Z"/></g>
<g><path style="opacity:1" fill="#b7bccc" d="M 35.5,24.5 C 35.5,23.5 35.5,22.5 35.5,21.5C 38.1873,21.3359 40.854,21.5026 43.5,22C 44.3366,23.0113 44.67,24.1779 44.5,25.5C 41.3915,25.7359 38.3915,25.4025 35.5,24.5 Z"/></g>
<g><path style="opacity:1" fill="#e9dcb1" d="M 19.5,31.5 C 15.601,30.8171 11.601,30.6504 7.5,31C 6.33333,30.5 5.5,29.6667 5,28.5C 4.37405,30.9913 3.54072,30.9913 2.5,28.5C 1.81815,29.2427 1.15149,29.9094 0.5,30.5C 0.5,29.5 0.5,28.5 0.5,27.5C 3.16667,27.5 5.83333,27.5 8.5,27.5C 8.69322,31.449 9.19322,31.449 10,27.5C 10.5691,31.3605 11.4024,31.3605 12.5,27.5C 14.6552,27.838 16.9885,27.838 19.5,27.5C 19.5,28.8333 19.5,30.1667 19.5,31.5 Z"/></g>
<g><path style="opacity:1" fill="#fefefe" d="M 19.5,31.5 C 20.1667,31.5 20.5,31.1667 20.5,30.5C 21.7498,30.4226 22.5831,29.756 23,28.5C 24.5675,30.2372 26.5675,31.2372 29,31.5C 35.5738,31.0035 42.4072,31.0035 49.5,31.5C 49.5,37.5 49.5,43.5 49.5,49.5C 32.8333,49.5 16.1667,49.5 -0.5,49.5C -0.5,43.1667 -0.5,36.8333 -0.5,30.5C -0.166667,30.5 0.166667,30.5 0.5,30.5C 1.15149,29.9094 1.81815,29.2427 2.5,28.5C 3.54072,30.9913 4.37405,30.9913 5,28.5C 5.5,29.6667 6.33333,30.5 7.5,31C 11.601,30.6504 15.601,30.8171 19.5,31.5 Z"/></g>
<g><path style="opacity:1" fill="#eee3c2" d="M 49.5,29.5 C 49.5,30.1667 49.5,30.8333 49.5,31.5C 42.4072,31.0035 35.5738,31.0035 29,31.5C 26.5675,31.2372 24.5675,30.2372 23,28.5C 22.5831,29.756 21.7498,30.4226 20.5,30.5C 20.4142,29.5041 20.7476,28.6708 21.5,28C 24.5,27.8333 27.5,27.6667 30.5,27.5C 35.3128,28.0348 39.9795,28.0348 44.5,27.5C 46.4547,27.7245 48.1213,28.3911 49.5,29.5 Z"/></g>
</svg>
