<?xml version="1.0" encoding="UTF-8"?>
<!DOCTYPE svg PUBLIC "-//W3C//DTD SVG 1.1//EN" "http://www.w3.org/Graphics/SVG/1.1/DTD/svg11.dtd">
<svg xmlns="http://www.w3.org/2000/svg" version="1.1" width="50px" height="50px" style="shape-rendering:geometricPrecision; text-rendering:geometricPrecision; image-rendering:optimizeQuality; fill-rule:evenodd; clip-rule:evenodd" xmlns:xlink="http://www.w3.org/1999/xlink">
<g><path style="opacity:1" fill="#5a0209" d="M -0.5,-0.5 C 16.1667,-0.5 32.8333,-0.5 49.5,-0.5C 49.5,2.83333 49.5,6.16667 49.5,9.5C 45.2538,10.0439 41.7538,12.0439 39,15.5C 40.1182,12.0301 42.4516,9.36344 46,7.5C 46.7494,6.36495 46.5827,5.36495 45.5,4.5C 42.4728,6.86048 39.8062,9.52714 37.5,12.5C 35.1938,9.52714 32.5272,6.86048 29.5,4.5C 28.4173,5.36495 28.2506,6.36495 29,7.5C 32.5484,9.36344 34.8818,12.0301 36,15.5C 32.7868,11.4765 28.6201,9.47647 23.5,9.5C 23.5,10.5 23.5,11.5 23.5,12.5C 26.4005,12.2796 29.0671,12.9462 31.5,14.5C 28.614,14.7104 25.614,14.8771 22.5,15C 20.5049,15.9236 20.1716,17.0903 21.5,18.5C 19.3354,22.8379 20.6687,24.8379 25.5,24.5C 27.8333,24.5 30.1667,24.5 32.5,24.5C 32.7373,25.791 32.404,26.791 31.5,27.5C 31.1205,26.8669 30.7871,26.2003 30.5,25.5C 29.3554,26.7757 29.3554,28.109 30.5,29.5C 29.675,30.3857 28.675,30.719 27.5,30.5C 27.2865,28.8561 27.6198,27.3561 28.5,26C 25.3366,25.896 22.3366,25.7294 19.5,25.5C 19.7678,23.901 19.4345,22.5676 18.5,21.5C 18.121,20.1938 17.7876,18.8605 17.5,17.5C 14.348,17.7121 11.0147,17.7121 7.5,17.5C 7.66913,22.0407 7.00247,22.374 5.5,18.5C 4.91395,18.7093 4.41395,19.0426 4,19.5C 3.22039,21.3869 3.38705,23.0536 4.5,24.5C 4.5,24.8333 4.5,25.1667 4.5,25.5C 3.20056,27.1534 3.5339,28.6534 5.5,30C 4.83333,30.3333 4.16667,30.6667 3.5,31C 4.74943,31.7401 5.74943,31.5735 6.5,30.5C 6.83333,30.5 7.16667,30.5 7.5,30.5C 7.5,31.1667 7.83333,31.5 8.5,31.5C 10.0496,32.7199 11.7163,32.7199 13.5,31.5C 15.8333,32.8333 18.1667,32.8333 20.5,31.5C 24.4843,31.6878 28.4843,31.3545 32.5,30.5C 33.8117,32.7432 34.4783,35.4098 34.5,38.5C 34.4377,41.6128 33.7711,44.4461 32.5,47C 33.2524,47.6708 33.5858,48.5041 33.5,49.5C 22.1667,49.5 10.8333,49.5 -0.5,49.5C -0.5,32.8333 -0.5,16.1667 -0.5,-0.5 Z"/></g>
<g><path style="opacity:1" fill="#cbb2b3" d="M 18.5,21.5 C 18.5,22.5 18.5,23.5 18.5,24.5C 15.7952,24.6198 15.1285,23.6198 16.5,21.5C 16.1924,20.6919 15.6924,20.0253 15,19.5C 14,26.1667 13,26.1667 12,19.5C 11.6667,21.1667 11.3333,22.8333 11,24.5C 8.80557,24.3704 6.63891,24.3704 4.5,24.5C 3.38705,23.0536 3.22039,21.3869 4,19.5C 4.41395,19.0426 4.91395,18.7093 5.5,18.5C 7.00247,22.374 7.66913,22.0407 7.5,17.5C 11.0147,17.7121 14.348,17.7121 17.5,17.5C 17.7876,18.8605 18.121,20.1938 18.5,21.5 Z"/></g>
<g><path style="opacity:1" fill="#d6c0c2" d="M 25.5,24.5 C 20.6687,24.8379 19.3354,22.8379 21.5,18.5C 22.1499,18.1961 22.8165,17.8627 23.5,17.5C 24.9438,19.6079 25.6104,21.9412 25.5,24.5 Z"/></g>
<g><path style="opacity:1" fill="#783738" d="M 18.5,21.5 C 19.4345,22.5676 19.7678,23.901 19.5,25.5C 19.19,26.7383 18.69,26.7383 18,25.5C 17.3333,27.5 17.3333,29.5 18,31.5C 18.7697,30.4019 19.603,30.4019 20.5,31.5C 18.1667,32.8333 15.8333,32.8333 13.5,31.5C 11.7163,32.7199 10.0496,32.7199 8.5,31.5C 9.23891,31.631 9.90558,31.4643 10.5,31C 7.99744,29.4506 7.99744,27.7839 10.5,26C 9.55085,25.3828 8.71752,25.5494 8,26.5C 7.50999,27.7932 7.34332,29.1266 7.5,30.5C 7.16667,30.5 6.83333,30.5 6.5,30.5C 5.58679,28.9139 5.58679,27.4139 6.5,26C 5.90558,25.5357 5.23891,25.369 4.5,25.5C 4.5,25.1667 4.5,24.8333 4.5,24.5C 6.63891,24.3704 8.80557,24.3704 11,24.5C 11.3333,22.8333 11.6667,21.1667 12,19.5C 13,26.1667 14,26.1667 15,19.5C 15.6924,20.0253 16.1924,20.6919 16.5,21.5C 15.1285,23.6198 15.7952,24.6198 18.5,24.5C 18.5,23.5 18.5,22.5 18.5,21.5 Z"/></g>
<g><path style="opacity:1" fill="#d4c2c3" d="M 13.5,31.5 C 13.5,29.5 13.5,27.5 13.5,25.5C 14.552,25.3505 15.552,25.5172 16.5,26C 15.1667,27.6667 15.1667,29.3333 16.5,31C 15.552,31.4828 14.552,31.6495 13.5,31.5 Z"/></g>
<g><path style="opacity:1" fill="#e8dddd" d="M 8.5,31.5 C 7.83333,31.5 7.5,31.1667 7.5,30.5C 7.34332,29.1266 7.50999,27.7932 8,26.5C 8.71752,25.5494 9.55085,25.3828 10.5,26C 7.99744,27.7839 7.99744,29.4506 10.5,31C 9.90558,31.4643 9.23891,31.631 8.5,31.5 Z"/></g>
<g><path style="opacity:1" fill="#610008" d="M 49.5,9.5 C 49.5,22.8333 49.5,36.1667 49.5,49.5C 44.1667,49.5 38.8333,49.5 33.5,49.5C 33.5858,48.5041 33.2524,47.6708 32.5,47C 33.7711,44.4461 34.4377,41.6128 34.5,38.5C 34.4783,35.4098 33.8117,32.7432 32.5,30.5C 32.4431,29.391 32.1098,28.391 31.5,27.5C 32.404,26.791 32.7373,25.791 32.5,24.5C 30.1667,24.5 27.8333,24.5 25.5,24.5C 25.6104,21.9412 24.9438,19.6079 23.5,17.5C 22.8165,17.8627 22.1499,18.1961 21.5,18.5C 20.1716,17.0903 20.5049,15.9236 22.5,15C 25.614,14.8771 28.614,14.7104 31.5,14.5C 29.0671,12.9462 26.4005,12.2796 23.5,12.5C 23.5,11.5 23.5,10.5 23.5,9.5C 28.6201,9.47647 32.7868,11.4765 36,15.5C 34.8818,12.0301 32.5484,9.36344 29,7.5C 28.2506,6.36495 28.4173,5.36495 29.5,4.5C 32.5272,6.86048 35.1938,9.52714 37.5,12.5C 39.8062,9.52714 42.4728,6.86048 45.5,4.5C 46.5827,5.36495 46.7494,6.36495 46,7.5C 42.4516,9.36344 40.1182,12.0301 39,15.5C 41.7538,12.0439 45.2538,10.0439 49.5,9.5 Z"/></g>
<g><path style="opacity:1" fill="#ded0d1" d="M 4.5,25.5 C 5.23891,25.369 5.90558,25.5357 6.5,26C 5.58679,27.4139 5.58679,28.9139 6.5,30.5C 5.74943,31.5735 4.74943,31.7401 3.5,31C 4.16667,30.6667 4.83333,30.3333 5.5,30C 3.5339,28.6534 3.20056,27.1534 4.5,25.5 Z"/></g>
<g><path style="opacity:1" fill="#d7c0c2" d="M 19.5,25.5 C 22.3366,25.7294 25.3366,25.896 28.5,26C 27.6198,27.3561 27.2865,28.8561 27.5,30.5C 28.675,30.719 29.675,30.3857 30.5,29.5C 29.3554,28.109 29.3554,26.7757 30.5,25.5C 30.7871,26.2003 31.1205,26.8669 31.5,27.5C 32.1098,28.391 32.4431,29.391 32.5,30.5C 28.4843,31.3545 24.4843,31.6878 20.5,31.5C 19.603,30.4019 18.7697,30.4019 18,31.5C 17.3333,29.5 17.3333,27.5 18,25.5C 18.69,26.7383 19.19,26.7383 19.5,25.5 Z"/></g>
<g><path style="opacity:1" fill="#6b080d" d="M 23.5,26.5 C 24.5862,26.62 25.2528,27.2867 25.5,28.5C 25.1667,29.1667 24.8333,29.8333 24.5,30.5C 23.5713,29.3112 23.238,27.9778 23.5,26.5 Z"/></g>
</svg>
