<?xml version="1.0" encoding="UTF-8"?>
<!DOCTYPE svg PUBLIC "-//W3C//DTD SVG 1.1//EN" "http://www.w3.org/Graphics/SVG/1.1/DTD/svg11.dtd">
<svg xmlns="http://www.w3.org/2000/svg" version="1.1" width="50px" height="50px" style="shape-rendering:geometricPrecision; text-rendering:geometricPrecision; image-rendering:optimizeQuality; fill-rule:evenodd; clip-rule:evenodd" xmlns:xlink="http://www.w3.org/1999/xlink">
<g><path style="opacity:1" fill="#faf9f9" d="M -0.5,-0.5 C 16.1667,-0.5 32.8333,-0.5 49.5,-0.5C 49.5,16.1667 49.5,32.8333 49.5,49.5C 32.8333,49.5 16.1667,49.5 -0.5,49.5C -0.5,32.8333 -0.5,16.1667 -0.5,-0.5 Z"/></g>
<g><path style="opacity:1" fill="#cc0c09" d="M 27.5,13.5 C 26.5318,15.6074 26.1984,17.9407 26.5,20.5C 28.1667,20.5 29.8333,20.5 31.5,20.5C 31.8016,17.9407 31.4682,15.6074 30.5,13.5C 30.5,12.1667 30.5,10.8333 30.5,9.5C 32.8333,9.5 35.1667,9.5 37.5,9.5C 37.5,10.8333 37.5,12.1667 37.5,13.5C 38.3761,23.121 34.0427,26.9543 24.5,25C 23.6667,24.1667 22.8333,23.3333 22,22.5C 21.8195,19.3054 21.3195,16.3054 20.5,13.5C 20.5,12.1667 20.5,10.8333 20.5,9.5C 22.8333,9.5 25.1667,9.5 27.5,9.5C 27.5,10.8333 27.5,12.1667 27.5,13.5 Z"/></g>
<g><path style="opacity:1" fill="#d54645" d="M 28.5,13.5 C 28.1667,13.5 27.8333,13.5 27.5,13.5C 27.5,12.1667 27.5,10.8333 27.5,9.5C 25.1667,9.5 22.8333,9.5 20.5,9.5C 20.5,10.8333 20.5,12.1667 20.5,13.5C 19.5489,12.0813 19.2155,10.4147 19.5,8.5C 22.5,8.5 25.5,8.5 28.5,8.5C 28.5,10.1667 28.5,11.8333 28.5,13.5 Z"/></g>
<g><path style="opacity:1" fill="#d64c4b" d="M 37.5,13.5 C 37.5,12.1667 37.5,10.8333 37.5,9.5C 35.1667,9.5 32.8333,9.5 30.5,9.5C 30.5,10.8333 30.5,12.1667 30.5,13.5C 29.5489,12.0813 29.2155,10.4147 29.5,8.5C 32.5,8.5 35.5,8.5 38.5,8.5C 38.7845,10.4147 38.4511,12.0813 37.5,13.5 Z"/></g>
<g><path style="opacity:1" fill="#edbfbc" d="M 27.5,13.5 C 27.8333,13.5 28.1667,13.5 28.5,13.5C 27.6586,15.3792 27.3253,17.3792 27.5,19.5C 28.5,19.5 29.5,19.5 30.5,19.5C 30.5,17.5 30.5,15.5 30.5,13.5C 31.4682,15.6074 31.8016,17.9407 31.5,20.5C 29.8333,20.5 28.1667,20.5 26.5,20.5C 26.1984,17.9407 26.5318,15.6074 27.5,13.5 Z"/></g>
<g><path style="opacity:1" fill="#bdbdbd" d="M 38.5,28.5 C 41.6751,27.5562 44.6751,27.5562 47.5,28.5C 46.9851,30.2251 46.3184,31.8917 45.5,33.5C 43.6399,28.3858 41.9732,28.3858 40.5,33.5C 39.8302,31.7086 39.1635,30.0419 38.5,28.5 Z"/></g>
<g><path style="opacity:1" fill="#aeaeae" d="M 10.5,27.5 C 11.6491,27.7911 12.3158,28.6244 12.5,30C 11.9555,33.0125 10.7888,33.1792 9,30.5C 8.23703,33.0635 7.73703,33.0635 7.5,30.5C 7.8242,28.4311 8.65753,28.0977 10,29.5C 10.4643,28.9056 10.631,28.2389 10.5,27.5 Z"/></g>
<g><path style="opacity:1" fill="#b4b4b4" d="M 26.5,27.5 C 27.5,27.5 28.5,27.5 29.5,27.5C 29.5,28.8333 29.5,30.1667 29.5,31.5C 30.552,31.6495 31.552,31.4828 32.5,31C 31.3266,27.8897 31.8266,27.723 34,30.5C 34.6172,31.4491 34.4506,32.2825 33.5,33C 31.2992,33.8249 29.4659,33.3249 28,31.5C 27.6667,31.8333 27.3333,32.1667 27,32.5C 26.5065,30.8659 26.3398,29.1992 26.5,27.5 Z"/></g>
<g><path style="opacity:1" fill="#b9b9b9" d="M 18.5,35.5 C 19.1614,36.7175 19.8281,38.0508 20.5,39.5C 21.4287,38.3112 21.762,36.9778 21.5,35.5C 23.1667,35.5 24.8333,35.5 26.5,35.5C 26.2912,41.2611 25.4578,41.5945 24,36.5C 23.6929,39.8762 21.8595,41.2096 18.5,40.5C 18.5,38.8333 18.5,37.1667 18.5,35.5 Z"/></g>
<g><path style="opacity:1" fill="#9a9a9a" d="M 29.5,35.5 C 31.5622,36.5046 32.3955,38.1713 32,40.5C 31,39.1667 30,39.1667 29,40.5C 28.6155,38.8034 28.7822,37.1368 29.5,35.5 Z"/></g>
<g><path style="opacity:1" fill="#b2b2b2" d="M 33.5,35.5 C 34.7498,35.5774 35.5831,36.244 36,37.5C 36.3076,36.6919 36.8076,36.0253 37.5,35.5C 38.8333,37.1667 38.8333,38.8333 37.5,40.5C 36.8076,39.9747 36.3076,39.3081 36,38.5C 35.6924,39.3081 35.1924,39.9747 34.5,40.5C 33.5481,38.9547 33.2148,37.288 33.5,35.5 Z"/></g>
</svg>
