<?xml version="1.0" encoding="UTF-8"?>
<!DOCTYPE svg PUBLIC "-//W3C//DTD SVG 1.1//EN" "http://www.w3.org/Graphics/SVG/1.1/DTD/svg11.dtd">
<svg xmlns="http://www.w3.org/2000/svg" version="1.1" width="50px" height="50px" style="shape-rendering:geometricPrecision; text-rendering:geometricPrecision; image-rendering:optimizeQuality; fill-rule:evenodd; clip-rule:evenodd" xmlns:xlink="http://www.w3.org/1999/xlink">
<g><path style="opacity:1" fill="#bf5904" d="M -0.5,-0.5 C 16.1667,-0.5 32.8333,-0.5 49.5,-0.5C 49.5,16.1667 49.5,32.8333 49.5,49.5C 32.8333,49.5 16.1667,49.5 -0.5,49.5C -0.5,32.8333 -0.5,16.1667 -0.5,-0.5 Z"/></g>
<g><path style="opacity:1" fill="#dba170" d="M 29.5,10.5 C 28.7677,9.19174 27.9344,7.85841 27,6.5C 26.5172,7.44802 26.3505,8.44802 26.5,9.5C 25.1667,9.5 23.8333,9.5 22.5,9.5C 22.719,8.32496 22.3857,7.32496 21.5,6.5C 20.8281,7.94916 20.1614,9.2825 19.5,10.5C 19.5,8.83333 19.5,7.16667 19.5,5.5C 22.8333,5.5 26.1667,5.5 29.5,5.5C 29.5,7.16667 29.5,8.83333 29.5,10.5 Z"/></g>
<g><path style="opacity:1" fill="#d2884b" d="M 29.5,10.5 C 29.7373,11.791 29.404,12.791 28.5,13.5C 28.6309,12.6236 28.2975,11.9569 27.5,11.5C 25.5,15.5 23.5,15.5 21.5,11.5C 20.7025,11.9569 20.3691,12.6236 20.5,13.5C 19.596,12.791 19.2627,11.791 19.5,10.5C 20.1614,9.2825 20.8281,7.94916 21.5,6.5C 22.3857,7.32496 22.719,8.32496 22.5,9.5C 23.8333,9.5 25.1667,9.5 26.5,9.5C 26.3505,8.44802 26.5172,7.44802 27,6.5C 27.9344,7.85841 28.7677,9.19174 29.5,10.5 Z"/></g>
<g><path style="opacity:1" fill="#dda475" d="M 28.5,13.5 C 28.021,15.8445 26.521,17.1778 24,17.5C 21.9264,16.9283 20.7598,15.595 20.5,13.5C 20.3691,12.6236 20.7025,11.9569 21.5,11.5C 23.5,15.5 25.5,15.5 27.5,11.5C 28.2975,11.9569 28.6309,12.6236 28.5,13.5 Z"/></g>
<g><path style="opacity:1" fill="#eed1b9" d="M 3.5,20.5 C 6.24688,20.1866 8.91355,20.52 11.5,21.5C 11.0623,22.5063 10.3957,22.5063 9.5,21.5C 8.21748,24.3719 8.21748,27.2053 9.5,30C 5.38345,31.109 4.38345,29.609 6.5,25.5C 6.16667,24.1667 5.83333,22.8333 5.5,21.5C 4.05604,22.981 3.38937,22.6477 3.5,20.5 Z"/></g>
<g><path style="opacity:1" fill="#f6e4d6" d="M 15.5,25.5 C 14.9987,27.246 14.3321,28.246 13.5,28.5C 13.7683,25.8806 13.435,23.3806 12.5,21C 14.9018,20.1859 17.2351,20.3526 19.5,21.5C 18.1125,21.8072 16.4458,21.8072 14.5,21.5C 14.3537,23.9424 15.187,24.6091 17,23.5C 17.8531,25.9476 17.3531,26.6143 15.5,25.5 Z"/></g>
<g><path style="opacity:1" fill="#e7bb98" d="M 34.5,25.5 C 34.8333,26.1667 35.1667,26.8333 35.5,27.5C 34.1667,27.5 32.8333,27.5 31.5,27.5C 31.5,28.5 31.5,29.5 31.5,30.5C 29.5,30.5 27.5,30.5 25.5,30.5C 25.281,25.3706 24.6144,25.3706 23.5,30.5C 22.448,30.6495 21.448,30.4828 20.5,30C 23.8639,27.2709 24.1972,24.2709 21.5,21C 23.1134,20.9115 24.2801,21.7448 25,23.5C 25.9057,21.388 27.4057,20.5547 29.5,21C 25.8226,23.3365 25.656,25.8365 29,28.5C 30.4768,27.556 31.4768,26.2226 32,24.5C 32.6708,25.2524 33.5041,25.5858 34.5,25.5 Z"/></g>
<g><path style="opacity:1" fill="#efcfb6" d="M 43.5,29.5 C 43.6495,28.448 43.4828,27.448 43,26.5C 38.5874,24.4384 38.4208,22.1051 42.5,19.5C 43.6721,19.9186 44.6721,20.5853 45.5,21.5C 44.1667,21.8333 42.8333,22.1667 41.5,22.5C 43.0971,23.7908 44.4304,25.2908 45.5,27C 45.3613,28.301 44.6946,29.1344 43.5,29.5 Z"/></g>
<g><path style="opacity:1" fill="#efd1b9" d="M 43.5,29.5 C 40.9802,29.3643 38.3135,29.6976 35.5,30.5C 35.5,29.5 35.5,28.5 35.5,27.5C 35.1667,26.8333 34.8333,26.1667 34.5,25.5C 34.2786,24.2652 33.6119,23.2652 32.5,22.5C 32.8076,21.6919 33.3076,21.0253 34,20.5C 35.3399,23.2019 36.6733,25.8685 38,28.5C 38.414,28.0426 38.914,27.7093 39.5,27.5C 40.6223,28.6302 41.9557,29.2969 43.5,29.5 Z"/></g>
<g><path style="opacity:1" fill="#d99965" d="M 15.5,25.5 C 15.5,26.5 15.5,27.5 15.5,28.5C 20.3056,28.9514 20.4722,29.6181 16,30.5C 14.8333,30.1667 13.6667,29.8333 12.5,29.5C 12.6236,28.8933 12.9569,28.56 13.5,28.5C 14.3321,28.246 14.9987,27.246 15.5,25.5 Z"/></g>
<g><path style="opacity:1" fill="#e4b690" d="M 30.5,36.5 C 29.8112,37.7072 29.6446,39.0406 30,40.5C 29.6174,39.944 29.1174,39.6107 28.5,39.5C 27.0857,37.4017 27.7524,36.4017 30.5,36.5 Z"/></g>
<g><path style="opacity:1" fill="#e4b791" d="M 44.5,40.5 C 44.5,39.8333 44.1667,39.5 43.5,39.5C 42.1144,37.2395 42.7811,36.4062 45.5,37C 45.3474,38.2087 45.0141,39.3754 44.5,40.5 Z"/></g>
<g><path style="opacity:1" fill="#e6bc99" d="M 14.5,36.5 C 16.5,36.5 18.5,36.5 20.5,36.5C 20.5432,40.8926 20.0432,41.2259 19,37.5C 18,41.5 17,41.5 16,37.5C 14.9568,41.2259 14.4568,40.8926 14.5,36.5 Z"/></g>
<g><path style="opacity:1" fill="#dca070" d="M 28.5,39.5 C 28.5,40.1667 28.1667,40.5 27.5,40.5C 25.6112,39.6201 23.6112,39.6201 21.5,40.5C 21.238,39.0222 21.5713,37.6888 22.5,36.5C 23.5,37.8333 24.5,37.8333 25.5,36.5C 26.6956,36.8457 26.6956,37.3457 25.5,38C 26.2438,39.0386 27.2438,39.5386 28.5,39.5 Z"/></g>
<g><path style="opacity:1" fill="#e8c3a3" d="M 10.5,37.5 C 11.4687,36.6906 12.3021,35.6906 13,34.5C 13.4955,36.4727 13.6621,38.4727 13.5,40.5C 12.1667,40.5 10.8333,40.5 9.5,40.5C 9.26269,39.209 9.59603,38.209 10.5,37.5 Z"/></g>
<g><path style="opacity:1" fill="#c36113" d="M 10.5,37.5 C 12.337,37.6395 12.6704,38.3061 11.5,39.5C 10.7025,39.0431 10.3691,38.3764 10.5,37.5 Z"/></g>
<g><path style="opacity:1" fill="#e6bc9a" d="M 34.5,36.5 C 36.8333,36.5 39.1667,36.5 41.5,36.5C 41.2852,38.1788 41.9519,39.1788 43.5,39.5C 42.791,40.404 41.791,40.7373 40.5,40.5C 40.3068,36.551 39.8068,36.551 39,40.5C 38.6411,37.4557 37.9745,37.1224 37,39.5C 36.3021,38.3094 35.4687,37.3094 34.5,36.5 Z"/></g>
<g><path style="opacity:1" fill="#dea678" d="M 5.5,34.5 C 7.77188,35.7967 8.60522,37.7967 8,40.5C 6.575,39.7877 5.075,39.621 3.5,40C 4.46403,38.2745 5.1307,36.4412 5.5,34.5 Z"/></g>
<g><path style="opacity:1" fill="#cf7c3c" d="M 34.5,36.5 C 35.4687,37.3094 36.3021,38.3094 37,39.5C 37.9745,37.1224 38.6411,37.4557 39,40.5C 39.8068,36.551 40.3068,36.551 40.5,40.5C 41.791,40.7373 42.791,40.404 43.5,39.5C 44.1667,39.5 44.5,39.8333 44.5,40.5C 38.6175,41.0488 32.9509,41.0488 27.5,40.5C 28.1667,40.5 28.5,40.1667 28.5,39.5C 29.1174,39.6107 29.6174,39.944 30,40.5C 29.6446,39.0406 29.8112,37.7072 30.5,36.5C 31.1515,35.9094 31.8182,35.2427 32.5,34.5C 33.1818,35.2427 33.8485,35.9094 34.5,36.5 Z"/></g>
</svg>
