<?xml version="1.0" encoding="UTF-8"?>
<!DOCTYPE svg PUBLIC "-//W3C//DTD SVG 1.1//EN" "http://www.w3.org/Graphics/SVG/1.1/DTD/svg11.dtd">
<svg xmlns="http://www.w3.org/2000/svg" version="1.1" width="50px" height="50px" style="shape-rendering:geometricPrecision; text-rendering:geometricPrecision; image-rendering:optimizeQuality; fill-rule:evenodd; clip-rule:evenodd" xmlns:xlink="http://www.w3.org/1999/xlink">
<g><path style="opacity:1" fill="#087157" d="M -0.5,-0.5 C 16.1667,-0.5 32.8333,-0.5 49.5,-0.5C 49.5,16.1667 49.5,32.8333 49.5,49.5C 44.5,49.5 39.5,49.5 34.5,49.5C 34.5,48.5 34.5,47.5 34.5,46.5C 35.404,45.791 35.7373,44.791 35.5,43.5C 33.4862,43.6085 31.8195,42.9418 30.5,41.5C 30.5,40.5 30.5,39.5 30.5,38.5C 30.5,36.1667 30.5,33.8333 30.5,31.5C 30.4431,30.391 30.1098,29.391 29.5,28.5C 28.6586,24.8019 27.6586,21.1352 26.5,17.5C 25.7025,17.9569 25.3691,18.6236 25.5,19.5C 24.8094,23.5957 23.8094,27.5957 22.5,31.5C 22.5,33.1667 22.5,34.8333 22.5,36.5C 22.5,37.8333 22.5,39.1667 22.5,40.5C 21.6255,42.69 19.9589,43.69 17.5,43.5C 17.2322,45.099 17.5655,46.4324 18.5,47.5C 18.5,48.1667 18.5,48.8333 18.5,49.5C 12.1667,49.5 5.83333,49.5 -0.5,49.5C -0.5,32.8333 -0.5,16.1667 -0.5,-0.5 Z"/></g>
<g><path style="opacity:1" fill="#e9f2f0" d="M 4.5,5.5 C 6.23711,8.00804 7.07044,11.008 7,14.5C 8.66667,15.8333 10.3333,15.8333 12,14.5C 12.1786,11.4465 12.6786,8.44651 13.5,5.5C 15.288,10.1889 14.6213,14.3556 11.5,18C 8.69174,18.9201 6.52508,18.0867 5,15.5C 4.50166,12.1832 4.33499,8.8499 4.5,5.5 Z"/></g>
<g><path style="opacity:1" fill="#f0f7f5" d="M 29.5,5.5 C 32.1435,7.15333 34.1435,9.48666 35.5,12.5C 36.9213,9.99058 38.5879,7.65725 40.5,5.5C 41.8333,9.5 41.8333,13.5 40.5,17.5C 39.6922,15.5767 39.1922,13.5767 39,11.5C 36.6667,16.8333 34.3333,16.8333 32,11.5C 31.8078,13.5767 31.3078,15.5767 30.5,17.5C 29.5091,13.5546 29.1758,9.55461 29.5,5.5 Z"/></g>
<g><path style="opacity:1" fill="#e0edea" d="M 16.5,5.5 C 17.4959,5.41423 18.3292,5.74756 19,6.5C 20.2754,8.71728 21.2754,11.0506 22,13.5C 23.2328,10.5829 24.7328,7.91626 26.5,5.5C 26.8333,6 27.1667,6.5 27.5,7C 26.0288,10.1091 24.6954,13.2757 23.5,16.5C 22.675,17.3857 21.675,17.719 20.5,17.5C 19.3682,13.4379 18.0349,9.4379 16.5,5.5 Z"/></g>
<g><path style="opacity:1" fill="#9caf37" d="M 3.5,20.5 C 7.22605,20.1774 10.8927,20.5108 14.5,21.5C 12.6667,21.8333 10.8333,22.1667 9,22.5C 6.70469,22.4535 4.87135,21.7868 3.5,20.5 Z"/></g>
<g><path style="opacity:1" fill="#509a4c" d="M 29.5,28.5 C 28.5,28.5 27.5,28.5 26.5,28.5C 26.81,25.2869 26.4767,22.2869 25.5,19.5C 25.3691,18.6236 25.7025,17.9569 26.5,17.5C 27.6586,21.1352 28.6586,24.8019 29.5,28.5 Z"/></g>
<g><path style="opacity:1" fill="#88b845" d="M 25.5,19.5 C 26.4767,22.2869 26.81,25.2869 26.5,28.5C 27.5,28.5 28.5,28.5 29.5,28.5C 30.1098,29.391 30.4431,30.391 30.5,31.5C 27.8333,31.5 25.1667,31.5 22.5,31.5C 23.8094,27.5957 24.8094,23.5957 25.5,19.5 Z"/></g>
<g><path style="opacity:1" fill="#4e9a4d" d="M 22.5,31.5 C 25.1667,31.5 27.8333,31.5 30.5,31.5C 30.5,33.8333 30.5,36.1667 30.5,38.5C 28.1998,36.7982 25.5331,36.1315 22.5,36.5C 22.5,34.8333 22.5,33.1667 22.5,31.5 Z"/></g>
<g><path style="opacity:1" fill="#a7cc45" d="M 22.5,36.5 C 25.5331,36.1315 28.1998,36.7982 30.5,38.5C 30.5,39.5 30.5,40.5 30.5,41.5C 29.1733,40.1999 27.84,38.8665 26.5,37.5C 25.1482,38.5244 23.8149,39.5244 22.5,40.5C 22.5,39.1667 22.5,37.8333 22.5,36.5 Z"/></g>
<g><path style="opacity:1" fill="#65a549" d="M 30.5,41.5 C 31.8195,42.9418 33.4862,43.6085 35.5,43.5C 35.7373,44.791 35.404,45.791 34.5,46.5C 32.7116,45.3775 30.7116,45.2109 28.5,46C 30.4257,46.4224 31.4257,47.5891 31.5,49.5C 28.1667,49.5 24.8333,49.5 21.5,49.5C 21.5743,47.5891 22.5743,46.4224 24.5,46C 23.5,45.8333 22.5,45.6667 21.5,45.5C 19.9704,45.6399 18.9704,46.3065 18.5,47.5C 17.5655,46.4324 17.2322,45.099 17.5,43.5C 19.9589,43.69 21.6255,42.69 22.5,40.5C 23.8149,39.5244 25.1482,38.5244 26.5,37.5C 27.84,38.8665 29.1733,40.1999 30.5,41.5 Z"/></g>
<g><path style="opacity:1" fill="#b1d140" d="M 34.5,46.5 C 34.5,47.5 34.5,48.5 34.5,49.5C 33.5,49.5 32.5,49.5 31.5,49.5C 31.4257,47.5891 30.4257,46.4224 28.5,46C 30.7116,45.2109 32.7116,45.3775 34.5,46.5 Z"/></g>
<g><path style="opacity:1" fill="#b0d13f" d="M 21.5,49.5 C 20.5,49.5 19.5,49.5 18.5,49.5C 18.5,48.8333 18.5,48.1667 18.5,47.5C 18.9704,46.3065 19.9704,45.6399 21.5,45.5C 22.5,45.6667 23.5,45.8333 24.5,46C 22.5743,46.4224 21.5743,47.5891 21.5,49.5 Z"/></g>
</svg>
